<?xml version="1.0" encoding="UTF-8" standalone="no"?>
<!-- Created with Inkscape (http://www.inkscape.org/) -->

<svg
   width="50"
   height="50"
   viewBox="0 0 13.229166 13.229167"
   version="1.1"
   id="svg5"
   inkscape:version="1.2.2 (b0a8486541, 2022-12-01)"
   sodipodi:docname="bababehindwater.svg"
   xmlns:inkscape="http://www.inkscape.org/namespaces/inkscape"
   xmlns:sodipodi="http://sodipodi.sourceforge.net/DTD/sodipodi-0.dtd"
   xmlns="http://www.w3.org/2000/svg"
   xmlns:svg="http://www.w3.org/2000/svg">
  <sodipodi:namedview
     id="namedview7"
     pagecolor="#ffffff"
     bordercolor="#999999"
     borderopacity="1"
     inkscape:showpageshadow="0"
     inkscape:pageopacity="0"
     inkscape:pagecheckerboard="0"
     inkscape:deskcolor="#d1d1d1"
     inkscape:document-units="mm"
     showgrid="true"
     inkscape:zoom="6.9947502"
     inkscape:cx="-9.7930588"
     inkscape:cy="28.021015"
     inkscape:window-width="1366"
     inkscape:window-height="731"
     inkscape:window-x="0"
     inkscape:window-y="0"
     inkscape:window-maximized="1"
     inkscape:current-layer="layer1">
    <inkscape:grid
       type="xygrid"
       id="grid132"
       originx="0"
       originy="0"
       spacingy="1"
       spacingx="1"
       units="mm" />
  </sodipodi:namedview>
  <defs
     id="defs2" />
  <g
     inkscape:label="Layer 1"
     inkscape:groupmode="layer"
     id="layer1">
    <rect
       style="fill:#2590eb;stroke:none;stroke-width:1.00012;stroke-linecap:square;fill-opacity:1"
       id="rect1"
       width="13.229166"
       height="13.229166"
       x="0"
       y="0" />
    <path
       style="fill:none;fill-opacity:1;stroke:#0000ff;stroke-width:1;stroke-dasharray:none;stroke-opacity:1"
       d="M 0.46445277,1.2913173 C 1.1689344,0.88684686 1.2112596,0.61616774 2.4689683,0.89301558 3.4327427,1.1336208 3.9155878,1.9569266 4.6401748,1.9999999 5.8184834,2.070045 6.4505109,0.96019401 7.2057485,0.99999997 7.7486956,1.028618 8.1811891,1.9999999 9.0000005,1.9999999 c 1.0422165,0 1.7736165,-0.862103 2.1906975,-0.862103 0.532499,0.024506 0.688282,0.1605074 1.540286,0.5136989"
       id="path2780"
       sodipodi:nodetypes="ccssssc" />
    <path
       style="fill:none;fill-opacity:1;stroke:#0000ff;stroke-width:1;stroke-dasharray:none;stroke-opacity:1"
       d="M 0.2972142,4.8387688 C 1.0000001,4.5246411 1.2385624,4.2888295 2.0000001,4.0803755 2.694232,3.89032 3.2055329,4.9999999 3.9163456,4.9999999 c 0.9784224,0 1.3015316,-0.8300477 2.1666297,-1.2425692 1.8030043,-0.6530856 2.0487182,1.3526541 3.4001238,1.2425692 1.3667599,-0.1113357 2.1087309,-0.3409308 3.2127919,-1"
       id="path2782"
       sodipodi:nodetypes="cssssc" />
    <path
       style="fill:none;fill-opacity:1;stroke:#0000ff;stroke-width:1;stroke-dasharray:none;stroke-opacity:1"
       d="M 12.422347,6.5327319 C 11.678829,7.9999998 11.814019,8.0199583 10.424849,8.4175722 9.2661615,8.6801317 9.2354335,6.3951962 7.3741777,6.6676969 5.9135623,6.8815411 6.4086664,8.1920517 5.0000003,8.3127686 3.5874368,8.4338195 3.7871511,6.7155851 2.5818359,6.7345724 1.9987009,6.7437585 2.1672516,6.7000971 0.47941471,7.9999998"
       id="path2784"
       sodipodi:nodetypes="cssssc" />
    <path
       style="fill:none;fill-opacity:1;stroke:#0000ff;stroke-width:1;stroke-dasharray:none;stroke-opacity:1"
       d="M 0.43821615,11.418875 C 1.1561849,10.75746 1.2920405,10.052971 1.861832,9.9999997 3.0060109,9.8742518 3.2289468,11.706603 4.534465,11.72146 6.3805447,11.673003 5.7940542,10.204753 7.0000004,10.191976 8.055522,10.180792 7.6576601,12.092136 9.1809011,12.143372 10.471137,12 10.289456,9.8648007 12.650391,11.59251"
       id="path2786"
       sodipodi:nodetypes="cccscc" />
    <path
       style="fill:#ffffff;fill-opacity:1;stroke:#ffffe0;stroke-width:1;stroke-opacity:1"
       d="M 11.167913,9.0271217 C 10.143487,9.3543811 9.136504,9.2388814 8.1028084,9.3101234 7.9490656,9.3207204 7.790808,9.3040534 7.6378873,9.3238684 7.3580907,9.3601224 7.0849352,9.4402253 6.8046858,9.472796 6.4040477,9.519358 5.9506923,9.546814 5.5432637,9.516015 5.4339984,9.5077547 5.3147721,9.4399433 5.2177767,9.3995367 4.9191714,9.2751431 4.6208124,9.1521738 4.3259107,9.0202033 3.8417944,8.8035575 3.2873682,8.6391139 2.8669577,8.3067388 2.6579501,8.1414983 2.4861921,7.9335292 2.3069554,7.7363926 2.0346693,7.4369137 1.9050378,7.0772309 1.7849291,6.6961658 1.637191,6.2274419 1.5387357,6.1666343 1.7298074,5.7435102 1.7754154,5.6425119 1.8432164,5.3948444 1.9725411,5.3242168 2.3020022,5.1442898 3.495799,4.8040013 3.505037,4.8009152 4.171098,4.5784101 5.0275706,4.2197807 5.7811796,4.0992121 c 0.1479325,-0.023667 0.3185578,-0.00652 0.4676132,-0.00652 1.1036665,0 1.6092593,0.1328682 2.8199911,0.2992723 0.5879023,0.080802 1.1921141,0.075857 1.7543991,0.292471 0.349306,0.1345657 1.046682,0.7254192 1.173568,1.0538301 0.05839,0.1511234 0.02487,0.3258246 0.04279,0.4843338 0.02807,0.2482075 0.110154,0.6714683 0.145669,0.8604083 0.08786,0.4674174 0.281856,0.9532649 0.08502,1.4107747 -0.01862,0.04329 -0.06653,0.074057 -0.09933,0.1045753 -0.279271,0.2597872 -0.251816,0.1485916 -0.56482,0.193422 -0.174134,0.024942 -0.307169,0.1291678 -0.438168,0.2353414 z"
       id="path3263" />
    <path
       style="fill:#ffffff;fill-opacity:1;stroke:#ffffe0;stroke-width:1;stroke-opacity:1"
       d="M 5.8762468,3.7354551 C 6.2966366,2.9385584 6.1059475,3.5059605 5.8263828,2.0492242 5.7835668,1.8261213 5.7746818,1.5989523 5.7315848,1.3758613 5.7028348,1.2270352 5.6765778,1.0909794 5.5852078,0.96804591 5.5357398,0.90148991 5.4216291,0.90771891 5.4283448,0.91051491 5.576789,0.97231586 5.7269464,1.0299192 5.8762473,1.0896213"
       id="path3265" />
    <path
       style="fill:#ffffff;fill-opacity:1;stroke:#ffffe0;stroke-width:1;stroke-opacity:1"
       d="m 8.5220801,1.0896217 c 0.6349833,0.7795566 0.7531402,1.6637598 1.1205927,2.517888 0.054471,0.1266161 0.1211538,0.2511346 0.1666401,0.3816009 0.016214,0.046508 0.010485,0.09785 0.010485,0.146377 0,0.012187 0,0.048745 0,0.036559 0,-0.1527691 -2.064e-4,-0.007 0.025199,-0.4365913"
       id="path3267" />
    <path
       style="fill:#ffffff;fill-opacity:1;stroke:#000000;stroke-width:1;stroke-opacity:1"
       d="m 9.277795,6.2243531 c -0.065399,0.087725 -0.1065966,0.2003683 -0.1961968,0.2631724 -0.055127,0.03864 -0.1343681,0.00891 -0.2013656,0.015497 -0.4637288,0.045543 -0.5308647,0.039259 -0.9160129,-0.121734"
       id="path3995" />
    <path
       style="fill:#ffffff;fill-opacity:1;stroke:#000000;stroke-width:1;stroke-opacity:1"
       d="M 9.8449968,6.3812883 C 10.295002,5.9080361 10.034468,5.9811156 10.680632,6.1022969 c 0.289457,0.054285 0.281871,0.055224 0.487281,0.2789914"
       id="path3997" />
    <path
       style="fill:#ffffff;fill-opacity:1;stroke:#ffffe0;stroke-width:1;stroke-opacity:1"
       d="M 3.2304135,9.0271217 C 2.4521799,8.8184442 2.5674017,8.9226067 2.5051951,9.3984032 2.4628491,9.7222905 2.3789259,10.040733 2.3549921,10.368063 c -0.023179,0.317003 0.078644,0.625557 0.078644,0.941461 0,0.191932 0.010769,0.38528 0.010769,0.57814 0,0.09418 0,0.188368 0,0.282552 0,0.02267 -0.022672,0.06802 0,0.06802 0.013934,0 0,-0.02787 0,-0.0418 0,-0.01918 0.013731,-0.04414 0,-0.05753 C 2.2747362,11.973475 2.0864664,11.82827 1.9074968,11.672955"
       id="path4053" />
    <path
       style="fill:#ffffff;fill-opacity:1;stroke:#ffffe0;stroke-width:0.966106;stroke-opacity:1"
       d="M 4.5908567,9.0408781 C 5.4298043,10.14899 3.5233588,11.859123 4.2959002,12.74914 c 0.00916,0.01053 0.01988,-0.02024 0.028807,-0.03089 0.090218,-0.107533 0.1774333,-0.216521 0.2661496,-0.32478"
       id="path4055" />
    <path
       style="fill:#ffffff;fill-opacity:1;stroke:#ffffe0;stroke-width:0.859388;stroke-opacity:1"
       d="m 7.1991634,9.0271217 c 0.4244994,1.8268433 -0.1414361,-0.5702513 0.6889679,2.6733803 0.017362,0.06781 -0.010562,0.1441 0.031458,0.205748 0.090916,0.133384 0.4023646,0.03067 0.6024912,0.05199"
       id="path4057" />
    <path
       style="fill:#ffffff;fill-opacity:1;stroke:#ffffe0;stroke-width:1;stroke-opacity:1"
       d="m 9.8449968,9.0271217 c 0.013234,0.2666894 -0.064883,0.5543846 0.039701,0.8000684 3.0940392,5.3251599 0.7928152,1.1309789 1.1516042,2.0047859 0.05267,0.128275 0.132111,0.245248 0.178118,0.377207 0.01683,0.04828 0.04188,0.11058 0.04704,0.162106 2.14e-4,0.0021 -1.6e-4,0.03656 0,0.03656 0.01568,0 0.0024,-0.06254 0,-0.04704 -0.03249,0.211492 -0.06237,0.423378 -0.09355,0.635068"
       id="path4059" />
  </g>
</svg>
