<?xml version="1.0" encoding="UTF-8" standalone="no"?>
<!-- Created with Inkscape (http://www.inkscape.org/) -->

<svg
   width="50"
   height="50"
   viewBox="0 0 13.229166 13.229166"
   version="1.1"
   id="svg5"
   inkscape:version="1.2.2 (b0a8486541, 2022-12-01)"
   sodipodi:docname="bababehindwall.svg"
   xmlns:inkscape="http://www.inkscape.org/namespaces/inkscape"
   xmlns:sodipodi="http://sodipodi.sourceforge.net/DTD/sodipodi-0.dtd"
   xmlns="http://www.w3.org/2000/svg"
   xmlns:svg="http://www.w3.org/2000/svg">
  <sodipodi:namedview
     id="namedview7"
     pagecolor="#ffffff"
     bordercolor="#999999"
     borderopacity="1"
     inkscape:showpageshadow="0"
     inkscape:pageopacity="0"
     inkscape:pagecheckerboard="0"
     inkscape:deskcolor="#d1d1d1"
     inkscape:document-units="mm"
     showgrid="true"
     inkscape:zoom="7.2937304"
     inkscape:cx="33.659045"
     inkscape:cy="25.638458"
     inkscape:window-width="1366"
     inkscape:window-height="731"
     inkscape:window-x="0"
     inkscape:window-y="0"
     inkscape:window-maximized="1"
     inkscape:current-layer="layer1">
    <inkscape:grid
       type="xygrid"
       id="grid132"
       originx="0"
       originy="0" />
  </sodipodi:namedview>
  <defs
     id="defs2" />
  <g
     inkscape:label="Layer 1"
     inkscape:groupmode="layer"
     id="layer1">
    <rect
       style="fill:#552200;fill-opacity:1;stroke-width:1"
       id="rect341"
       width="13.229166"
       height="13.229166"
       x="6.357829e-07"
       y="1.9868214e-08" />
    <rect
       style="fill:#808080;stroke:#000000;stroke-width:0;stroke-dasharray:none"
       id="rect483"
       width="10.583333"
       height="10.583333"
       x="1.3229166"
       y="1.3229166" />
    <path
       style="fill:#ffffff;stroke:#ffffe0;stroke-width:1;stroke-opacity:1;fill-opacity:1"
       d="M 11.167913,9.0271217 C 10.143487,9.3543811 9.1365039,9.2388814 8.1028083,9.3101234 7.9490655,9.32072 7.7908079,9.3040539 7.6378872,9.3238685 7.3580906,9.3601223 7.0849351,9.4402254 6.8046857,9.4727961 6.4040476,9.5193583 5.9506922,9.5468136 5.5432636,9.516015 5.4339983,9.5077547 5.314772,9.4399433 5.2177766,9.3995367 4.9191713,9.2751431 4.6208123,9.1521738 4.3259106,9.0202033 3.8417943,8.8035575 3.2873681,8.6391139 2.8669576,8.3067388 2.65795,8.1414983 2.486192,7.9335292 2.3069553,7.7363926 2.0346692,7.4369137 1.9050377,7.0772309 1.784929,6.6961658 1.6371909,6.2274419 1.5387356,6.1666343 1.7298073,5.7435102 1.7754155,5.6425119 1.8432163,5.3948444 1.972541,5.3242168 2.3020021,5.1442898 3.4957989,4.8040013 3.5050369,4.8009152 4.1710979,4.5784101 5.0275705,4.2197807 5.7811795,4.0992121 c 0.1479325,-0.023667 0.3185578,-0.00652 0.4676132,-0.00652 1.1036665,0 1.6092593,0.1328682 2.8199911,0.2992723 0.5879023,0.080802 1.1921142,0.075857 1.7543992,0.292471 0.349306,0.1345657 1.046682,0.7254192 1.173568,1.0538301 0.05839,0.1511234 0.02487,0.3258246 0.04279,0.4843338 0.02807,0.2482075 0.110154,0.6714683 0.145669,0.8604083 0.08786,0.4674174 0.281856,0.9532649 0.08502,1.4107747 -0.01862,0.04329 -0.06653,0.074057 -0.09933,0.1045753 -0.279271,0.2597872 -0.251816,0.1485916 -0.56482,0.193422 -0.174134,0.024942 -0.307169,0.1291678 -0.438168,0.2353414 z"
       id="path3263" />
    <path
       style="fill:#ffffff;stroke:#ffffe0;stroke-width:1;stroke-opacity:1;fill-opacity:1"
       d="M 5.8762467,3.7354551 C 6.2966365,2.9385584 6.1059474,3.5059605 5.8263823,2.0492242 5.7835661,1.8261213 5.7746814,1.5989523 5.7315842,1.3758613 5.7028338,1.2270352 5.6765768,1.0909794 5.5852072,0.96804595 5.5357396,0.90148975 5.4216285,0.90771935 5.4283442,0.91051535 5.5767884,0.97231645 5.7269458,1.0299196 5.8762467,1.0896217"
       id="path3265" />
    <path
       style="fill:#ffffff;stroke:#ffffe0;stroke-width:1;stroke-opacity:1;fill-opacity:1"
       d="m 8.52208,1.0896217 c 0.6349833,0.7795566 0.7531402,1.6637598 1.1205927,2.517888 0.054471,0.1266161 0.1211538,0.2511346 0.1666401,0.3816009 0.016214,0.046508 0.010485,0.09785 0.010485,0.146377 0,0.012187 0,0.048745 0,0.036559 0,-0.1527691 -2.064e-4,-0.007 0.025199,-0.4365913"
       id="path3267" />
    <path
       style="fill:#ffffff;stroke:#000000;stroke-width:1;stroke-opacity:1;fill-opacity:1"
       d="M 9.2777949,6.2243531 C 9.2123956,6.3120777 9.1711983,6.4247214 9.0815981,6.4875255 9.0264716,6.5261659 8.94723,6.4964382 8.8802325,6.5030224 8.4165037,6.548565 8.3493678,6.5422818 7.9642196,6.3812884"
       id="path3995" />
    <path
       style="fill:#ffffff;stroke:#000000;stroke-width:1;stroke-opacity:1;fill-opacity:1"
       d="M 9.8449967,6.3812883 C 10.295002,5.9080361 10.034468,5.9811156 10.680632,6.1022969 c 0.289457,0.054285 0.281871,0.055224 0.487281,0.2789914"
       id="path3997" />
    <path
       style="fill:#ffffff;stroke:#ffffe0;stroke-width:1;stroke-opacity:1;fill-opacity:1"
       d="M 3.2304134,9.0271217 C 2.4521798,8.8184442 2.5674016,8.9226067 2.505195,9.3984032 2.4628493,9.7222905 2.3789258,10.040733 2.354992,10.368063 c -0.023179,0.317003 0.078644,0.625557 0.078644,0.941461 0,0.191932 0.010769,0.38528 0.010769,0.57814 0,0.09418 0,0.188368 0,0.282552 0,0.02267 -0.022672,0.06802 0,0.06802 0.013934,0 0,-0.02787 0,-0.0418 0,-0.01918 0.013731,-0.04414 0,-0.05753 C 2.2747361,11.973475 2.0864663,11.82827 1.9074967,11.672955"
       id="path4053" />
    <path
       style="fill:#ffffff;stroke:#ffffe0;stroke-width:0.966106;stroke-opacity:1;fill-opacity:1"
       d="M 4.5908566,9.0408781 C 5.4298042,10.14899 3.5233587,11.859123 4.2959001,12.74914 c 0.00916,0.01053 0.01988,-0.02024 0.028807,-0.03089 0.090218,-0.107533 0.1774333,-0.216521 0.2661496,-0.32478"
       id="path4055" />
    <path
       style="fill:#ffffff;stroke:#ffffe0;stroke-width:0.859388;stroke-opacity:1;fill-opacity:1"
       d="m 7.1991633,9.0271217 c 0.4244994,1.8268433 -0.1414361,-0.5702513 0.6889679,2.6733803 0.017362,0.06781 -0.010562,0.1441 0.031458,0.205748 0.090916,0.133384 0.4023646,0.03067 0.6024912,0.05199"
       id="path4057" />
    <path
       style="fill:#ffffff;stroke:#ffffe0;stroke-width:1;stroke-opacity:1;fill-opacity:1"
       d="m 9.8449967,9.0271217 c 0.013234,0.2666894 -0.064883,0.5543846 0.039701,0.8000684 3.0940393,5.3251599 0.7928153,1.1309789 1.1516043,2.0047859 0.05267,0.128275 0.132111,0.245248 0.178118,0.377207 0.01683,0.04828 0.04188,0.11058 0.04704,0.162106 2.14e-4,0.0021 -1.6e-4,0.03656 0,0.03656 0.01568,0 0.0024,-0.06254 0,-0.04704 -0.03249,0.211492 -0.06237,0.423378 -0.09355,0.635068"
       id="path4059" />
  </g>
</svg>
