<?xml version="1.0" encoding="UTF-8" standalone="no"?>
<!-- Created with Inkscape (http://www.inkscape.org/) -->

<svg
   width="50"
   height="50"
   viewBox="0 0 13.229166 13.229166"
   version="1.1"
   id="svg5"
   inkscape:version="1.2.2 (b0a8486541, 2022-12-01)"
   sodipodi:docname="baba.svg"
   xmlns:inkscape="http://www.inkscape.org/namespaces/inkscape"
   xmlns:sodipodi="http://sodipodi.sourceforge.net/DTD/sodipodi-0.dtd"
   xmlns="http://www.w3.org/2000/svg"
   xmlns:svg="http://www.w3.org/2000/svg">
  <sodipodi:namedview
     id="namedview7"
     pagecolor="#ffffff"
     bordercolor="#999999"
     borderopacity="1"
     inkscape:showpageshadow="0"
     inkscape:pageopacity="0"
     inkscape:pagecheckerboard="0"
     inkscape:deskcolor="#d1d1d1"
     inkscape:document-units="mm"
     showgrid="true"
     inkscape:zoom="10.953336"
     inkscape:cx="28.301881"
     inkscape:cy="26.019471"
     inkscape:window-width="1366"
     inkscape:window-height="731"
     inkscape:window-x="0"
     inkscape:window-y="0"
     inkscape:window-maximized="1"
     inkscape:current-layer="layer1">
    <inkscape:grid
       type="xygrid"
       id="grid132"
       originx="0"
       originy="0" />
  </sodipodi:namedview>
  <defs
     id="defs2" />
  <g
     inkscape:label="Layer 1"
     inkscape:groupmode="layer"
     id="layer1">
    <path
       style="fill:#800000;fill-opacity:1;stroke:#ffffff;stroke-width:0;stroke-dasharray:none;stroke-dashoffset:0;stroke-opacity:1"
       d="m 2.6458367,10.583335 c -0.2386644,-0.03935 -0.4781759,-0.0739 -0.715993,-0.1181 C 1.9278637,10.464867 1.7585513,10.211909 1.7266303,10.168754 1.5927784,9.9877945 1.5340184,9.7995395 1.4656509,9.5867075 1.4161109,9.4324825 1.3604409,9.2811874 1.3258769,9.1226024 1.254489,8.7950579 1.2581825,8.4564764 1.2461045,8.1234699 c -0.00663,-0.182805 -0.049945,-0.37427 -0.049945,-0.55471 0,-0.0074 -0.00251,0.0153 0,0.02225 0.04158,0.1157345 0.084506,0.2309845 0.1267595,0.3464795"
       id="path2616" />
    <path
       style="fill:#800000;fill-opacity:1;stroke:#ffffff;stroke-width:0;stroke-dasharray:none;stroke-dashoffset:0;stroke-opacity:1"
       d="M 1.3229205,7.9375019 C 1.0350501,5.9018578 0.97278356,6.2035733 1.2967355,4.4688079 1.3319305,4.2803364 1.395476,4.149345 1.5177429,3.9812335 c 0.046145,-0.063446 0.098368,-0.1222624 0.1491435,-0.1820669 0.02628,-0.030955 0.057253,-0.061809 0.086477,-0.091034 0.00709,-0.00709 0.03716,-0.014565 0.02854,-0.00946 C 1.6291839,3.7891671 1.4759149,3.8787265 1.3229205,3.968752"
       id="path2618" />
    <path
       style="fill:#800000;fill-opacity:1;stroke:#ffffff;stroke-width:0;stroke-dasharray:none;stroke-dashoffset:0;stroke-opacity:1"
       d="M 1.3229205,3.9687531 C 2.1338369,3.5392652 2.9305605,3.0818364 3.7556698,2.6802892 4.3297396,2.4009128 4.9234004,2.1628965 5.5169386,1.9276949 c 0.055375,-0.021945 0.122035,-0.026145 0.17854,-0.00731 0.2769145,0.092305 0.86771,0.6812818 0.919104,0.7254486"
       id="path2620" />
    <path
       style="fill:#800000;fill-opacity:1;stroke:#ffffff;stroke-width:0;stroke-dasharray:none;stroke-dashoffset:0;stroke-opacity:1"
       d="m 6.6145852,2.6458368 c 0.573966,-0.091098 1.1412969,-0.2985759 1.7218965,-0.2732905 0.8208468,0.03575 1.6140368,0.3086659 2.4227433,0.4537914 0.36048,0.064691 0.45663,-0.046405 0.45663,0.2259074 0,0.093239 0,0.1864796 0,0.2797195 0,0.0596 0,0.1192 0,0.1788 0,0.019025 0.01605,0.046835 0,0.057079 -0.21036,0.1343904 -0.42168,0.2672729 -0.63252,0.4009093"
       id="path2622" />
    <path
       style="fill:#800000;fill-opacity:1;stroke:#ffffff;stroke-width:0;stroke-dasharray:none;stroke-dashoffset:0;stroke-opacity:1"
       d="m 10.583334,3.9687531 c 0.615519,0.3856008 1.234846,0.7651869 1.846556,1.1568021 0.0031,0.00195 -0.0012,0.0269 0,0.0349 0.0043,0.0297 0.01525,0.058005 0.0226,0.08708 0.0203,0.080385 0.03835,0.161355 0.06035,0.241295 0.03715,0.135 0.07396,0.27018 0.116995,0.40342 0.05206,0.161215 0.13545,0.3088595 0.17622,0.4734745 0.04255,0.17174 0.04865,0.31759 0.07788,0.489035 0.01505,0.088245 0.07831,0.30256 0.07831,0.4284351 0,0.00635 -0.0024,-0.0132 0,-0.0191 0.08787,-0.21696 0.177945,-0.433015 0.266915,-0.649525"
       id="path2624" />
    <path
       style="fill:#800000;fill-opacity:1;stroke:#ffffff;stroke-width:0;stroke-dasharray:none;stroke-dashoffset:0;stroke-opacity:1"
       d="m 13.229167,6.6145853 c -0.214245,0.6880941 -0.46807,1.3650926 -0.64274,2.0642816 -0.36938,1.4785871 0.13474,2.0672821 -0.693798,2.6746981 -0.05582,0.0409 -0.116174,0.07571 -0.177769,0.10728 -0.0306,0.0157 -0.157645,0.05239 -0.19264,0.06034 -0.0604,0.01375 -0.07531,0.0099 -0.13874,0.0099 -0.14235,0 -0.1351,-0.0336 -0.2284,-0.12688 -0.0667,-0.06669 -0.14434,-0.162735 -0.147685,-0.157485 -0.140395,0.22043 -0.28271,0.439635 -0.42406,0.659451"
       id="path2626" />
    <path
       style="fill:#800000;fill-opacity:1;stroke:#ffffff;stroke-width:0;stroke-dasharray:none;stroke-dashoffset:0;stroke-opacity:1"
       d="m 10.583334,11.906251 c -1.0082691,-0.07156 -2.0158699,-0.15324 -3.0248059,-0.214685 -0.3164295,-0.01925 -0.6337865,-0.0176 -0.9506499,-0.0274 -0.118075,-0.0037 -0.236095,-0.009 -0.354165,-0.013 -0.3024551,-0.0102 -0.5426856,0.01305 -0.7690986,-0.228915 -0.181545,-0.19402 -0.252375,-0.454655 -0.5013287,-0.579726 -0.1866944,-0.0938 -0.4271778,-0.12179 -0.6331937,-0.09748 -0.108228,0.01275 -0.2100349,0.05655 -0.3191754,0.06516 -0.073439,0.0058 -0.1421454,-0.019 -0.2144744,-0.019 -0.085898,0 0.1022364,-0.138075 0.1523084,-0.207869"
       id="path2628" />
    <path
       style="fill:#800000;fill-opacity:1;stroke:#ffffff;stroke-width:0;stroke-dasharray:none;stroke-dashoffset:0;stroke-opacity:1"
       d="m 3.9687529,10.583335 c -1.7084861,-0.02995 -0.5723368,0.05102 -1.2146227,-0.05595 -0.037546,-0.0062 -0.091281,-0.0095 -0.1300599,-0.0095 -0.013755,0 -0.050539,-0.01015 -0.04126,0 0.02044,0.02235 0.04202,0.04365 0.063028,0.06548"
       id="path2630" />
    <path
       style="fill:#800000;fill-opacity:1;stroke:#ffffff;stroke-width:0;stroke-dasharray:none;stroke-dashoffset:0;stroke-opacity:1"
       d="m 5.2916691,5.2916693 c -0.05812,0.238215 -0.07828,0.489055 -0.174365,0.7146495 -0.00845,0.0199 -0.2722889,0.1428545 -0.3073129,0.1578245 C 4.4060838,6.3368033 4.0681259,6.1602433 3.7240374,5.9441688 3.6512489,5.8984688 3.5576075,5.8488838 3.4979585,5.7840238 3.386825,5.6631838 3.358778,5.4848238 3.3274105,5.3310888 3.3072855,5.2324538 3.256466,4.9877978 3.3012805,4.8933723 3.373712,4.7407489 3.6114825,4.5339674 3.7044409,4.4575465 3.8227998,4.3602445 4.1468697,4.1021376 4.3483799,4.0549881 c 0.2312219,-0.054101 0.4532718,-6.5e-4 0.6802147,0.04556 0.0817,0.016635 0.224605,0.024545 0.29734,0.081663 0.22359,0.175584 0.15125,0.5110624 0.12542,0.7569785 -0.00575,0.054757 0.008,0.2746488 -0.04435,0.3028438 -0.03685,0.01985 -0.076885,0.0331 -0.115325,0.04965 z"
       id="path2634" />
    <path
       style="fill:#800000;fill-opacity:1;stroke:#ffffff;stroke-width:0;stroke-dasharray:none;stroke-dashoffset:0;stroke-opacity:1"
       d="M 9.2604176,6.6145853 C 9.8108085,6.2066118 9.1400658,6.7813328 8.3565107,5.9392688 7.8476691,5.3924318 7.9052276,5.1090302 7.8863001,4.5975786 c -0.00255,-0.068346 -0.00375,-0.3923544 0.060605,-0.4204384 0.149825,-0.065406 0.7715086,-0.061618 0.9298476,-0.020375 0.069629,0.01814 0.1371194,0.04375 0.2050194,0.067566 0.2370755,0.083157 0.72002,0.3017104 0.8734573,0.5139648 0.050209,0.069454 0.077982,0.2415089 0.087082,0.2871982 0.123945,0.6227171 0.116815,0.6818051 -0.063263,1.2536651 -0.031055,0.09864 -0.045,0.16028 -0.086736,0.2425 -0.09211,0.1814245 -0.29904,0.1166995 -0.4568,0.072979 -0.0183,-0.0051 -0.055727,-0.0264 -0.076073,-0.0191 -0.0334,0.012 -0.066,0.026 -0.09901,0.03905 z"
       id="path2636" />
    <path
       style="fill:none;stroke:#800000;stroke-width:1;stroke-opacity:1"
       d="M 11.1125,6.6145832 C 10.593361,7.1686265 11.301107,6.4424431 10.492085,7.1337787 10.084133,7.4823869 9.7422792,7.9048944 9.3267706,8.2444601 9.0855979,8.4415536 8.9179524,8.490016 8.6511714,8.6028298 8.2640609,8.7665272 7.8737192,8.9253153 7.4919903,9.1012256 6.7095158,9.4618096 5.7780033,9.7920363 4.9315071,9.4582746 4.5936127,9.3250466 4.3611755,9.1788836 4.064834,8.9813916 3.7377788,8.7634306 3.4788202,8.5487045 3.3135602,8.1802029 3.2014073,7.9301209 3.1435881,7.6576683 3.0346396,7.4170398 2.995586,7.3307843 2.9598771,7.2377288 2.9094273,7.1569909 c -0.018887,-0.030227 -0.041612,-0.070995 -0.069636,-0.09398 -0.00525,-0.0043 -0.021924,-0.015581 -0.017456,-0.010474 0.027828,0.031813 0.058721,0.060808 0.088081,0.091213"
       id="path3585" />
  </g>
</svg>
