<?xml version="1.0" encoding="UTF-8" standalone="no"?>
<!-- Created with Inkscape (http://www.inkscape.org/) -->

<svg
   width="50"
   height="50"
   viewBox="0 0 13.229166 13.229167"
   version="1.1"
   id="svg5"
   inkscape:version="1.2.2 (b0a8486541, 2022-12-01)"
   sodipodi:docname="flag.svg"
   xmlns:inkscape="http://www.inkscape.org/namespaces/inkscape"
   xmlns:sodipodi="http://sodipodi.sourceforge.net/DTD/sodipodi-0.dtd"
   xmlns="http://www.w3.org/2000/svg"
   xmlns:svg="http://www.w3.org/2000/svg">
  <sodipodi:namedview
     id="namedview7"
     pagecolor="#ffffff"
     bordercolor="#999999"
     borderopacity="1"
     inkscape:showpageshadow="0"
     inkscape:pageopacity="0"
     inkscape:pagecheckerboard="0"
     inkscape:deskcolor="#d1d1d1"
     inkscape:document-units="mm"
     showgrid="true"
     inkscape:zoom="11.951799"
     inkscape:cx="6.9863962"
     inkscape:cy="6.860892"
     inkscape:window-width="1366"
     inkscape:window-height="731"
     inkscape:window-x="0"
     inkscape:window-y="0"
     inkscape:window-maximized="1"
     inkscape:current-layer="layer1">
    <inkscape:grid
       type="xygrid"
       id="grid132" />
  </sodipodi:namedview>
  <defs
     id="defs2" />
  <g
     inkscape:label="Layer 1"
     inkscape:groupmode="layer"
     id="layer1">
    <path
       style="fill:#ffff00;fill-opacity:1;stroke:#ffff00;stroke-width:1;stroke-opacity:1"
       d="m 11.90625,11.90625 c -0.504789,-0.277085 -0.283364,-0.270518 -0.714645,-0.201436 -0.145533,0.02331 -0.292474,0.04012 -0.435961,0.07381 -0.572856,0.134475 -1.1178409,0.361849 -1.6992805,0.460825 -0.1271055,0.02164 -0.2608503,-0.0018 -0.3888938,0.0063 -0.2461554,0.01552 -0.4860647,0.07823 -0.7322838,0.09867 -0.4760273,0.03952 -0.9897087,0.03016 -1.4622222,0.0034 C 5.980282,12.319953 5.2771912,12.157453 4.7660215,12.066655 4.477672,12.015436 4.1744257,12.030035 3.8825273,11.995037 3.5953345,11.960604 3.2893209,11.828779 3.0132628,11.764078 c -0.18957,-0.04443 -0.6072783,-0.164412 -0.8248553,-0.185456 -0.7778706,-0.07523 0.5151865,0.07272 -0.3831082,-0.02455 -0.083878,-0.0091 -0.1737212,-0.04378 -0.2561351,-0.04378 -0.021925,0 0.075166,-0.0013 0.063487,0.0172 -0.084676,0.134526 -0.193156,0.252507 -0.2897341,0.378761"
       id="path21730" />
    <path
       style="fill:#ffff00;fill-opacity:1;stroke:#ffff00;stroke-width:1;stroke-opacity:1"
       d="M 6.6145832,11.90625 C 7.0626509,10.370954 6.7145574,8.7974603 6.8507554,7.2369907 6.874171,6.9687 7.0221691,5.9278257 7.0471569,5.7883729 7.1743334,5.0786191 7.2167527,5.1179211 7.2917205,4.578533 7.3140778,4.4176785 7.2437148,4.2418812 7.2437148,4.0790852 c 0,-0.208652 0.00911,-0.4322128 -0.024239,-0.6384616 C 7.1925872,3.2743473 7.098508,3.1245085 7.0579453,2.9618167 7.0377946,2.8809997 7.0239095,2.6821743 6.9367582,2.6385986 6.8406802,2.5905596 6.7219742,2.6433786 6.6145832,2.6458286 6.1619076,2.9799283 5.7116786,3.3173686 5.2565564,3.6481277 4.851365,3.9425996 4.3974662,4.061252 3.9591489,4.3446026 3.2692613,4.7905813 2.5934719,5.2608721 1.9482222,5.7692958 1.5730626,6.0649023 1.2581536,6.4299917 0.90476068,6.7513036 0.81098685,6.8365646 0.68789275,6.8867024 0.59827418,6.976321 c -0.0318329,0.031833 0.28616571,0.033839 0.3230618,0.046129 0.42093462,0.1402144 0.24176552,0.108135 0.99999042,0.2523823 0.5829192,0.1108965 1.2145867,0.1799885 1.8084268,0.2148533 0.2141732,0.012574 0.2459713,-0.019249 0.4875637,0 0.3959306,0.031546 0.7521411,0.1610767 1.137753,0.2190753 0.3040354,0.045729 0.6546196,-0.068994 0.947919,0.028772 0.1170802,0.039027 0.2074098,0.133812 0.3115944,0.1999666"
       id="path21732" />
  </g>
</svg>
