<?xml version="1.0" encoding="UTF-8" standalone="no"?>
<!-- Created with Inkscape (http://www.inkscape.org/) -->

<svg
   width="50"
   height="50"
   viewBox="0 0 13.229166 13.229167"
   version="1.1"
   id="svg5"
   inkscape:version="1.2.2 (b0a8486541, 2022-12-01)"
   sodipodi:docname="keke.svg"
   xmlns:inkscape="http://www.inkscape.org/namespaces/inkscape"
   xmlns:sodipodi="http://sodipodi.sourceforge.net/DTD/sodipodi-0.dtd"
   xmlns="http://www.w3.org/2000/svg"
   xmlns:svg="http://www.w3.org/2000/svg">
  <sodipodi:namedview
     id="namedview7"
     pagecolor="#ffffff"
     bordercolor="#999999"
     borderopacity="1"
     inkscape:showpageshadow="0"
     inkscape:pageopacity="0"
     inkscape:pagecheckerboard="0"
     inkscape:deskcolor="#d1d1d1"
     inkscape:document-units="mm"
     showgrid="true"
     inkscape:zoom="5.87058"
     inkscape:cx="36.197446"
     inkscape:cy="26.913865"
     inkscape:window-width="1366"
     inkscape:window-height="731"
     inkscape:window-x="0"
     inkscape:window-y="0"
     inkscape:window-maximized="1"
     inkscape:current-layer="layer1">
    <inkscape:grid
       type="xygrid"
       id="grid132" />
  </sodipodi:namedview>
  <defs
     id="defs2" />
  <g
     inkscape:label="Layer 1"
     inkscape:groupmode="layer"
     id="layer1">
    <path
       style="fill:#ff5d00;fill-opacity:1;stroke:#ff5d00;stroke-width:1;stroke-opacity:1"
       d="m 9.2604166,8.9958326 c -0.1797812,0.01554 -0.3590203,0.05346 -0.5393434,0.04664 -0.3023227,-0.01144 -0.637572,-0.1117337 -0.9430218,-0.1483957 -0.53364,-0.06405 -1.0711706,-0.09082 -1.6066087,-0.140152 -0.4002839,-0.03688 -0.8060838,-0.0613 -1.1900591,0.0768 C 4.8589707,8.8747549 4.0999433,9.2642976 3.9848464,9.2199376 3.8753891,9.1777506 3.8638556,8.9540386 3.8407898,8.8623989 3.8061542,8.7247929 3.68662,8.6142459 3.6433627,8.4781029 3.5853375,8.295481 3.5727669,8.0826216 3.5292453,7.8946442 3.4207831,7.4261734 3.2889663,7.0311114 3.2203046,6.5405686 3.1869036,6.3019425 3.2483255,6.0586843 3.2713607,5.8241902 3.3043114,5.4887596 3.3264369,5.1523173 3.360022,4.81695 3.371902,4.6983352 3.363692,4.5748166 3.401388,4.4617257 3.404058,4.4537257 3.6311291,4.3028802 3.6505945,4.2444835 3.6903735,4.1251485 3.7456815,4.0037505 3.7921926,3.8857881 3.8937316,3.628265 4.017596,3.4406021 4.1876252,3.2200319 4.2490372,3.1403649 4.3054465,3.0568965 4.3675514,2.9777678 c 0.021765,-0.027729 0.040579,-0.066227 0.074777,-0.074777 0.00519,-0.0013 0.010702,0 0.016055,0 0.050189,-0.033989 0.098025,-0.071742 0.1505654,-0.1019677 C 4.7669431,2.7101304 4.9260876,2.6208536 5.0894268,2.5399567 5.4256389,2.3734412 5.7594825,2.20026 6.1070804,2.0590445 6.3107432,1.9763043 6.5260097,1.9248579 6.7388475,1.8698616 c 0.1023516,-0.026448 0.1053973,0.022574 0.1858563,0.042668 0.2238718,0.055906 0.4324088,0.040271 0.6358167,0.1674876 0.2196523,0.1373756 0.357732,0.4707895 0.5026075,0.6702398 0.134044,0.1845385 0.3741478,0.4163881 0.4715111,0.6355274 0.1708282,0.3844906 0.1343183,0.8477837 0.2016215,1.2561575 0.02935,0.178086 0.075869,0.3529134 0.113828,0.5293651 0.1710012,0.7949072 0.4334536,1.5696726 0.6505693,2.3520587 0.1324507,0.4772919 0.2232115,0.9624742 0.3565261,1.4394099 0.00329,0.01177 0.034958,0.17144 0.016055,0.176166 -0.1106117,0.02765 -0.2253604,-0.112984 -0.2988164,-0.122795 -0.1039649,-0.01389 -0.2093376,-0.01354 -0.3140059,-0.02031 z"
       id="path2534" />
    <path
       style="fill:#000000;fill-opacity:1;stroke:#000000;stroke-width:1;stroke-opacity:1"
       d="m 5.2916666,5.2916666 c 0.1541677,-0.3844727 0.071552,-0.9732909 0,-1.3229166"
       id="path2540" />
    <path
       style="fill:#000000;fill-opacity:1;stroke:#000000;stroke-width:1;stroke-opacity:1"
       d="m 6.6145832,3.96875 c 0.226458,0.2842704 0.4676521,0.5574019 0.6793738,0.8528116 0.022984,0.032071 0.011875,0.078048 0.015909,0.1172993 0.012539,0.1219769 -0.0038,-0.015116 0.00535,-0.01056 0.2149998,0.107105 0.4148537,0.2422438 0.6222809,0.3633653"
       id="path2542" />
    <path
       style="fill:#000000;fill-opacity:1;stroke:#ff5d00;stroke-width:1;stroke-opacity:1"
       d="M 5.2916666,11.90625 C 5.3482906,11.230754 5.6199923,10.536532 5.4800859,9.8584852 5.4301461,9.6164542 5.4147341,9.3694357 5.3610512,9.1274984 5.3548308,9.0994647 5.2982341,8.8541832 5.2971223,8.8552948 c -0.095497,0.095497 -0.00361,0.2700816 -0.00546,0.4051218"
       id="path2548" />
    <path
       style="fill:#000000;fill-opacity:1;stroke:#ff5d00;stroke-width:1;stroke-opacity:1"
       d="m 7.9374999,11.90625 c 0.1307407,-0.239343 0.1344943,-0.327737 0.1344943,-0.534509 0,-0.14276 -0.046264,-0.278366 -0.059153,-0.420061 -0.016603,-0.182529 -0.00333,-0.391874 0.01021,-0.571993 0.017034,-0.226623 0.097181,-0.4399395 0.097181,-0.6686467 0,-0.1882531 0.00651,-0.3766627 0.00651,-0.5651275 0,-0.060621 0,-0.1212413 0,-0.1818621 0,-0.00869 0.00468,-0.033376 0,-0.026056 C 8.0596732,9.0430274 8.0005783,9.152943 7.9374961,9.2604168"
       id="path4700" />
  </g>
</svg>
