<?xml version="1.0" encoding="UTF-8" standalone="no"?>
<!-- Created with Inkscape (http://www.inkscape.org/) -->

<svg
   width="50"
   height="50"
   viewBox="0 0 13.229166 13.229167"
   version="1.1"
   id="svg5"
   inkscape:version="1.4 (1:1.4+202410161351+e7c3feb100)"
   sodipodi:docname="keke.svg"
   xmlns:inkscape="http://www.inkscape.org/namespaces/inkscape"
   xmlns:sodipodi="http://sodipodi.sourceforge.net/DTD/sodipodi-0.dtd"
   xmlns="http://www.w3.org/2000/svg"
   xmlns:svg="http://www.w3.org/2000/svg">
  <sodipodi:namedview
     id="namedview7"
     pagecolor="#ffffff"
     bordercolor="#999999"
     borderopacity="1"
     inkscape:showpageshadow="0"
     inkscape:pageopacity="0"
     inkscape:pagecheckerboard="0"
     inkscape:deskcolor="#d1d1d1"
     inkscape:document-units="mm"
     showgrid="true"
     inkscape:zoom="46.96464"
     inkscape:cx="24.923006"
     inkscape:cy="37.613405"
     inkscape:window-width="1854"
     inkscape:window-height="1011"
     inkscape:window-x="66"
     inkscape:window-y="32"
     inkscape:window-maximized="1"
     inkscape:current-layer="layer1">
    <inkscape:grid
       type="xygrid"
       id="grid132"
       originx="0"
       originy="0"
       spacingy="1"
       spacingx="1"
       units="mm" />
  </sodipodi:namedview>
  <defs
     id="defs2" />
  <g
     inkscape:label="Layer 1"
     inkscape:groupmode="layer"
     id="layer1">
    <path
       style="fill:#ff682a;stroke-width:0.264583;fill-opacity:1"
       d="m 5.0000003,9.9999997 c 0.00114,0.023519 -0.020108,0.071695 0.00341,0.070558 C 5.1287248,10.064502 4.7126257,9.8069917 4.684722,9.7837388 4.6385577,9.7452684 4.6041709,9.6938027 4.5572465,9.6562634 4.4974295,9.6084095 4.4110894,9.5907396 4.3660335,9.5287879 3.782691,8.7266919 4.2384659,9.2205626 3.9198695,8.6683288 3.8123801,8.4820137 3.6921471,8.3031337 3.5693122,8.1265582 3.3373187,7.7930676 3.469527,8.0863325 3.2824925,7.712263 c -0.024789,-0.04958 0.00446,-0.2058744 0,-0.2549509 -0.019659,-0.2162336 -0.031869,-0.4197948 -0.031869,-0.637377 0,-0.3505573 0,-0.7011149 0,-1.0516722 0,-0.1487215 -0.03832,-0.3024642 0,-0.4461639 C 3.2751055,5.230293 3.3480525,5.1572868 3.378099,5.0671481 3.401853,4.9958871 3.391008,4.9167491 3.409968,4.844066 3.454918,4.6717595 3.5212984,4.5056424 3.5693123,4.3341644 c 0.026408,-0.094311 0.036103,-0.1928606 0.063738,-0.2868197 0.025609,-0.087074 0.075198,-0.1665126 0.095607,-0.2549509 0.011943,-0.051755 -0.013975,-0.1081011 0,-0.1593443 0.058865,-0.2158391 0.191213,-0.326885 0.191213,-0.5736394 0,-0.021246 -0.015023,-0.048714 0,-0.063738 0.060186,-0.060186 0.060157,-0.015039 0.1274755,-0.031869 C 4.1444648,2.9395221 4.3177952,2.8099156 4.4297721,2.77259 4.6150614,2.710827 5.313744,2.720597 5.4814443,2.740721 5.6017016,2.755151 5.7144978,2.806952 5.8320016,2.836328 6.9210181,3.1085818 5.3932491,2.7218224 6.3737722,2.931934 c 0.1412804,0.030274 0.283106,0.066927 0.4142952,0.1274754 0.069553,0.032101 0.1239633,0.090794 0.191213,0.1274755 0.050221,0.027393 0.1096754,0.035355 0.1593443,0.063738 0.026088,0.014907 0.036864,0.050301 0.063738,0.063738 0.028504,0.014253 0.073072,-0.022534 0.095606,0 0.00751,0.00751 -0.00475,0.022368 0,0.031869 0.017129,0.034258 0.041476,0.064439 0.063738,0.095607 0.1017698,0.1424778 0.1565315,0.2727558 0.191213,0.4461639 0.012674,0.063362 0.00979,0.1304867 0.031869,0.1912131 0.021169,0.058213 0.072602,0.1018326 0.095607,0.1593442 0.020116,0.050293 0.018732,0.1067951 0.031869,0.1593443 0.035043,0.1401739 0.094986,0.2735077 0.1274754,0.4142952 0.033781,0.1463841 0.036864,0.298356 0.063738,0.4461639 0.061821,0.3400145 -0.01465,-0.0293 0.095606,0.1912133 0.036709,0.073417 -0.027425,0.080286 0.031869,0.1593443 0.018029,0.024037 0.053188,0.035604 0.063738,0.063738 0.022688,0.060503 0.013301,0.1293214 0.031869,0.191213 0.01365,0.045504 0.050686,0.081796 0.063738,0.1274755 0.00876,0.030643 -0.00352,0.063933 0,0.095607 0.018322,0.1649074 0.031869,0.3119044 0.031869,0.4780328 0,0.063997 0.0281,0.2306188 0,0.2868197 -0.013438,0.026874 -0.042492,0.042492 -0.063738,0.063738 -0.031869,0.1062294 -0.068708,0.211093 -0.095606,0.3186885 -0.013801,0.055205 -0.1154534,0.6890924 -0.1274755,0.7011148 -0.00751,0.00751 -0.027118,-0.0095 -0.031869,0 -0.0095,0.019002 0.015023,0.048715 0,0.063738 -0.051024,0.051024 -0.1141778,0.027856 -0.1593445,0.095607 -0.070212,0.01605 -0.016846,0.06556 -0.031869,0.095607 C 7.6831044,8.2486139 7.5553127,8.372263 7.5210502,8.4133779 7.487047,8.4541817 7.420902,8.4634389 7.3935748,8.5089845 7.3710402,8.5465422 7.3794937,8.5964354 7.361706,8.63646 7.2590736,8.867383 7.0925742,9.061429 7.0111484,9.3057058 c -0.00956,0.028682 0.00956,0.066925 0,0.095607 -0.027563,0.08269 -0.041719,0.1512316 -0.095606,0.2230818 -0.070036,0.093381 -0.1587645,0.095027 -0.1912133,0.1274755 -0.00751,0.00751 0.00751,0.024358 0,0.031869 -0.1151265,0.1151266 -0.5894051,0.1306285 -0.7329837,0.1593443 -0.1071234,0.021426 -0.33064,-0.041828 -0.4142951,0 -0.1101365,0.055068 -0.2318496,0.034061 -0.3505573,0.063738 -0.020611,0.0052 0.020942,0.06731 0,0.06374 -0.077947,-0.01331 -0.1509948,-0.04704 -0.2264923,-0.07056 z"
       id="path1" />
    <rect
       style="fill:#000000;fill-opacity:1;stroke:none;stroke-width:1;stroke-linecap:square;stroke-dasharray:none;stroke-opacity:1;paint-order:normal"
       id="rect2"
       width="1"
       height="0.99999994"
       x="4"
       y="3.9999998" />
    <rect
       style="fill:#000000;fill-opacity:1;stroke:none;stroke-width:1;stroke-linecap:square;stroke-dasharray:none;stroke-opacity:1;paint-order:normal"
       id="rect2-3"
       width="1"
       height="0.99999994"
       x="6.0000005"
       y="4.5" />
    <path
       style="fill:none;fill-opacity:1;stroke:#ff6529;stroke-width:1;stroke-linecap:square;stroke-dasharray:none;stroke-opacity:1;paint-order:normal"
       d="m 6.9681314,8.1395374 c -0.017529,0.038164 -0.090754,0.096963 -0.05259,0.1144932 0.038164,0.017531 0.05259,-0.156491 0.05259,-0.1144932 0,0.1033989 -0.038018,0.2033392 -0.05259,0.3057062 -0.013113,0.092124 0.016827,0.1647087 0.031869,0.2549509 0.022336,0.1340244 -0.016836,0.2796201 0,0.4142952 0.026502,0.2120181 0.018317,0.054948 0.063738,0.1912131 0.010078,0.03023 -0.010078,0.06537 0,0.09561 0.00475,0.01425 0.027118,0.01762 0.031869,0.03187 0.071621,0.214863 -0.1528032,-0.178131 0.031869,0.191213 0.00475,0.0095 0.021246,0 0.031869,0 0.010623,0.01062 0.027118,0.01762 0.031869,0.03187 0.024773,0.07432 0.053701,0.216561 0.063738,0.28682 0.024828,0.1738062 -0.010861,0.3708482 0.031869,0.5417712 0.022106,0.08842 0.029061,-0.0028 0.063738,0.03187 0.045746,0.04575 -0.020026,0.290481 0,0.350557 0.00475,0.01425 0.025151,0.01843 0.031869,0.03187 0.021746,0.04349 0,0.373069 0,0.446164 0,0.03187 0.022535,0.07307 0,0.09561 -0.049709,0.04971 -0.1617485,0.01714 -0.1912133,0.03187 -0.04738,0.02369 -0.1014415,0.05216 -0.1593442,0.06374 -0.08766,0.01753 -0.5088962,0.02158 -0.5736395,0 -0.014253,-0.0048 -0.017616,-0.02712 -0.031869,-0.03187 -0.1132649,-0.03776 -0.2904939,0 -0.4142951,0 l -0.1179754,-0.007 0.1266307,0.007"
       id="path3"
       sodipodi:nodetypes="csssccsscsccsscscsccsccscc" />
    <path
       style="fill:none;fill-opacity:1;stroke:#ff6529;stroke-width:1;stroke-linecap:square;stroke-dasharray:none;stroke-opacity:1;paint-order:normal"
       d="M 4.5891153,8.1395374 C 4.3068631,8.0702851 4.3341644,8.4715831 4.3341644,8.7958012 c 0,0.042492 0.013438,0.087164 0,0.1274754 -0.033734,0.1012021 -0.059236,0.2410882 -0.031869,0.3505572 0.011523,0.04609 0.048715,0.08241 0.063738,0.127476 0.028507,0.08552 0,0.224995 0,0.318688 0,0.3758522 -0.010306,-0.124621 0.031869,0.254951 0.01256,0.1130432 -0.018759,0.2380112 0,0.3505572 0.00891,0.05343 0.01474,0.107958 0.031869,0.159345 0.00475,0.01425 0.027118,0.01762 0.031869,0.03187 0.013438,0.04031 -0.010306,0.08625 0,0.127475 0.028034,0.112134 0.031869,0.158891 0.031869,0.28682 0,0.08498 0,0.169967 0,0.25495 0,0.03564 0.036969,0.09051 0.031869,0.09561 -0.037085,0.03708 -0.260822,0.0608 -0.3186885,0.03187 -0.026874,-0.01344 -0.035233,-0.05424 -0.063738,-0.06374 -0.075839,-0.02528 -0.1760108,0.01579 -0.2549509,0 -0.3224633,-0.06449 0.1915258,0.008 -0.2230818,-0.09561 -0.068491,-0.01712 -0.1718625,0.0088 -0.2230821,-0.01456"
       id="path4" />
  </g>
</svg>
