<?xml version="1.0" encoding="UTF-8" standalone="no"?>
<!-- Created with Inkscape (http://www.inkscape.org/) -->

<svg
   width="50"
   height="50"
   viewBox="0 0 13.229166 13.229167"
   version="1.1"
   id="svg5"
   inkscape:version="1.2.2 (b0a8486541, 2022-12-01)"
   sodipodi:docname="lump.svg"
   xmlns:inkscape="http://www.inkscape.org/namespaces/inkscape"
   xmlns:sodipodi="http://sodipodi.sourceforge.net/DTD/sodipodi-0.dtd"
   xmlns="http://www.w3.org/2000/svg"
   xmlns:svg="http://www.w3.org/2000/svg">
  <sodipodi:namedview
     id="namedview7"
     pagecolor="#ffffff"
     bordercolor="#999999"
     borderopacity="1"
     inkscape:showpageshadow="0"
     inkscape:pageopacity="0"
     inkscape:pagecheckerboard="0"
     inkscape:deskcolor="#d1d1d1"
     inkscape:document-units="mm"
     showgrid="true"
     inkscape:zoom="7.1457576"
     inkscape:cx="21.201391"
     inkscape:cy="23.650396"
     inkscape:window-width="1366"
     inkscape:window-height="731"
     inkscape:window-x="0"
     inkscape:window-y="0"
     inkscape:window-maximized="1"
     inkscape:current-layer="layer1">
    <inkscape:grid
       type="xygrid"
       id="grid132" />
  </sodipodi:namedview>
  <defs
     id="defs2" />
  <g
     inkscape:label="Layer 1"
     inkscape:groupmode="layer"
     id="layer1">
    <path
       style="fill:#31ff33;fill-opacity:1;stroke:none;stroke-width:1;stroke-dasharray:none"
       d="M 9.9749129,10.794519 C 9.5414619,10.679865 9.1205299,10.496784 8.6745612,10.450558 8.42625,10.424819 8.183617,10.541532 7.9375,10.583333 7.3195868,10.68828 6.6780424,10.776579 6.0520345,10.684867 5.9059324,10.663462 5.7387953,10.555543 5.5870319,10.519693 5.395495,10.474448 5.1992665,10.45773 5.0070446,10.418593 4.1396595,10.24199 3.4019914,9.8923443 2.8012118,9.2275223 2.1090343,8.4615591 1.8748374,7.4494585 1.7675036,6.4511033 1.7253461,6.0589797 1.6322628,5.6257907 1.6805778,5.2352993 1.7060273,5.0296114 2.0381524,4.1738682 2.0679112,4.0829899 2.082585,4.0381774 2.1434214,3.7526693 2.1960579,3.6580514 2.2892415,3.4905474 2.5054365,3.078797 2.6860824,2.9826048 2.7424622,2.952583 2.8091409,2.9477388 2.8689012,2.9251846 3.1066005,2.8354745 3.3388176,2.7308948 3.5794943,2.6495097 4.1863198,2.4443105 4.7945152,2.2418019 5.4104324,2.0657616 c 0.5240247,-0.1497756 0.2240375,-0.012388 0.511575,0.017791 0.1309817,0.013748 0.2630085,0.017915 0.3947096,0.017645 0.5900608,-0.00122 1.8170565,-0.057153 2.4342117,0.013597 0.1219091,0.013975 0.484116,0.1964005 0.5976328,0.2797247 0.095912,0.070402 0.1577034,0.2071515 0.2493514,0.2868117 0.272031,0.2364489 0.6012051,0.3923043 0.8669441,0.6375522 0.36504,0.3368916 0.575428,0.8825378 0.696853,1.3630428 0.163148,0.6456175 0.338942,1.3545825 0.367373,2.0251833 0.03046,0.7184371 -0.102971,1.4473909 -0.188315,2.1575244 -0.03057,0.254396 -0.01036,0.50957 -0.03341,0.762517 -0.0088,0.09631 -0.103327,0.215287 -0.148685,0.299395 -0.259355,0.4809297 -0.157733,0.4052047 -0.544552,0.6536067 -0.07859,0.05047 -0.145894,0.09185 -0.240239,0.112092 -0.05068,0.01088 -0.102815,0.01475 -0.153024,0.02763 -0.08299,0.02127 -0.162764,0.09517 -0.2459441,0.07465 -0.109997,-0.02714 -0.178766,-0.139552 -0.272863,-0.202653 -0.02075,-0.01392 -0.0636,0.017 -0.07478,-0.0054 -0.0032,-0.0064 -0.006,-0.0252 0,-0.0214 0.117515,0.07393 0.231759,0.15294 0.347639,0.22941"
       id="path4029" />
  </g>
</svg>
