<?xml version="1.0" encoding="UTF-8" standalone="no"?>
<!-- Created with Inkscape (http://www.inkscape.org/) -->

<svg
   width="50"
   height="50"
   viewBox="0 0 13.229166 13.229167"
   version="1.1"
   id="svg5"
   inkscape:version="1.2.2 (b0a8486541, 2022-12-01)"
   sodipodi:docname="text:is.svg"
   xmlns:inkscape="http://www.inkscape.org/namespaces/inkscape"
   xmlns:sodipodi="http://sodipodi.sourceforge.net/DTD/sodipodi-0.dtd"
   xmlns="http://www.w3.org/2000/svg"
   xmlns:svg="http://www.w3.org/2000/svg">
  <sodipodi:namedview
     id="namedview7"
     pagecolor="#ffffff"
     bordercolor="#999999"
     borderopacity="1"
     inkscape:showpageshadow="0"
     inkscape:pageopacity="0"
     inkscape:pagecheckerboard="0"
     inkscape:deskcolor="#d1d1d1"
     inkscape:document-units="mm"
     showgrid="true"
     inkscape:zoom="7.1457576"
     inkscape:cx="21.341334"
     inkscape:cy="23.650396"
     inkscape:window-width="1366"
     inkscape:window-height="731"
     inkscape:window-x="0"
     inkscape:window-y="0"
     inkscape:window-maximized="1"
     inkscape:current-layer="layer1">
    <inkscape:grid
       type="xygrid"
       id="grid132" />
  </sodipodi:namedview>
  <defs
     id="defs2" />
  <g
     inkscape:label="Layer 1"
     inkscape:groupmode="layer"
     id="layer1">
    <path
       style="fill:none;stroke:#ffffff;stroke-width:1;stroke-opacity:1"
       d="M 2.6458333,5.2916666 C 2.5471371,5.5653513 2.3543035,5.8218196 2.3497447,6.1127208 2.3444697,6.4493359 2.6696506,7.303077 2.8015853,7.71311 c 0.1402308,0.4358163 0.1647783,1.2986715 0.1881706,1.5397874 0.029559,0.3046822 0.051017,0.6036876 0.075355,0.9075866 0.015055,0.187978 0.054113,0.330039 0.1042821,0.524736 0.017986,0.0698 0.096906,0.233526 0.096906,0.322103 0,0.250498 -0.4128127,-0.283883 -0.6204651,-0.42399"
       id="path8559" />
    <path
       style="fill:none;stroke:#ffffff;stroke-width:1;stroke-opacity:1"
       d="m 10.583333,2.6458333 c 0.0088,-0.037949 0.06501,-0.1087352 0.02639,-0.1138481 C 9.1878906,2.3437404 9.0811029,2.3907373 7.840533,2.5814504 7.4263839,2.6451177 7.0497297,2.8143491 6.6708675,2.9828132 6.5553769,3.034167 6.2934804,3.1010365 6.2318994,3.242723 c -0.06423,0.1477822 -0.00597,0.3616227 -0.022852,0.5185174 -0.0161,0.1496481 -0.058417,0.2859765 -0.106307,0.4282649 -0.05493,0.1632037 -0.3558018,0.7365389 -0.298238,0.8824201 0.02177,0.055169 0.1047901,0.055628 0.156206,0.08519 0.1030727,0.059262 0.2037302,0.1227217 0.3076393,0.1805048 0.4983561,0.2771333 0.9805738,0.4749165 1.529952,0.6066004 0.2896357,0.069425 0.5426721,0.2841578 0.7800181,0.4376664 0.1032423,0.066774 0.4451826,0.2913507 0.6070343,0.3887795 0.111382,0.067048 0.235938,0.1212556 0.3364217,0.2050928 0.2080879,0.1736157 0.5346862,0.71295 0.5561222,0.9681888 0.03043,0.3623304 0.0093,0.7142292 -0.06089,1.0650942 -0.0015,0.00756 -0.072702,0.030609 -0.080128,0.037316 C 9.846785,9.1277283 9.7612315,9.2139863 9.6732078,9.2975896 9.5279336,9.4355675 9.385026,9.5760957 9.2369869,9.7111017 8.8301689,10.082104 8.5313008,10.064784 7.9981858,10.173501 c -0.4406278,0.08986 -0.8797163,0.210603 -1.3357069,0.1685 -0.059502,-0.0055 -0.9983234,-0.186889 -1.0053598,-0.178914 -0.1228232,0.139201 -0.2436349,0.280164 -0.3654525,0.420246"
       id="path8561" />
    <path
       style="fill:none;stroke:#ffffff;stroke-width:1;stroke-opacity:1"
       d="M 2.6458333,3.96875 C 2.3710765,3.5019887 2.1395897,3.2303804 2.1395897,2.7589178 c 0,-0.040932 0,-0.081863 0,-0.1227952 0,-0.00892 -0.0089,-0.027305 0,-0.026758 0.1688664,0.01038 0.3374957,0.024312 0.5062436,0.036468"
       id="path8989" />
  </g>
</svg>
