<?xml version="1.0" encoding="UTF-8" standalone="no"?>
<!-- Created with Inkscape (http://www.inkscape.org/) -->

<svg
   width="50"
   height="50"
   viewBox="0 0 13.229166 13.229167"
   version="1.1"
   id="svg5"
   inkscape:version="1.4 (1:1.4+202410161351+e7c3feb100)"
   sodipodi:docname="text:moveup.svg"
   xmlns:inkscape="http://www.inkscape.org/namespaces/inkscape"
   xmlns:sodipodi="http://sodipodi.sourceforge.net/DTD/sodipodi-0.dtd"
   xmlns="http://www.w3.org/2000/svg"
   xmlns:svg="http://www.w3.org/2000/svg">
  <sodipodi:namedview
     id="namedview7"
     pagecolor="#ffffff"
     bordercolor="#999999"
     borderopacity="1"
     inkscape:showpageshadow="0"
     inkscape:pageopacity="0"
     inkscape:pagecheckerboard="0"
     inkscape:deskcolor="#d1d1d1"
     inkscape:document-units="mm"
     showgrid="true"
     inkscape:zoom="17.527006"
     inkscape:cx="28.441822"
     inkscape:cy="27.471891"
     inkscape:window-width="1854"
     inkscape:window-height="1011"
     inkscape:window-x="66"
     inkscape:window-y="32"
     inkscape:window-maximized="1"
     inkscape:current-layer="layer1">
    <inkscape:grid
       type="xygrid"
       id="grid132"
       originx="0"
       originy="0"
       spacingy="1"
       spacingx="1"
       units="mm" />
  </sodipodi:namedview>
  <defs
     id="defs2" />
  <g
     inkscape:label="Layer 1"
     inkscape:groupmode="layer"
     id="layer1">
    <rect
       style="fill:#0983b4;fill-opacity:1;stroke:none;stroke-width:0.6;stroke-opacity:1"
       id="rect4080"
       width="7.9375"
       height="7.9375005"
       x="5.291667"
       y="-10.583333"
       transform="rotate(90)" />
    <path
       style="fill:#0983b4;fill-opacity:1;stroke:none;stroke-width:1.41421;stroke-dasharray:none;stroke-opacity:1"
       d="M -4.9613953e-7,5.2916652 6.6145825,0 13.229167,5.2916652"
       id="path29368" />
    <path
       style="fill:#0983b4;fill-opacity:1;stroke:#000000;stroke-width:1.00012;stroke-linecap:square;stroke-opacity:1"
       d="m 3.3808898,6.4347808 c 0.013771,0.2760412 -0.034832,0.5597171 0.021349,0.8325962 0.0355,0.1724287 0.093566,0.33974 0.1280919,0.5123666 0.062242,0.3112104 0.046293,0.6265254 0.085394,0.9393391 0.013502,0.1080164 0.040922,0.2138569 0.064046,0.3202292 0.072228,0.3322492 0.167368,0.6549652 0.3202295,0.9606878 0.056447,0.1128963 0.061324,0.074507 0.085394,0.1707893 0.0088,0.0352 0.016849,0.07074 0.021349,0.106743 0.00265,0.02119 -0.00867,0.04454 0,0.06405 0.053817,0.121089 0.1863759,0.233875 0.3202291,0.256183 0.210094,0.03502 0.3397967,-0.207214 0.4483211,-0.341577 C 5.1430761,9.9246434 5.4844378,9.6029257 5.6224958,9.1887523 5.6384079,9.1410153 5.6339761,9.088654 5.6438451,9.0393119 5.6780589,8.868244 5.7189833,8.6985145 5.7505883,8.5269452 5.8297188,8.0973786 5.8593304,7.6587939 5.9000287,7.2246796 5.9113634,7.1037864 5.9404035,6.7558757 5.9427258,6.75501 c 0.053669,-0.020005 0.1145519,0 0.1718278,0"
       id="path1" />
    <path
       style="fill:#0983b4;fill-opacity:1;stroke:#000000;stroke-width:0.91841;stroke-linecap:square;stroke-opacity:1"
       d="M 7.6399467,11.583181 C 7.634217,11.501979 7.5637548,11.44755 7.5499332,11.369695 7.4940649,11.054999 7.5018385,10.725906 7.4599195,10.409007 7.3984198,9.9440794 7.3014221,9.4901427 7.2618897,9.0213469 7.2406914,8.7699803 7.2154865,8.5053144 7.2078816,8.2527966 c -0.010275,-0.3411255 0.010654,-0.6836243 0,-1.0247336 -0.00334,-0.1069068 -0.014664,-0.2133225 -0.018003,-0.3202292 -0.00305,-0.097374 -0.017852,-0.5878941 0,-0.6831558 0.013624,-0.072704 0.05555,-0.1162973 0.090014,-0.170789 0.00805,-0.012729 0.00554,-0.036787 0.018003,-0.042697 0.039814,-0.018886 0.3464472,-0.0036 0.3960597,0 0.352709,0.025609 0.8825536,0.00111 1.2241849,0.2348349 0.073876,0.050542 0.1321926,0.1278419 0.1980297,0.1921375 0.065837,0.064296 0.1456679,0.1123022 0.1980301,0.1921376 0.019839,0.03025 0.024004,0.071162 0.036005,0.1067429 0.032017,0.094921 0.1217355,0.354353 0.1440218,0.4483211 0.035073,0.1478801 0.055929,0.3001161 0.090013,0.4483209 0.045075,0.1959925 0.1482239,0.4084545 0.1260189,0.6191099 -0.011199,0.1062731 -0.089601,0.1833041 -0.1620245,0.2348349 -0.1085493,0.077234 -0.2129167,0.162951 -0.3240488,0.2348346 -0.024004,0.00712 -0.048007,0.014232 -0.072011,0.021349 0,0.00712 0.00424,0.016317 0,0.021349 -0.011044,0.013097 -0.3759012,-0.0088 -0.4860735,0.021349 -0.187631,0.051347 -0.373059,0.1322978 -0.5580841,0.1921375 -0.035216,0.01139 -0.072103,0.013605 -0.1080164,0.021349 -0.1198385,0.025839 -0.2385507,0.021349 -0.3600544,0.021349 -0.00824,0 -0.068578,-0.0064 -0.07201,0 -0.00507,0.00945 0,0.022386 0,0.033581"
       id="path2" />
  </g>
</svg>
