<?xml version="1.0" encoding="UTF-8" standalone="no"?>
<!-- Created with Inkscape (http://www.inkscape.org/) -->

<svg
   width="50"
   height="50"
   viewBox="0 0 13.229166 13.229167"
   version="1.1"
   id="svg5"
   inkscape:version="1.2.2 (b0a8486541, 2022-12-01)"
   sodipodi:docname="text:keke.svg"
   xmlns:inkscape="http://www.inkscape.org/namespaces/inkscape"
   xmlns:sodipodi="http://sodipodi.sourceforge.net/DTD/sodipodi-0.dtd"
   xmlns="http://www.w3.org/2000/svg"
   xmlns:svg="http://www.w3.org/2000/svg">
  <sodipodi:namedview
     id="namedview7"
     pagecolor="#ffffff"
     bordercolor="#999999"
     borderopacity="1"
     inkscape:showpageshadow="0"
     inkscape:pageopacity="0"
     inkscape:pagecheckerboard="0"
     inkscape:deskcolor="#d1d1d1"
     inkscape:document-units="mm"
     showgrid="true"
     inkscape:zoom="7.2280672"
     inkscape:cx="24.418699"
     inkscape:cy="25.179622"
     inkscape:window-width="1366"
     inkscape:window-height="731"
     inkscape:window-x="0"
     inkscape:window-y="0"
     inkscape:window-maximized="1"
     inkscape:current-layer="layer1">
    <inkscape:grid
       type="xygrid"
       id="grid132" />
  </sodipodi:namedview>
  <defs
     id="defs2" />
  <g
     inkscape:label="Layer 1"
     inkscape:groupmode="layer"
     id="layer1">
    <rect
       style="fill:#ff7a00;fill-opacity:1;stroke:none;stroke-width:1;stroke-opacity:1"
       id="rect4080"
       width="13.229166"
       height="13.229166"
       x="0"
       y="0" />
    <path
       style="fill:none;fill-opacity:1;stroke:#000000;stroke-width:0.941745;stroke-opacity:1"
       d="m 1.3229166,1.3229166 c 0.067672,0.9024894 0.2833701,3.7913304 0.3217632,4.2200371 0.02185,0.2439819 0.11231,0.4913542 0.1429544,0.7374384 0.010368,0.083256 0.011665,0.1658635 0.02588,0.2476345 0.00627,0.036058 0,0.1459367 0,0.1094527 0,-0.2486289 0.00262,-0.014405 -0.4905973,0.5517991"
       id="path6017" />
    <path
       style="fill:none;fill-opacity:1;stroke:#000000;stroke-width:0.941745;stroke-opacity:1"
       d="M 1.3229166,3.6694614 C 2.3047725,3.1368396 3.2840014,2.6003899 4.2684842,2.071596 4.3396738,2.0333581 4.4456781,1.889577 4.532826,1.8567512 4.638518,1.8169403 5.1038304,1.7660885 5.1130644,1.7458863 5.1768385,1.6063624 5.2321324,1.4639065 5.2916666,1.3229166"
       id="path6019" />
    <path
       style="fill:none;fill-opacity:1;stroke:#000000;stroke-width:0.941745;stroke-opacity:1"
       d="M 1.3229166,3.6694614 C 1.4617847,3.8551073 1.5641216,4.0669179 1.7395208,4.2263992 2.3334368,4.7664154 2.9722738,5.267138 3.6189756,5.757146 4.0484684,6.0825742 4.427207,6.2362694 4.8791777,6.4648806 4.9497647,6.5005838 5.4463918,6.6603947 5.4446863,6.666838 5.3983203,6.8420025 5.3426732,7.0151317 5.2916666,7.1892784"
       id="path6021" />
    <path
       style="fill:none;fill-opacity:1;stroke:#000000;stroke-width:0.941745;stroke-opacity:1"
       d="m 6.6145832,1.3229166 c 0.047154,0.4915912 0.1130666,0.9820499 0.1414616,1.4747736 0.034049,0.5908393 0.02951,1.1829326 0.045782,1.7743672 0.00468,0.1701877 -0.016767,0.3426418 0.014928,0.5105431 0.04096,0.2169792 0.1855719,0.5139515 0.2520006,0.7407468 0.066704,0.2277356 0.1172594,0.4405344 0.1707872,0.6674842 1.275e-4,5.397e-4 0.00629,0.1162665 0.014729,0.1237518 C 7.2849826,6.6418204 7.3118306,6.468498 7.4525278,6.4062705 7.7477182,6.2757137 8.0431668,6.1430348 8.3522459,6.04084 9.2941443,5.729408 9.17997,5.9743427 9.9450648,5.9506299 c 0.1997502,-0.00619 0.3749822,-0.0733 0.5706842,-0.091622 0.369068,-0.034553 0.70746,-0.1392013 1.072495,-0.18554 0.01313,-0.00167 0.353306,-0.060759 0.352522,-0.045546 -0.0067,0.129628 -0.02301,0.2587229 -0.03452,0.3880844"
       id="path6023" />
    <path
       style="fill:none;fill-opacity:1;stroke:#000000;stroke-width:0.941745;stroke-opacity:1"
       d="m 6.6145832,1.3229166 c 8.3868408,0.499314 1.4126403,0.00855 3.7039058,0.2543775 0.166566,0.017871 0.324301,-0.00404 0.49166,0.037073 0.401824,0.098695 0.396138,0.093458 1.001434,-0.010239 0.187957,-0.0322 0.367474,-0.09532 0.551774,-0.1412291 0.0491,-0.012231 0.200981,-0.010157 0.15128,-0.020302 C 12.312205,1.401274 12.109046,1.36281 11.90625,1.3229167"
       id="path6025" />
    <path
       style="fill:none;fill-opacity:1;stroke:#000000;stroke-width:0.941745;stroke-opacity:1"
       d="M 11.90625,3.6694614 C 11.310598,3.6497274 10.715664,3.6957548 10.120233,3.6869028 9.9012355,3.683648 9.7172726,3.6062275 9.5087434,3.5695061 9.3878997,3.5482254 9.2403439,3.5469279 9.1193965,3.5368467 c -0.2599652,-0.02167 -1.6378557,-0.059934 -1.8068006,0 -0.2330006,0.082659 -0.3712004,0.089309 -0.6980127,0.1326147"
       id="path6029" />
    <path
       style="fill:none;fill-opacity:1;stroke:#000000;stroke-width:1;stroke-opacity:1"
       d="m 1.3229166,7.9374999 c 0.065683,0.1978215 0.1845399,0.3853995 0.1970484,0.5934646 0.00905,0.1505808 -0.095512,0.286344 -0.1354099,0.4318246 -0.048256,0.1759548 0.070955,0.3531876 0.034889,0.4963121 -0.084646,0.3359134 -0.2694703,0.6481498 -0.3325907,0.9893358 -0.062502,0.337842 0.075979,0.667203 0.1529975,0.986619 0.046668,0.193545 0.058053,0.377394 0.058053,0.575098 0,0.06506 0,0.13012 0,0.19518 0,0.0264 -0.00177,0.105561 0,0.07921 0.00846,-0.126092 0.016675,-0.2522 0.025012,-0.378299"
       id="path6031" />
    <path
       style="fill:none;fill-opacity:1;stroke:#000000;stroke-width:1;stroke-opacity:1"
       d="m 5.2916666,7.9374999 c 0.023226,0.085862 0.049787,0.1708899 0.069678,0.2575854 0.00445,0.019377 -0.1368166,0.068083 -0.168869,0.073925 C 5.0238292,8.2997483 4.6869614,8.477478 4.537017,8.5568453 3.8287819,8.9317223 3.2261442,9.2988642 2.5111595,9.7588045 2.1057081,10.019626 1.7189976,10.30849 1.3229166,10.583333 c 0.3978445,0.160604 0.7853755,0.349597 1.1935335,0.481812 0.4007936,0.12983 0.7125604,0.08655 1.0854238,0.17988 0.2533422,0.06341 0.3877274,0.283897 0.6028384,0.404942 0.1708001,0.09611 0.3691021,0.122614 0.5457861,0.203044 0.044983,0.02048 0.5459455,0.258321 0.5487889,0.20576 0.00275,-0.05083 -0.00508,-0.101681 -0.00762,-0.152521"
       id="path6033" />
    <path
       style="fill:none;fill-opacity:1;stroke:#000000;stroke-width:1;stroke-opacity:1"
       d="m 6.6145832,7.9374999 c 0.1406531,1.1365703 0.2560958,2.2775221 0.2994703,3.4222011 0.00779,0.205666 0.027909,0.410841 0.00386,0.61585 -0.00681,0.05804 -0.016158,0.113489 -0.016158,0.171586 0,0.02288 0,0.09151 0,0.06863 0,-0.278328 0.335977,-0.201665 0.5196195,-0.178593 0.260132,0.03268 0.2650336,0.06136 0.4416906,0.06992 0.1820715,0.0088 0.3664662,-0.01325 0.548217,0 0.6243034,0.04551 1.2295981,0.146534 1.8461214,-0.04747 0.359167,-0.113021 0.859021,-0.114969 1.248859,-0.163864 0.105341,-0.01321 0.21109,-0.02043 0.316576,-0.02631 0.04743,-0.0026 0.17981,-0.03459 0.142416,-0.0053 -0.01902,0.0149 -0.03934,0.02806 -0.05901,0.04209"
       id="path6035" />
    <path
       style="fill:none;fill-opacity:1;stroke:#000000;stroke-width:1;stroke-opacity:1"
       d="m 11.90625,7.9374999 c -0.189619,0.0912 -0.358807,0.2612535 -0.568855,0.2735998 C 10.846914,8.2399298 10.360825,8.1011868 9.8714794,8.0571016 9.4941423,8.0231072 9.1392755,8.0130244 8.76761,7.9618712 8.4388208,7.9166192 8.1067464,7.9749945 7.7825641,8.0173509 7.3983944,8.0675455 6.9758128,7.9451363 6.6145832,7.9374999"
       id="path6037" />
    <path
       style="fill:none;fill-opacity:1;stroke:#000000;stroke-width:1;stroke-opacity:1"
       d="m 6.6145832,9.2604166 c 0.4015764,0.1690367 0.7733192,0.4460972 1.2047289,0.5071101 0.4477258,0.063321 0.8984335,-0.1040447 1.3486651,-0.1459909 0.2322177,-0.021635 0.4862939,-0.00191 0.7186589,-0.011009 0.2818319,-0.011052 0.5700999,-0.058521 0.8523529,-0.038321 0.122175,0.00874 0.233772,0.079072 0.358901,0.079072 0.176925,0 0.354221,0.021161 0.532774,0.021161 0.04047,0 0.105958,0.037405 0.121397,0 0.05595,-0.1355506 0.102792,-0.274682 0.154189,-0.4120229"
       id="path6039" />
  </g>
</svg>
