<?xml version="1.0" encoding="UTF-8" standalone="no"?>
<!-- Created with Inkscape (http://www.inkscape.org/) -->

<svg
   width="50"
   height="50"
   viewBox="0 0 13.229166 13.229167"
   version="1.1"
   id="svg5"
   inkscape:version="1.2.2 (b0a8486541, 2022-12-01)"
   sodipodi:docname="text:stop.svg"
   xmlns:inkscape="http://www.inkscape.org/namespaces/inkscape"
   xmlns:sodipodi="http://sodipodi.sourceforge.net/DTD/sodipodi-0.dtd"
   xmlns="http://www.w3.org/2000/svg"
   xmlns:svg="http://www.w3.org/2000/svg">
  <sodipodi:namedview
     id="namedview7"
     pagecolor="#ffffff"
     bordercolor="#999999"
     borderopacity="1"
     inkscape:showpageshadow="0"
     inkscape:pageopacity="0"
     inkscape:pagecheckerboard="0"
     inkscape:deskcolor="#d1d1d1"
     inkscape:document-units="mm"
     showgrid="true"
     inkscape:zoom="6.609479"
     inkscape:cx="5.6736696"
     inkscape:cy="25.41804"
     inkscape:window-width="1366"
     inkscape:window-height="731"
     inkscape:window-x="0"
     inkscape:window-y="0"
     inkscape:window-maximized="1"
     inkscape:current-layer="layer1">
    <inkscape:grid
       type="xygrid"
       id="grid132" />
  </sodipodi:namedview>
  <defs
     id="defs2" />
  <g
     inkscape:label="Layer 1"
     inkscape:groupmode="layer"
     id="layer1">
    <rect
       style="fill:#ffffff;stroke:#000000;stroke-width:0;stroke-dasharray:none"
       id="rect483"
       width="13.229166"
       height="13.229166"
       x="0"
       y="0" />
    <path
       style="fill:none;fill-opacity:1;stroke:#000000;stroke-width:1;stroke-dasharray:none;stroke-opacity:1"
       d="M 3.96875,3.96875 C 2.7291268,4.4504551 1.4909265,4.935838 0.24988032,5.4138652 c -0.16478571,0.063472 -0.32551165,0.051472 -0.48740736,0.091946 -0.0150955,0.00377 0.002294,0.1829109 0.0405,0.3288474 0.0680188,0.2598172 0.17421119,0.4872125 0.36262357,0.6858418 0.2902393,0.3059779 0.71970009,0.3812045 1.10038037,0.5032007 0.2784154,0.089224 0.5359689,0.2225879 0.8120329,0.3183708 0.1440948,0.049995 0.2942449,0.078104 0.4386197,0.1261912 0.6061369,0.201886 1.184514,0.6026131 1.4024886,1.2296989 0.016357,0.047053 0.3011183,0.8093913 0.2290828,0.9515154 C 4.0542307,9.834878 3.473814,9.8164207 3.3547761,9.8413442 3.0578636,9.9035101 2.7460908,10.037212 2.437975,10.05823 1.983304,10.089246 1.5500927,9.9578955 1.0814595,9.9717573 c -0.11227412,0.00704 -0.22454826,0.014073 -0.33682239,0.021111 -0.021527,0.00427 -0.0427535,0.010533 -0.0645811,0.012822 -0.0286671,0.003 -0.0657184,-0.020002 -0.086473,0 C 0.394791,10.197276 0.19786102,10.390785 0,10.583333"
       id="path9753" />
    <path
       style="fill:none;fill-opacity:1;stroke:#000000;stroke-width:1;stroke-dasharray:none;stroke-opacity:1"
       d="m 5.2916666,5.2916666 c -0.155866,1.1776109 -0.071207,2.3684433 0.2060133,3.515442 0.039637,0.1639982 0.091352,0.3260616 0.1387007,0.4880329 0.023164,0.079239 0.050156,0.1809692 0.046129,0.178888 C 5.5506204,9.4058509 5.4219477,9.331621 5.2916666,9.2604166"
       id="path9944" />
    <path
       style="fill:none;fill-opacity:1;stroke:#000000;stroke-width:1;stroke-dasharray:none;stroke-opacity:1"
       d="M 2.6458333,6.6145832 C 3.0521746,6.3404829 3.4167011,5.9907772 3.8648573,5.7922821 4.4508909,5.5327192 5.1008256,5.4510553 5.711595,5.2567128 5.9404482,5.1838931 6.154662,5.0704196 6.3814869,4.9915079 c 0.1043006,-0.036286 0.2216116,0.00539 0.331193,-0.00829 0.060958,-0.00761 1.1574769,-0.2184286 1.2159382,-0.1599671 0.110426,0.1104249 0.00782,0.3122501 0.00888,0.4684125"
       id="path9946" />
    <path
       style="fill:none;fill-opacity:1;stroke:#000000;stroke-width:1;stroke-dasharray:none;stroke-opacity:1"
       d="M 9.2604166,6.6145832 C 8.9687367,6.510979 8.6843229,6.3840351 8.385377,6.3037706 8.377212,6.3015746 8.3194103,6.40072 8.3104753,6.4133864 8.2325926,6.5237939 8.1173544,6.6163308 8.0809231,6.7495835 8.064601,6.8092798 8.0762109,6.8686526 8.05778,6.9284714 7.8798266,7.5060238 7.8122462,8.1058707 8.1745891,8.6488616 8.3914246,8.9738019 8.7116792,9.3051584 9.1148457,9.1500295 9.213071,9.1122348 9.3231561,9.0662603 9.3802069,8.9711415 9.508909,8.7565602 9.4759056,8.4684964 9.4759056,8.2318208 9.4759056,7.8233015 9.3452457,7.4280087 9.2988941,7.0229192 9.2383193,6.4935263 9.2676376,6.5301095 9.2127339,5.8803187 9.1749749,5.4334351 9.0442382,5.6269193 9.2604166,5.2916666"
       id="path9948" />
    <path
       style="fill:none;fill-opacity:1;stroke:#000000;stroke-width:1;stroke-dasharray:none;stroke-opacity:1"
       d="m 10.583333,2.6458333 c -0.08476,0.5288838 -0.197206,1.0540674 -0.254269,1.5866515 -0.03379,0.3153743 -0.08396,1.1996949 -0.02893,1.6573727 0.03068,0.2551475 0.112034,0.5015751 0.139639,0.7579286 0.03614,0.3355829 0.08576,0.6777095 0.110397,1.0139074 0.03049,0.4159276 0.03838,0.8422608 0.123533,1.2526854 0.05592,0.2695233 0.09016,0.5429945 0.133697,0.8148476 0.01202,0.075068 0.03676,0.1346348 0.0577,0.20766 0.0069,0.024122 -0.01931,0.07506 0.0058,0.07506 0.0077,0 4.76e-4,-0.015444 0,-0.023145 C 10.8622,9.8490761 10.8661,9.9296515 10.80788,9.7182801 10.764379,9.5602699 10.71688,9.4031997 10.680586,9.2433824 10.566464,8.7408566 10.464708,8.226703 10.397712,7.7153285 10.34286,7.2966568 10.293739,6.863634 10.333443,6.4410637 c 0.03709,-0.3947115 0.128805,-0.7811156 0.162938,-1.1768455 0.03509,-0.4067704 0.01827,-0.8323262 0.0031,-1.2393938 -0.01172,-0.3150952 0.0064,-0.6351315 -0.03049,-0.9487008 -0.01971,-0.1676101 -0.171916,-0.3608345 -0.115245,-0.5355694 0.02597,-0.080078 0.149449,0.1311405 0.229562,0.1052791 0.114768,-0.037048 0.144637,-0.1969186 0.240019,-0.2707193 0.186753,-0.1444981 1.504213,0.4291809 1.662846,0.7469828 0.09617,0.1926645 -0.0027,0.7959362 -0.043,0.9882624 -0.06677,0.3183673 -0.249981,1.1588154 -0.520558,1.3615196 -0.04281,0.032072 -0.110647,0.015539 -0.161531,0.028772 -0.171612,0.044626 -0.332298,0.1160804 -0.506954,0.1529305 -0.110059,0.023223 -0.221868,0.020807 -0.331506,0.040656 C 10.818598,5.7130703 10.365033,5.830848 10.287916,5.8154244 10.09137,5.7761154 10.484014,5.465781 10.58331,5.2916661"
       id="path9950" />
  </g>
</svg>
