<?xml version="1.0" encoding="UTF-8" standalone="no"?>
<!-- Created with Inkscape (http://www.inkscape.org/) -->

<svg
   width="50"
   height="50"
   viewBox="0 0 13.229166 13.229167"
   version="1.1"
   id="svg5"
   inkscape:version="1.2.2 (b0a8486541, 2022-12-01)"
   sodipodi:docname="text:moveright.svg"
   xmlns:inkscape="http://www.inkscape.org/namespaces/inkscape"
   xmlns:sodipodi="http://sodipodi.sourceforge.net/DTD/sodipodi-0.dtd"
   xmlns="http://www.w3.org/2000/svg"
   xmlns:svg="http://www.w3.org/2000/svg">
  <sodipodi:namedview
     id="namedview7"
     pagecolor="#ffffff"
     bordercolor="#999999"
     borderopacity="1"
     inkscape:showpageshadow="0"
     inkscape:pageopacity="0"
     inkscape:pagecheckerboard="0"
     inkscape:deskcolor="#d1d1d1"
     inkscape:document-units="mm"
     showgrid="true"
     inkscape:zoom="14.630917"
     inkscape:cx="13.635509"
     inkscape:cy="23.990293"
     inkscape:window-width="1366"
     inkscape:window-height="731"
     inkscape:window-x="0"
     inkscape:window-y="0"
     inkscape:window-maximized="1"
     inkscape:current-layer="layer1">
    <inkscape:grid
       type="xygrid"
       id="grid132" />
  </sodipodi:namedview>
  <defs
     id="defs2" />
  <g
     inkscape:label="Layer 1"
     inkscape:groupmode="layer"
     id="layer1">
    <rect
       style="fill:#007a00;fill-opacity:1;stroke:none;stroke-width:0.6;stroke-opacity:1"
       id="rect4080"
       width="7.9375"
       height="7.9375005"
       x="0"
       y="2.6458333" />
    <path
       style="fill:#007a00;fill-opacity:1;stroke:none;stroke-width:1.41421;stroke-dasharray:none;stroke-opacity:1"
       d="M 7.9375,0 13.229167,6.6145832 7.9375,13.229167"
       id="path29368" />
    <path
       style="fill:none;stroke:#000000;stroke-width:0.883006;stroke-linecap:square;stroke-opacity:1"
       d="M 0.72313519,6.0458316 C 0.68932568,5.7329882 0.66533982,5.4191827 0.62170649,5.1073014 0.59371989,4.9784387 0.5657333,4.8495758 0.53774661,4.7207131 c -0.003259,-0.00796 -0.007165,-0.015731 -0.009792,-0.023875 -0.0208537,-0.064748 0.006135,-0.134736 0.0153492,-0.2015857 C 0.57497859,4.2653405 0.61892447,4.0532392 0.68972131,3.8325129 0.72547671,3.7210365 0.8502052,3.4169054 0.96720569,3.3491306 1.3447569,3.1304264 1.7043256,3.1866928 2.1105555,3.2966759 2.269535,3.3397181 2.4304688,3.3821196 2.55768,3.483972 2.6651686,3.5700333 2.7664527,3.6995854 2.8402589,3.8047566 2.966081,3.9840487 3.0227197,4.0916087 2.9534402,4.2837727"
       id="path991" />
    <path
       style="fill:none;stroke:#000000;stroke-width:0.883006;stroke-linecap:square;stroke-opacity:1"
       d="m 3.9409457,3.3491306 c 0.1147522,0.1321339 0.116081,0.234138 0.1326395,0.3807862 0.00297,0.026328 0.00483,0.053828 0.00483,0.08027 0,0.00796 -0.00895,0.023875 0,0.023875 0.040377,0 0.073259,-0.03022 0.1103423,-0.044416"
       id="path995" />
    <path
       style="fill:none;stroke:#000000;stroke-width:0.883006;stroke-linecap:square;stroke-opacity:1"
       d="m 4.1887573,4.8909321 c -0.014638,0.079892 -0.042925,0.1587364 -0.043916,0.2396762 -7.93e-4,0.063805 0.03705,0.2951057 0.045586,0.4135211 0.013345,0.1851296 0.00245,0.374254 0.00245,0.5600649 0,0.00723 2.974e-4,-0.014471 0,-0.0217 -0.00128,-0.030094 -0.00275,-0.060183 -0.00412,-0.090275"
       id="path999" />
    <path
       style="fill:none;stroke:#000000;stroke-width:0.883006;stroke-linecap:square;stroke-opacity:1"
       d="M 7.6581206,3.7896453 C 7.3100967,3.7076701 6.7913644,3.4217954 6.4133468,3.6016601 6.3360224,3.6384519 6.2682876,3.7072653 6.205465,3.7590238 5.9414406,3.97655 6.1194575,3.8247853 5.9035006,4.0260603 5.6827827,4.2317724 5.4720079,4.4886514 5.4055634,4.7730094 c -0.062828,0.2688812 0.044454,0.534955 0.069669,0.8018148 0.026025,0.2754301 0.075564,0.5620878 0.2983256,0.7749406 0.090357,0.086338 0.2057815,0.058333 0.3292232,0.062746 0.4639017,0.016583 0.6093315,0.091265 1.0327925,-0.1746527 C 7.2859725,6.1434129 7.30964,6.0897082 7.3405446,5.924365 7.376028,5.7345238 7.3610237,5.7362075 7.2607529,5.5771175 7.2023214,5.4844103 7.1557452,5.3850102 7.0892603,5.2964383 7.03225,5.2204885 6.9260699,5.1534157 6.8281841,5.1296068 c -0.044157,-0.01074 -0.090381,-0.00682 -0.1356326,-0.00682 -0.014044,0 -0.052314,0.014473 -0.041484,0.00653 0.00663,-0.00487 0.010538,-0.012083 0.015806,-0.018124"
       id="path1003" />
    <path
       style="fill:none;stroke:#000000;stroke-width:0.966215;stroke-linecap:square;stroke-opacity:1"
       d="m 2.9467869,9.9972854 c 0.00356,-0.01192 0.011908,-0.023496 0.010656,-0.035769 C 2.9176598,9.5708848 2.8929271,9.1782818 2.8239126,8.7908094 2.8032532,8.6748204 2.7393897,8.545399 2.6158985,8.4897037 2.5054841,8.4399059 2.370351,8.4371809 2.2488703,8.4372371 2.0320389,8.4373378 1.8397343,8.4509548 1.6749929,8.5767211 1.6184763,8.6198671 1.4915267,8.6974468 1.4507424,8.777117 c -0.010595,0.020699 -0.00848,0.045836 -0.018784,0.066095 -0.010997,0.021622 -0.026745,0.04112 -0.040118,0.06168 -0.026648,0.056199 -0.052929,0.1125331 -0.079944,0.1685962 -0.071012,0.147368 -0.1238086,0.2280219 -0.1352056,0.3679686 -0.010492,0.1288276 -0.06086,0.2579613 -0.094287,0.3835167 -0.00297,0.011159 -0.03162,0.1369239 -0.026866,0.1369239 0.00731,0 0.021381,-0.1036813 0.021551,-0.1091558 0.00577,-0.1858202 0.011685,-0.3679542 0.029415,-0.5540318 C 1.124644,9.1083217 1.1668795,8.9273852 1.1917623,8.739111 1.2158733,8.5566748 1.1540692,8.3655988 1.149606,8.1828395 1.145616,8.0194641 1.1824676,7.8642318 1.1943833,7.7017483 c 0.00796,-0.1085308 -0.00524,-0.2145597 -0.00524,-0.322604 0,-0.063141 0.00623,-0.1287898 0,-0.1916303 C 1.1812563,7.108012 1.129056,7.153169 1.3105529,7.121477"
       id="path1005" />
    <path
       style="fill:none;stroke:#000000;stroke-width:0.834365;stroke-linecap:square;stroke-opacity:1"
       d="m 5.7678653,7.7494245 c 0.017657,0.1508863 0.052886,0.3007634 0.052968,0.4526588 2.44e-4,0.4434171 -0.037533,0.8860689 -0.052009,1.3292543 -0.00405,0.1238774 0,0.2557186 0,0.3816636 0,0.06188 0,0.1237418 0,0.1856128 0,0.01493 0.00111,0.08589 -9.56e-4,0.06704"
       id="path1007" />
    <path
       style="fill:none;stroke:#000000;stroke-width:0.834365;stroke-linecap:square;stroke-opacity:1"
       d="m 3.9929317,7.7494245 c 0.082639,-0.0116 0.1646934,-0.028523 0.2479178,-0.034801 0.9036921,-0.068173 1.8140055,-0.1226271 2.7211514,-0.1226271 0.049841,0 0.2106489,0.00553 0.2407323,0.020349 0.028601,0.014093 0.05348,0.032223 0.083048,0.045391 0.020405,0.00909 0.040412,0.01993 0.06119,0.02815 0.012638,0.005 0.049742,0.00218 0.039332,0.010849 -0.02149,0.017923 -0.043581,0.035127 -0.065371,0.052689"
       id="path1009" />
  </g>
</svg>
