<?xml version="1.0" encoding="UTF-8" standalone="no"?>
<!-- Created with Inkscape (http://www.inkscape.org/) -->

<svg
   width="50"
   height="50"
   viewBox="0 0 13.229166 13.229167"
   version="1.1"
   id="svg5"
   inkscape:version="1.2.2 (b0a8486541, 2022-12-01)"
   sodipodi:docname="text:moveleft.svg"
   xmlns:inkscape="http://www.inkscape.org/namespaces/inkscape"
   xmlns:sodipodi="http://sodipodi.sourceforge.net/DTD/sodipodi-0.dtd"
   xmlns="http://www.w3.org/2000/svg"
   xmlns:svg="http://www.w3.org/2000/svg">
  <sodipodi:namedview
     id="namedview7"
     pagecolor="#ffffff"
     bordercolor="#999999"
     borderopacity="1"
     inkscape:showpageshadow="0"
     inkscape:pageopacity="0"
     inkscape:pagecheckerboard="0"
     inkscape:deskcolor="#d1d1d1"
     inkscape:document-units="mm"
     showgrid="true"
     inkscape:zoom="12.393465"
     inkscape:cx="19.647452"
     inkscape:cy="20.978799"
     inkscape:window-width="1366"
     inkscape:window-height="731"
     inkscape:window-x="0"
     inkscape:window-y="0"
     inkscape:window-maximized="1"
     inkscape:current-layer="layer1">
    <inkscape:grid
       type="xygrid"
       id="grid132" />
  </sodipodi:namedview>
  <defs
     id="defs2" />
  <g
     inkscape:label="Layer 1"
     inkscape:groupmode="layer"
     id="layer1">
    <rect
       style="fill:#d5d912;fill-opacity:1;stroke:none;stroke-width:0.6;stroke-opacity:1"
       id="rect4080"
       width="7.9375"
       height="7.9375005"
       x="5.2916665"
       y="2.645833" />
    <path
       style="fill:#d5d912;fill-opacity:1;stroke:none;stroke-width:1.41421;stroke-dasharray:none;stroke-opacity:1"
       d="M 5.2916647,13.229167 -5e-7,6.614584 5.2916647,0"
       id="path29368" />
    <path
       style="fill:none;stroke:#000000;stroke-width:0.899945;stroke-linecap:square"
       d="m 5.6260296,3.4396839 c 0.021336,0.029813 0.048534,0.05604 0.064011,0.089439 0.013547,0.029234 0.025619,0.177762 0.028216,0.1967312 0.035212,0.2572419 0.070243,0.5146773 0.1025767,0.7720626 0.031682,0.2521894 0.054276,0.493492 0.054276,0.7473579 0,0.2498831 0.024004,0.5000704 0.024004,0.7489649 0,0.021024 -0.011449,0.1405085 0.010875,0.1555572 0.019664,0.013256 0.055715,-0.025186 0.068678,-0.029625 0.094194,-0.032256 0.2366404,-0.00743 0.3318314,-0.00743 0.3315471,0 0.6708243,0.017709 1.0026464,0 0.1524804,-0.00814 0.2925357,-0.044494 0.4295528,-0.021264"
       id="path2606" />
    <path
       style="fill:none;stroke:#000000;stroke-width:0.9238;stroke-linecap:square"
       d="m 12.570052,6.3738672 c -0.412768,-0.1388826 -0.84048,-0.1894565 -1.274064,-0.1894565 -0.656299,0 -1.3110772,0.087685 -1.9694941,0.087685 -0.013492,0 0.035896,-0.00169 0.037564,-0.015071 0.00463,-0.037137 0.00473,-0.075142 0.00377,-0.112433 -0.0023,-0.089262 0.00147,-0.1790137 -0.00855,-0.2677409 C 9.3390683,5.6980942 9.2584666,5.4542561 9.2927984,5.2580622 9.3242411,5.0783773 9.3829124,4.9100563 9.387369,4.7256355 9.3952499,4.3994623 9.4213526,4.0347772 9.3635478,3.7135359 9.3308689,3.5319262 9.3359603,3.3540723 9.3359603,3.169703 c 0,-0.028787 -0.028775,-0.086361 0,-0.086361 0.00671,0 0.034638,0.037093 0.04133,0.041348 0.042133,0.026786 0.098501,0.045126 0.1477097,0.05031 0.2941286,0.030985 0.592754,-0.011082 0.887479,0.015072 0.156867,0.01392 0.305248,0.067705 0.45677,0.1045911 0.151117,0.036788 0.309358,0.039666 0.463895,0.043589 0.204346,0.00518 0.402241,3.177e-4 0.606005,0.021589 0.04876,0.00509 0.09726,0.00825 0.146285,0.00825 0.01626,0 0.05792,-0.013436 0.04876,0 -0.01678,0.024633 -0.03525,0.048065 -0.05289,0.072097"
       id="path2610" />
    <path
       style="fill:none;stroke:#000000;stroke-width:0.9238;stroke-linecap:square"
       d="m 12.570052,4.9070261 c -0.141711,0.013121 -0.28453,0.00593 -0.42588,0.023819 -0.222916,0.028205 -0.443537,0.075375 -0.668102,0.092268 -0.460665,0.034655 -1.023667,0.02833 -1.4860542,0.016805 -0.2012616,-0.00502 -0.3958637,-0.09451 -0.5950117,-0.09451 -0.012802,0 6.01e-5,-0.025707 -0.00176,-0.038383"
       id="path2612" />
    <path
       style="fill:none;stroke:#000000;stroke-width:0.947907;stroke-linecap:square"
       d="M 8.0569963,7.4358994 C 7.9736746,7.408863 7.892691,7.3730026 7.8070312,7.3547903 7.7148186,7.3351836 7.6186175,7.3486872 7.5244684,7.3442488 7.3212009,7.3346681 7.1287022,7.324622 6.9258361,7.3432179 c -0.077612,0.00711 -0.1542886,0.00712 -0.232184,0.012759 -0.1751994,0.012681 -0.2784366,0.024052 -0.4512015,0.034397 -0.085327,0.00511 -0.1706924,-0.00747 -0.2559937,0 -0.031686,0.00278 -0.1448201,0.017876 -0.1745517,0.00293 -0.012925,-0.00649 -0.027696,-2.482e-4 -0.040682,-0.00586 -0.00798,-0.00345 -0.017154,-0.017783 -0.023338,-0.01165 -0.015919,0.015786 0.016189,0.4007069 0.01774,0.4232389 0.011546,0.1677973 0.031481,0.3366437 0.04147,0.5045578 0.00991,0.1666468 0.00507,0.3322745 0.02184,0.4986925 0.010953,0.1086936 0.032185,0.2165669 0.035951,0.3257511 0.00857,0.2483724 -0.00829,0.1928862 0.0052,0.4024732 0.00721,0.1119649 0.015306,0.2330753 0.030985,0.3446941 0.00861,0.06134 0.043598,0.1154215 0.043598,0.1784105 0,0.004 -6.94e-5,-0.009 0.00292,-0.01173 0.035103,-0.0316 0.072203,-0.060884 0.1083045,-0.091335"
       id="path2622" />
    <path
       style="fill:none;stroke:#000000;stroke-width:0.947907;stroke-linecap:square"
       d="m 6.0558929,8.9446873 c 0.1203354,0.043502 0.1095039,0.060033 0.1829311,0.057723 0.087873,-0.00277 0.1735893,-0.00478 0.2605662,-0.019893 0.1225666,-0.021291 0.2567311,-0.067853 0.3829262,-0.049694 0.088764,0.012772 0.170425,0.053601 0.2614336,0.06301 0.1542248,0.015945 0.5528038,0.025601 0.6631084,-0.051145"
       id="path2624" />
    <path
       style="fill:none;stroke:#000000;stroke-width:1;stroke-linecap:square"
       d="m 8.9958332,7.6729166 c 0.1568146,-0.028828 0.3119628,-0.069003 0.4704437,-0.086485 0.1038892,-0.011459 0.2090465,0.00127 0.313558,0 0.5174381,-0.00631 0.058337,-0.00361 0.4343111,-0.016179 0.165913,-0.00555 0.333171,0.00958 0.498857,0 0.436111,-0.025223 0.829928,-0.0645 1.266907,-0.058292 0.06052,8.467e-4 0.637351,0.014883 0.673566,0.075638 0.01659,0.027826 0.03102,0.05688 0.04652,0.085319"
       id="path2626" />
    <path
       style="fill:none;stroke:#000000;stroke-width:1;stroke-linecap:square"
       d="m 10.847917,7.6729166 c -0.01312,0.2227405 -0.02743,0.4454138 -0.03935,0.6682216 -0.02503,0.4680569 -0.01909,0.7248903 0.02193,1.1539095 0.01865,0.1950098 -0.03224,0.3877802 0.01741,0.5591193"
       id="path2628" />
  </g>
</svg>
