<?xml version="1.0" encoding="UTF-8" standalone="no"?>
<!-- Created with Inkscape (http://www.inkscape.org/) -->

<svg
   width="50"
   height="50"
   viewBox="0 0 13.229166 13.229167"
   version="1.1"
   id="svg5"
   inkscape:version="1.2.2 (b0a8486541, 2022-12-01)"
   sodipodi:docname="text:flag.svg"
   xmlns:inkscape="http://www.inkscape.org/namespaces/inkscape"
   xmlns:sodipodi="http://sodipodi.sourceforge.net/DTD/sodipodi-0.dtd"
   xmlns="http://www.w3.org/2000/svg"
   xmlns:svg="http://www.w3.org/2000/svg">
  <sodipodi:namedview
     id="namedview7"
     pagecolor="#ffffff"
     bordercolor="#999999"
     borderopacity="1"
     inkscape:showpageshadow="0"
     inkscape:pageopacity="0"
     inkscape:pagecheckerboard="0"
     inkscape:deskcolor="#d1d1d1"
     inkscape:document-units="mm"
     showgrid="true"
     inkscape:zoom="6.609479"
     inkscape:cx="5.6736696"
     inkscape:cy="25.41804"
     inkscape:window-width="1366"
     inkscape:window-height="731"
     inkscape:window-x="0"
     inkscape:window-y="0"
     inkscape:window-maximized="1"
     inkscape:current-layer="layer1">
    <inkscape:grid
       type="xygrid"
       id="grid132" />
  </sodipodi:namedview>
  <defs
     id="defs2" />
  <g
     inkscape:label="Layer 1"
     inkscape:groupmode="layer"
     id="layer1">
    <rect
       style="fill:#ffffff;stroke:#000000;stroke-width:0;stroke-dasharray:none"
       id="rect483"
       width="13.229166"
       height="13.229166"
       x="0"
       y="0" />
    <path
       style="fill:none;fill-opacity:1;stroke:#000000;stroke-width:1;stroke-dasharray:none;stroke-opacity:1"
       d="M 1.3229166,10.583333 C 1.4049001,10.271423 1.5012436,9.9629369 1.5688669,9.6476009 1.5972268,9.5153553 1.6996503,8.6152171 1.6625329,8.4948365 1.543488,8.1087448 1.4805231,7.5765006 1.5238321,7.1878903 1.5309063,7.1244134 1.5677199,7.0661175 1.5931043,7.0090024 1.6799185,6.8136706 1.6656859,6.5876913 1.7041275,6.3774213 1.7450913,6.153355 1.7452368,5.7973621 2.0440773,5.7342687 c 0.2127541,-0.044918 0.9223649,0.171758 1.0784886,0.2484729 0.1012402,0.049747 0.1681464,0.1138211 0.2381525,0.2007801 0.1077328,0.133822 0.1844966,0.2998719 0.2564479,0.4558205 0.031294,0.067827 0.00437,0.1473853 0.01157,0.1441735 C 3.7443079,6.7319421 3.8554125,6.670894 3.96875,6.6145832"
       id="path17307" />
    <path
       style="fill:none;fill-opacity:1;stroke:#000000;stroke-width:1;stroke-dasharray:none;stroke-opacity:1"
       d="M 2.6458333,7.9374999 C 2.3396456,8.1461088 2.0598252,8.3999992 1.7272704,8.5633268 c -0.00705,0.00346 -0.82514626,-0.00594 -0.96386881,-0.00594 -0.16853447,0 -0.33551722,-0.017357 -0.50335717,-0.017357 -0.002814,0 -0.039679,0.00177 -0.0403436,0 C 0.14481844,8.3397938 0.07323359,8.1383425 0,7.9374999"
       id="path17309" />
    <path
       style="fill:none;fill-opacity:1;stroke:#000000;stroke-width:1;stroke-dasharray:none;stroke-opacity:1"
       d="M 5.2916666,10.583333 C 5.1433473,9.9091116 4.9439062,9.2441346 4.8467089,8.5606685 4.7038048,7.5558072 4.8425417,6.570174 4.9505388,5.5788364 c 0.02635,-0.2418782 0.033916,-0.6801927 0,-0.9199288 -0.00797,-0.056357 -0.028772,-0.1039537 -0.028772,-0.161531 0,-0.097925 -0.03534,-0.1884693 -0.03534,-0.2861583 0,-0.016428 -0.03222,-0.039128 -0.017357,-0.046129 0.1405171,-0.066191 0.281731,-0.1308928 0.4225965,-0.196339"
       id="path17311" />
    <path
       style="fill:none;fill-opacity:1;stroke:#000000;stroke-width:1;stroke-dasharray:none;stroke-opacity:1"
       d="M 7.9374999,6.6145832 C 7.368501,6.6305509 5.4039568,6.7854787 5.6044811,7.518927 5.6303362,7.6134938 5.8925806,7.9217339 5.9359868,7.9860062 6.1827499,8.3513918 6.3995241,8.77581 6.8706142,8.5533189 7.0042261,8.4902155 7.1633092,8.4382874 7.2765525,8.3392475 7.3153917,8.3052797 7.3892975,8.1263195 7.3997726,8.1067245 7.651008,7.6367459 7.571624,7.4145499 7.571624,6.8943825 c 0,-0.044786 0.0047,-0.2262322 0.069272,-0.2423745 0.062478,-0.015618 0.1702056,0.3310493 0.1718513,0.335728 0.1605833,0.4565501 0.2590276,0.9324112 0.3709112,1.4021757 0.073502,0.3086116 0.2231411,0.6116455 0.2231411,0.9330637 0,0.1578171 -0.3122149,-0.047377 -0.4692999,-0.062559"
       id="path17313" />
    <path
       style="fill:none;fill-opacity:1;stroke:#000000;stroke-width:1;stroke-dasharray:none;stroke-opacity:1"
       d="m 11.90625,6.6145832 c 0.0043,-0.1780365 0.190508,-0.522619 0.01279,-0.5341098 -1.075409,-0.069534 -2.1516178,0.1608262 -3.2163884,0.326971 -0.050979,0.00796 0.058494,0.3120133 0.057701,0.3635618 -0.00597,0.3882361 -0.13315,0.7673856 -0.087724,1.1582374 0.013922,0.1197837 0.1095135,0.1922274 0.2010926,0.256917 0.4858541,0.3431977 1.4740128,0.2885675 1.9358688,-0.085066 0.292315,-0.2364769 0.49523,-0.6075648 0.692253,-0.9263398 0.02345,-0.037946 0.325906,-0.6658538 0.404407,-0.5601719 0.0616,0.082928 -0.04078,0.2026069 -0.05679,0.3046625 -0.110978,0.7074587 0.02432,-0.018849 -0.101328,0.7127374 -0.07571,0.4408525 -0.232558,1.3385107 -0.447376,1.767145 -0.206868,0.4127706 -0.487356,0.8048362 -0.737288,1.1891992 -0.287419,0.442013 -0.5980979,0.84521 -1.017504,1.172936 -0.4647856,0.363186 -1.0761527,0.05135 -1.60846,0.144987"
       id="path17315" />
  </g>
</svg>
