<?xml version="1.0" encoding="UTF-8" standalone="no"?>
<!-- Created with Inkscape (http://www.inkscape.org/) -->

<svg
   width="50"
   height="50"
   viewBox="0 0 13.229166 13.229167"
   version="1.1"
   id="svg5"
   inkscape:version="1.2.2 (b0a8486541, 2022-12-01)"
   sodipodi:docname="text:win.svg"
   xmlns:inkscape="http://www.inkscape.org/namespaces/inkscape"
   xmlns:sodipodi="http://sodipodi.sourceforge.net/DTD/sodipodi-0.dtd"
   xmlns="http://www.w3.org/2000/svg"
   xmlns:svg="http://www.w3.org/2000/svg">
  <sodipodi:namedview
     id="namedview7"
     pagecolor="#ffffff"
     bordercolor="#999999"
     borderopacity="1"
     inkscape:showpageshadow="0"
     inkscape:pageopacity="0"
     inkscape:pagecheckerboard="0"
     inkscape:deskcolor="#d1d1d1"
     inkscape:document-units="mm"
     showgrid="true"
     inkscape:zoom="6.609479"
     inkscape:cx="5.6736696"
     inkscape:cy="25.41804"
     inkscape:window-width="1366"
     inkscape:window-height="731"
     inkscape:window-x="0"
     inkscape:window-y="0"
     inkscape:window-maximized="1"
     inkscape:current-layer="layer1">
    <inkscape:grid
       type="xygrid"
       id="grid132" />
  </sodipodi:namedview>
  <defs
     id="defs2" />
  <g
     inkscape:label="Layer 1"
     inkscape:groupmode="layer"
     id="layer1">
    <path
       style="fill:none;stroke:#ffb200;stroke-width:1;stroke-opacity:1"
       d="m 1.3229166,3.96875 c -1.08612393,0.6743297 -0.44274335,0.087678 0.3755816,2.4720015 0.1592879,0.4641114 0.2902205,0.9358521 0.4064073,1.4117142 0.1003617,0.4110474 0.1599968,0.8277487 0.2408108,1.2431469 0.025941,0.133341 0.07764,0.3791908 0.095699,0.4833416 0.034393,0.1983529 0.045689,0.4231268 0.1035174,0.6209478 0.015159,0.05186 0.044673,0.103752 0.057701,0.155745 0.00421,0.01679 -0.017305,0.05192 0,0.05192 0.016242,0 0.022218,-0.04009 0.028772,-0.05192 C 2.758789,10.125803 2.7131084,10.14094 2.7702626,9.9088963 2.9120438,9.3332722 3.0740469,8.7627342 3.2374982,8.1928847 3.304545,7.9591354 3.4166876,7.7454918 3.50067,7.5187709 3.5425951,7.4055895 3.6577912,7.0204488 3.718338,6.9599021 c 6.879e-4,-6.88e-4 0.017357,0.15339 0.017357,0.1615307 0,0.1277628 0.013655,0.2300777 0.039093,0.3594963 0.2161698,1.0997586 0.5169185,2.1983022 0.9519845,3.2312439 0.016129,0.0383 0.1981756,0.538462 0.3415136,0.300857 0.032721,-0.05424 0.018568,-0.143441 0.028772,-0.201875 0.043399,-0.248533 0.087258,-0.497042 0.1372936,-0.744324 C 5.3195362,9.6458306 5.4158729,9.227151 5.5026832,8.8064831 5.6355884,8.1624476 5.7129785,7.5029866 5.8596775,6.8618575 5.9909646,6.2880845 6.1872632,5.7316203 6.3436446,5.1646102 6.4208474,4.8846877 6.412604,4.6165023 6.412604,4.3295911 c 0,-0.032183 -0.017201,-0.1561304 0,-0.1731023 C 6.4780315,4.0919262 6.5472571,4.0313295 6.6145832,3.96875"
       id="path24517" />
    <path
       style="fill:none;stroke:#ffb200;stroke-width:1;stroke-opacity:1"
       d="m 7.9374999,7.9374999 c 0.05276,0.1323523 0.1480304,0.2549451 0.1582785,0.3970565 0.013589,0.1884204 -0.058765,0.3732234 -0.089288,0.5596506 -0.084989,0.5190908 -0.1925574,1.0661002 -0.1645018,1.597639 0.00799,0.151313 0.0171,0.304718 0.028772,0.455821 0.00413,0.05342 0.013235,0.10582 0.034714,0.155745 0.00341,0.0079 0.01157,0.03177 0.01157,0.02314 0,-0.188919 -1.482e-4,-0.0077 0.020452,-0.543222"
       id="path24519" />
    <path
       style="fill:none;stroke:#ffb200;stroke-width:1;stroke-opacity:1"
       d="M 7.9374999,6.6145832 C 7.96941,6.4693844 8.0095279,6.325749 8.0332301,6.1789867 8.0558044,6.03921 8.0005927,5.4022672 7.9374999,5.2916666"
       id="path24521" />
    <path
       style="fill:none;stroke:#ffb200;stroke-width:1;stroke-opacity:1"
       d="m 9.2604166,10.583333 c 0.092992,0.0032 0.19754,0.0547 0.2789758,0.0097 0.061737,-0.03412 -0.043166,-0.134324 -0.063486,-0.201874 C 9.4233515,10.216434 9.4563638,9.9866883 9.4718393,9.8069417 9.5189078,9.2603184 9.5809402,8.6835516 9.7486154,8.1594202 9.8058781,7.9804246 9.918371,7.9858678 10.09482,7.913762 c 0.398356,-0.1627881 1.069635,-0.2385179 1.380909,0.1416717 0.345507,0.4220006 0.390821,1.0308958 0.51446,1.539313 0.0585,0.2405441 0.06724,0.4489983 0.06724,0.6947553 0,0.01551 -0.02739,0.225017 -0.0172,0.225017 0.05021,10e-7 -0.09011,0.04439 -0.133978,0.06881"
       id="path24523" />
  </g>
</svg>
