<?xml version="1.0" encoding="UTF-8" standalone="no"?>
<!-- Created with Inkscape (http://www.inkscape.org/) -->

<svg
   width="50"
   height="50"
   viewBox="0 0 13.229166 13.229167"
   version="1.1"
   id="svg5"
   inkscape:version="1.2.2 (b0a8486541, 2022-12-01)"
   sodipodi:docname="text:moveright.svg"
   xmlns:inkscape="http://www.inkscape.org/namespaces/inkscape"
   xmlns:sodipodi="http://sodipodi.sourceforge.net/DTD/sodipodi-0.dtd"
   xmlns="http://www.w3.org/2000/svg"
   xmlns:svg="http://www.w3.org/2000/svg">
  <sodipodi:namedview
     id="namedview7"
     pagecolor="#ffffff"
     bordercolor="#999999"
     borderopacity="1"
     inkscape:showpageshadow="0"
     inkscape:pageopacity="0"
     inkscape:pagecheckerboard="0"
     inkscape:deskcolor="#d1d1d1"
     inkscape:document-units="mm"
     showgrid="true"
     inkscape:zoom="8.4211042"
     inkscape:cx="20.3655"
     inkscape:cy="23.156108"
     inkscape:window-width="1366"
     inkscape:window-height="731"
     inkscape:window-x="0"
     inkscape:window-y="0"
     inkscape:window-maximized="1"
     inkscape:current-layer="layer1">
    <inkscape:grid
       type="xygrid"
       id="grid132" />
  </sodipodi:namedview>
  <defs
     id="defs2" />
  <g
     inkscape:label="Layer 1"
     inkscape:groupmode="layer"
     id="layer1">
    <rect
       style="fill:#007a00;fill-opacity:1;stroke:none;stroke-width:0.6;stroke-opacity:1"
       id="rect4080"
       width="7.9375"
       height="7.9375005"
       x="0"
       y="2.6458333" />
    <path
       style="fill:#007a00;fill-opacity:1;stroke:none;stroke-width:1.41421;stroke-dasharray:none;stroke-opacity:1"
       d="M 7.9375,0 13.229167,6.6145832 7.9375,13.229167"
       id="path29368" />
    <path
       style="fill:none;fill-opacity:1;stroke:#000000;stroke-width:1;stroke-dasharray:none;stroke-opacity:1"
       d="m 0.52916666,5.5562499 c 0.0326216,-0.069378 0.0751522,-0.1349107 0.0978649,-0.2081337 0.0160824,-0.051848 -0.0493378,-0.2621848 -0.0493378,-0.349169 0,-0.3219773 0.0575087,-0.5995916 0.10113015,-0.9186399 C 0.70044248,3.922188 0.69619275,3.7674602 0.78069045,3.6266945 1.0784967,3.1305746 2.0747324,3.3395584 2.5021123,3.4734037 c 0.1346342,0.042164 0.313855,0.1354695 0.3623012,0.2808081 0.012211,0.03663 0.012618,0.1723014 -0.00908,0.2082739 -0.010136,0.016804 -0.073723,-0.025837 -0.05437,-0.022582 0.03721,0.00625 0.072971,0.019231 0.109456,0.028847"
       id="path29370" />
    <path
       style="fill:none;fill-opacity:1;stroke:#000000;stroke-width:1;stroke-dasharray:none;stroke-opacity:1"
       d="M 3.7041666,6.0854166 C 3.6037988,5.5183216 3.7440838,5.0202787 3.8400005,4.4940328 3.8432152,4.476393 3.8286525,4.3248005 3.8445408,4.3128821 3.8838721,4.2833792 3.9273472,4.2598496 3.96875,4.2333333"
       id="path29372" />
    <path
       style="fill:none;fill-opacity:1;stroke:#000000;stroke-width:1;stroke-dasharray:none;stroke-opacity:1"
       d="m 3.7041666,3.175 c 0.18234,-0.038199 0.3508235,0.03015 0.5291667,0"
       id="path29374" />
    <path
       style="fill:none;fill-opacity:1;stroke:#000000;stroke-width:1;stroke-dasharray:none;stroke-opacity:1"
       d="M 6.3499999,3.4395833 C 6.0995271,3.274247 6.218429,3.3310758 5.6447565,3.7632939 5.3034485,4.0204429 5.3058155,5.0149722 5.4077634,5.3904583 5.4409043,5.5125204 5.5943822,5.5970286 5.6942169,5.6597295 6.0712968,5.8965544 6.562368,6.037636 6.9358843,5.7263725 6.9676893,5.6998681 7.0508801,5.3119302 7.0554241,5.2911692 7.08603,5.151329 7.1408533,4.8651673 7.0334557,4.7403535 6.9056545,4.5918278 6.406117,4.6586147 6.1980275,4.6586147 c -0.00986,0 -0.1222399,1.374e-4 -0.1222399,0.00454 0,0.03327 0.00793,0.066118 0.00963,0.099344"
       id="path29376" />
    <path
       style="fill:none;fill-opacity:1;stroke:#000000;stroke-width:1;stroke-dasharray:none;stroke-opacity:1"
       d="m 0.52916666,7.1437499 c 0.41949896,0.643486 0.12232277,0.1076957 0.14720263,1.7700635 0.001516,0.1012206 0.006446,0.2024132 0.0136231,0.3033906 0.0191299,0.2691366 0.0684838,0.5274347 0.0684838,0.798855 0,0.02721 -0.001378,-0.054939 0.004541,-0.081494 0.0146799,-0.065861 0.0504305,-0.1243856 0.0589108,-0.194651 0.0198538,-0.1645031 -0.0227901,-0.3344664 0,-0.4977961 0.00368,-0.026374 0.0276519,-0.03989 0.0316646,-0.06787 0.00492,-0.034305 -0.008884,-0.075317 0,-0.1087395 C 0.93054666,8.7760145 0.96459253,8.7956233 1.236758,8.6083364 1.3106064,8.5575187 1.3679923,8.476622 1.442332,8.4302541 1.6776788,8.2834617 1.954962,8.2583466 2.189517,8.4257138 2.5168773,8.6593012 2.6542664,9.002115 2.7148046,9.394796 c 0.00619,0.040121 0.069275,0.4121116 0.072534,0.4121301 0.041431,2.347e-4 0.082052,-0.011562 0.123078,-0.017343"
       id="path29378" />
    <path
       style="fill:none;fill-opacity:1;stroke:#000000;stroke-width:1;stroke-dasharray:none;stroke-opacity:1"
       d="M 5.901869,6.8417938 C 5.883562,7.6061335 5.86185,8.3703994 5.846952,9.1348132 c -0.0061,0.3132121 0,0.6278107 0,0.9413448 0,0.01812 0,-0.03625 0,-0.05437 0,-0.09281 -0.00714,-0.1886801 0.00454,-0.2808071 0.054789,-0.4320386 0.1289063,-0.8514904 0.2339247,-1.2743142 0.00698,-0.028088 0.1044342,-0.4520173 0.07057,-0.4520173 -0.016029,0 -0.028482,0.059929 -0.045288,0.072534 -0.021318,0.015986 -0.094758,0.013412 -0.1041985,0.013623 -0.3822115,0.00856 -0.7747653,0.00845 -1.1558783,-0.011414 -0.1519051,-0.00792 -0.26912,-0.074213 -0.4089383,-0.1152439 -0.068529,-0.020111 -0.1632024,-0.013502 -0.2355204,-0.013502 -0.00624,0 0.012105,0.00304 0.018164,0.00454 0.053707,0.01329 0.1068671,0.028797 0.1607772,0.041237 0.15434,0.035617 0.3102351,0.064122 0.4653952,0.095975 0.3674042,0.075426 0.7299902,0.1530215 1.1007723,0.2101152 0.188056,0.028957 0.373439,0.086192 0.5638252,0.1021119 0.053254,0.00445 0.1096155,0 0.1631093,0 0.058255,0 0.1136602,-0.010575 0.1675275,-0.031664 0.073568,-0.028803 0.1533697,-0.059776 0.2309791,-0.077075 0.1172311,-0.02613 0.2504554,0.014878 0.3577604,0.05437 0.031465,0.011581 0.1141663,-0.016603 0.099657,0.013623 -0.010274,0.021407 -0.029841,0.036942 -0.044761,0.055413"
       id="path29380" />
  </g>
</svg>
