<?xml version="1.0" encoding="UTF-8" standalone="no"?>
<!-- Created with Inkscape (http://www.inkscape.org/) -->

<svg
   width="50"
   height="50"
   viewBox="0 0 13.229166 13.229167"
   version="1.1"
   id="svg5"
   inkscape:version="1.2.2 (b0a8486541, 2022-12-01)"
   sodipodi:docname="text:baba.svg"
   xmlns:inkscape="http://www.inkscape.org/namespaces/inkscape"
   xmlns:sodipodi="http://sodipodi.sourceforge.net/DTD/sodipodi-0.dtd"
   xmlns="http://www.w3.org/2000/svg"
   xmlns:svg="http://www.w3.org/2000/svg">
  <sodipodi:namedview
     id="namedview7"
     pagecolor="#ffffff"
     bordercolor="#999999"
     borderopacity="1"
     inkscape:showpageshadow="0"
     inkscape:pageopacity="0"
     inkscape:pagecheckerboard="0"
     inkscape:deskcolor="#d1d1d1"
     inkscape:document-units="mm"
     showgrid="true"
     inkscape:zoom="7.1457576"
     inkscape:cx="21.061448"
     inkscape:cy="23.650396"
     inkscape:window-width="1366"
     inkscape:window-height="731"
     inkscape:window-x="0"
     inkscape:window-y="0"
     inkscape:window-maximized="1"
     inkscape:current-layer="layer1">
    <inkscape:grid
       type="xygrid"
       id="grid132" />
  </sodipodi:namedview>
  <defs
     id="defs2" />
  <g
     inkscape:label="Layer 1"
     inkscape:groupmode="layer"
     id="layer1">
    <rect
       style="fill:#ffffff;stroke:#000000;stroke-width:0;stroke-dasharray:none"
       id="rect483"
       width="13.229166"
       height="13.229166"
       x="0"
       y="0" />
    <path
       style="fill:#ffffff;stroke:#000000;stroke-width:1;stroke-dasharray:none"
       d="m 0,3.96875 c 0.11840808,0.6253686 0.24848226,1.2486409 0.35522423,1.8761061 0.0713786,0.4195876 0.0881499,0.7040129 0.0746318,1.0898269 -0.009981,0.2848706 0.0433089,0.5662242 0.0835992,0.8468395 0.0498777,0.3473902 0.0759492,0.6967884 0.13017177,1.0436883 0.00511,0.03269 0.10219346,0.5230649 0.1755872,0.449671 C 0.93139637,9.1626996 0.86293702,8.6020716 0.86188163,8.511786 0.83783391,6.4546032 0.84148807,8.009578 0.84148807,6.6105552 c 0,-0.1362059 -0.0116935,-0.4938598 0.15635073,-0.5608955 0.212204,-0.084652 0.6656942,0.019039 0.8170447,0.054238 0.3668329,0.085311 1.1859021,0.2962381 1.2317139,0.812995 C 3.0672032,7.1493202 3.033654,7.3839961 3.0066781,7.6157705 2.9706612,7.9252203 2.9517149,8.5590882 2.6171754,8.7889074 2.4198058,8.9244944 2.0179344,8.794453 1.8174869,8.7787818 1.4318976,8.7486394 1.050193,8.7709361 0.66647935,8.720784 0.59634622,8.7116175 0.52068571,8.6976425 0.44938179,8.6976425 c -0.008516,0 -0.0532332,0.00309 -0.0587219,-0.01056 -0.002663,-0.00662 0.004018,-0.027303 0,-0.021407 C 0.25710043,8.86169 0.13021996,9.0621703 0,9.2604166"
       id="path481" />
    <path
       style="fill:#ffffff;stroke:#000000;stroke-width:1;stroke-dasharray:none"
       d="M 5.8208333,5.2916666 C 5.5212321,5.5804897 5.2391045,5.8886124 4.9220294,6.1581363 4.8755713,6.1976269 4.7172261,6.1971091 4.6483794,6.2394213 4.5833263,6.2794019 4.5847778,6.4082514 4.5481473,6.4698252 4.3936256,6.7295672 4.2292079,6.9833174 4.0734541,7.2423223 3.742254,7.7930792 3.4302139,8.2061708 3.9982439,8.6614835 4.1197054,8.7588428 4.2690235,8.8598096 4.4129132,8.923852 4.7578028,9.0773553 5.1751468,8.9190207 5.3239707,8.5742686 5.4611952,8.2563866 5.4807083,7.911924 5.5387541,7.5751279 5.6065092,7.1819973 5.6907681,6.7925962 5.7545499,6.3986647 5.8215019,5.9851546 5.8252712,5.9505548 5.8709814,5.6131504 5.8855417,5.5056751 5.8518901,5.187751 5.8208333,5.2916666 c -0.038113,0.127527 0.00111,0.2662285 -0.00177,0.3992978 -0.00889,0.409856 -0.029575,0.8194664 -0.033556,1.2293997 -0.00967,0.9952849 -0.00578,1.9906802 0,2.9859953 0.00147,0.2536346 0.1015002,0.4385626 0.035328,0.6769736"
       id="path1043" />
    <path
       style="fill:#ffffff;stroke:#000000;stroke-width:1;stroke-dasharray:none"
       d="m 7.6729166,3.175 c -0.2365951,1.3075592 -0.199046,1.0222685 -0.412044,3.0284978 -0.051778,0.4877009 0.1158584,1.1847184 0.1382715,1.6954148 0.00456,0.1039881 0.00299,0.2082324 0.0094,0.3121228 0.00897,0.1453396 0.057183,0.2576322 0.038762,0.4026647 -0.050504,0.397634 -0.092277,0.7770889 -0.092277,1.177042 0,0.00714 5.027e-4,-0.01429 0,-0.021405 -0.00438,-0.06106 -0.00477,-0.060257 -0.017936,-0.1220721 C 7.2788155,9.3735995 7.2180257,9.1004643 7.1613617,8.82646 7.0804519,8.4352127 7.0421484,8.0450496 7.0005273,7.6484056 6.9828135,7.4796007 6.9107084,7.2279777 6.9551119,7.0497602 7.0072081,6.8406666 7.1326372,6.5671467 7.3086005,6.4317337 7.7035803,6.1277764 8.3019622,6.2140642 8.6406913,6.5527933 8.7229403,6.6350423 8.9192878,7.0419354 8.960046,7.17082 8.991977,7.2717895 8.968766,7.4326239 8.954116,7.5266227 8.945756,7.5802687 8.893372,8.0199536 8.8528713,8.0655337 8.7328475,8.2006125 8.6106838,8.3169934 8.5137024,8.4722482 8.4010883,8.6525285 8.3012121,8.854274 8.1301296,8.9888853 7.9375473,9.1404132 7.6730407,9.201396 7.4957593,9.3786774 7.3902909,9.4841456 7.6132095,9.6528984 7.6729166,9.7895833"
       id="path1045" />
    <path
       style="fill:#ffffff;stroke:#000000;stroke-width:1;stroke-dasharray:none"
       d="m 11.90625,5.2916666 c -0.0075,0.0013 -1.245159,0.1551649 -1.386637,0.3576426 -0.5767405,0.825409 -0.32279,0.753019 -0.413223,1.228966 -0.08022,0.4222181 -0.2195018,0.7417416 0.05525,1.1051582 0.08803,0.1164334 0.192495,0.2435048 0.319933,0.3199331 0.395487,0.2371855 0.744747,0.049396 1.00319,-0.2717697 0.111597,-0.13868 0.231236,-0.2875391 0.283051,-0.4628327 0.163215,-0.552161 -0.01244,-1.3954804 -0.01244,-2.0152034 0,-0.026709 -0.0013,0.05345 0,0.080128 0.009,0.1845551 0.0121,0.3695946 0.0298,0.5535192 0.02727,0.2835053 0.16384,0.9696608 0.195402,1.1793561 0.03235,0.2566794 0.0647,0.5133589 0.09705,0.7700383 0.01181,0.051828 0.02716,0.1029748 0.03544,0.1554829 0.0064,0.040506 -0.01436,0.1044943 0.0054,0.1440566 0.175097,0.3513852 0.213127,0.3418859 0.229392,0.7471858 0.0023,0.057043 0.0107,0.1134946 0.0107,0.1706697 0,0.034265 0.04814,0.1135713 0.01605,0.1015338 C 12.216229,9.3961229 12.062353,9.3254548 11.90625,9.2604166"
       id="path1047" />
  </g>
</svg>
