<?xml version="1.0" encoding="UTF-8" standalone="no"?>
<!-- Created with Inkscape (http://www.inkscape.org/) -->

<svg
   width="50"
   height="50"
   viewBox="0 0 13.229166 13.229167"
   version="1.1"
   id="svg5"
   inkscape:version="1.2.2 (b0a8486541, 2022-12-01)"
   sodipodi:docname="text:win.svg"
   xmlns:inkscape="http://www.inkscape.org/namespaces/inkscape"
   xmlns:sodipodi="http://sodipodi.sourceforge.net/DTD/sodipodi-0.dtd"
   xmlns="http://www.w3.org/2000/svg"
   xmlns:svg="http://www.w3.org/2000/svg">
  <sodipodi:namedview
     id="namedview7"
     pagecolor="#ffffff"
     bordercolor="#999999"
     borderopacity="1"
     inkscape:showpageshadow="0"
     inkscape:pageopacity="0"
     inkscape:pagecheckerboard="0"
     inkscape:deskcolor="#d1d1d1"
     inkscape:document-units="mm"
     showgrid="true"
     inkscape:zoom="6.609479"
     inkscape:cx="5.6736696"
     inkscape:cy="25.41804"
     inkscape:window-width="1366"
     inkscape:window-height="731"
     inkscape:window-x="0"
     inkscape:window-y="0"
     inkscape:window-maximized="1"
     inkscape:current-layer="layer1">
    <inkscape:grid
       type="xygrid"
       id="grid132" />
  </sodipodi:namedview>
  <defs
     id="defs2" />
  <g
     inkscape:label="Layer 1"
     inkscape:groupmode="layer"
     id="layer1">
    <rect
       style="fill:#ffffff;stroke:#000000;stroke-width:0;stroke-dasharray:none"
       id="rect483"
       width="13.229166"
       height="13.229166"
       x="0"
       y="0" />
    <path
       style="fill:none;fill-opacity:1;stroke:#000000;stroke-width:1;stroke-dasharray:none;stroke-opacity:1"
       d="M 1.3229167,7.9374999 C 1.158036,7.9907876 0.87420283,7.9302821 0.82827463,8.0973631 0.75153413,8.3765347 0.96950273,8.6590094 1.0479754,8.937699 1.1977445,9.4695917 1.4237679,10.026418 1.7358501,10.4853 1.816122,10.603331 2.030558,10.845238 2.2032418,10.80195 2.3400486,10.767656 2.4024752,10.614367 2.4276339,10.494369 2.5099664,10.10167 2.5859843,9.7076677 2.6678192,9.3148649 2.7972946,8.6933891 2.9256413,8.0716508 3.0615604,7.4515522 c 0.025688,-0.1171954 0.061173,-0.2320287 0.091008,-0.3482375 0.00291,-0.011313 0.00579,-0.046238 0.00579,-0.034558 0,0.272106 0.093935,0.516935 0.2287702,0.7549576 0.2754601,0.4862642 0.6796307,0.6970289 1.1926392,0.8669189 0.1347941,0.044639 0.3887999,0.1107416 0.473021,-0.057701 C 5.2570382,8.2244263 5.4887704,6.6688377 5.5401924,6.3965193 5.6191862,5.9781887 5.5982703,5.6239725 5.6232253,5.2015348 5.6312078,5.0663996 5.6407592,4.9580726 5.6366741,4.9615058 5.5147922,5.0638895 5.4066686,5.1816129 5.2916666,5.2916667"
       id="path13643" />
    <path
       style="fill:none;fill-opacity:1;stroke:#000000;stroke-width:1;stroke-dasharray:none;stroke-opacity:1"
       d="m 6.6145833,6.6145833 c 0.2378263,0.6306534 -0.29967,1.5327614 -0.1403895,2.2310135 0.049367,0.2164146 0.073206,0.433348 0.1033611,0.6530038 0.00682,0.049698 0.022376,0.198687 0.02408,0.1485522 0.00438,-0.1289098 0.00863,-0.2578241 0.012949,-0.3867362"
       id="path13645" />
    <path
       style="fill:none;fill-opacity:1;stroke:#000000;stroke-width:1;stroke-dasharray:none;stroke-opacity:1"
       d="m 6.6145833,5.2916667 c 0.2510375,-0.1257951 0.4885886,-0.2831976 0.7531126,-0.377385 0.01252,-0.00446 0.3731107,0.559346 0.5743493,0.3202471 0.2082062,-0.2473769 0.214303,-0.556859 0.1372936,-0.8498744 -0.019106,-0.0727 -0.037646,-0.2589438 -0.1211873,-0.3113342 -0.045407,-0.028475 -0.1200555,0.00485 -0.1154015,0 C 7.87531,4.0393742 7.905917,4.0036062 7.9375,3.96875"
       id="path13647" />
    <path
       style="fill:none;fill-opacity:1;stroke:#000000;stroke-width:1;stroke-dasharray:none;stroke-opacity:1"
       d="M 9.2183627,9.4755322 C 8.8999367,8.9970935 8.5151779,8.5566925 8.2630843,8.0402165 c -0.076296,-0.1563102 0,-0.3478725 0,-0.5218091 0,-0.28936 0.087051,-0.6413254 0.3225927,-0.8375211 0.039736,-0.033099 0.1372607,-0.00715 0.1824847,-0.011573 0.164311,-0.016076 0.328192,-0.036288 0.492255,-0.05473 0.8964943,-0.1007698 1.7399693,-0.2508888 2.5743303,0.1643454 0.146006,0.072662 0.49165,0.2502768 0.650033,0.4165713 0.624757,0.6559664 0.266083,0.9333384 -0.02611,1.5469751 -0.1873,0.3933431 -0.339883,0.7672716 -0.46536,1.1882607 -0.08268,0.2773932 -0.140267,0.6476392 -0.286002,0.9182082 -0.02931,0.05441 -0.309075,0.502802 -0.333382,0.478495 -0.17,-0.169999 0.323894,-0.355446 0.490275,-0.528991"
       id="path13649" />
  </g>
</svg>
