<?xml version="1.0" encoding="UTF-8" standalone="no"?>
<!-- Created with Inkscape (http://www.inkscape.org/) -->

<svg
   width="50"
   height="50"
   viewBox="0 0 13.229166 13.229167"
   version="1.1"
   id="svg5"
   inkscape:version="1.2.2 (b0a8486541, 2022-12-01)"
   sodipodi:docname="text:lump.svg"
   xmlns:inkscape="http://www.inkscape.org/namespaces/inkscape"
   xmlns:sodipodi="http://sodipodi.sourceforge.net/DTD/sodipodi-0.dtd"
   xmlns="http://www.w3.org/2000/svg"
   xmlns:svg="http://www.w3.org/2000/svg">
  <sodipodi:namedview
     id="namedview7"
     pagecolor="#ffffff"
     bordercolor="#999999"
     borderopacity="1"
     inkscape:showpageshadow="0"
     inkscape:pageopacity="0"
     inkscape:pagecheckerboard="0"
     inkscape:deskcolor="#d1d1d1"
     inkscape:document-units="mm"
     showgrid="true"
     inkscape:zoom="7.1457576"
     inkscape:cx="21.061448"
     inkscape:cy="23.650396"
     inkscape:window-width="1366"
     inkscape:window-height="731"
     inkscape:window-x="0"
     inkscape:window-y="0"
     inkscape:window-maximized="1"
     inkscape:current-layer="layer1">
    <inkscape:grid
       type="xygrid"
       id="grid132" />
  </sodipodi:namedview>
  <defs
     id="defs2" />
  <g
     inkscape:label="Layer 1"
     inkscape:groupmode="layer"
     id="layer1">
    <rect
       style="fill:#ffffff;stroke:#000000;stroke-width:0;stroke-dasharray:none"
       id="rect483"
       width="13.229166"
       height="13.229166"
       x="0"
       y="0" />
    <path
       style="fill:#ffffff;stroke:#000000;stroke-width:1;stroke-dasharray:none"
       d="M 1.3229166,1.3229166 C 1.143204,2.4353755 0.94919471,3.545619 0.78377856,4.6602933 0.73898807,4.9621188 0.62324627,5.6714805 0.66532227,6.1105512 0.6819471,6.284034 0.7451177,6.4554943 0.77047213,6.6283456 c 0.059855,0.4080549 0.11050135,0.8173603 0.11050135,1.2298335 0,0.3749321 -0.0413429,0.7680047 0.016633,1.1403047 0.0382086,0.2453611 0.0633968,0.4918049 0.10110005,0.7369167 0.0298132,0.1938179 0.10977817,0.4247895 0.10977817,0.6210635 0,0.0074 3.625e-4,-0.02681 0.00535,-0.02141 0.0734,0.07949 0.139387,0.165518 0.2090804,0.248276"
       id="path2906" />
    <path
       style="fill:#ffffff;stroke:#000000;stroke-width:0.877756;stroke-dasharray:none"
       d="M 3.2531698,2.698541 C 3.0507243,4.0038885 2.7325591,5.2878185 2.6458333,6.6145833 c -0.082737,1.2657375 0.048303,2.5401937 0.1024088,3.8085357 0.00758,0.17765 0.202052,0.199603 0.2961944,0.186724 0.1582231,-0.02164 0.3296217,-0.15141 0.4526491,-0.271046 C 3.9908984,9.858595 4.0395271,9.608923 4.2697761,8.927157 4.5007621,8.243209 4.7739372,7.5832712 4.9851892,6.8873652 5.0425886,6.69828 5.1757141,6.4123675 5.1495559,6.2260929 5.1167581,5.9925362 5.0633758,5.7630541 5.0572876,5.5214297 c -0.010978,-0.4357005 0.011548,-1.7002979 0.014488,-2.044275 0.00146,-0.1711413 0.00249,-0.3423341 0,-0.5134552 -2.446e-4,-0.01729 -0.00753,-0.089689 -0.036996,-0.080128 -0.016832,0.00546 -0.030994,0.076435 -0.016492,0.064073 0.093061,-0.079333 0.1822518,-0.1660688 0.273379,-0.2491035"
       id="path3271" />
    <path
       style="fill:#ffffff;stroke:#000000;stroke-width:0.800684;stroke-dasharray:none"
       d="m 6.4664446,10.741191 c 0.074666,-0.427114 0.1955099,-0.84087 0.2239975,-1.281343 0.281707,-4.3557135 -0.3430259,-2.5401212 0.198617,-3.8610382 0.016326,-0.039815 0.2008131,-0.6086371 0.3319553,-0.7158 0.2096815,-0.1713415 0.5278083,0.842005 0.5714637,1.0175092 0.0579,0.2327724 0.097601,0.4755933 0.1450219,0.7140643 0.024351,0.1224548 0.046667,0.245872 0.070285,0.3686752 0.021661,0.1126265 0.039458,0.615568 0.024387,0.615568 -0.013358,0 -0.016355,-0.2333475 -0.010293,-0.3955775 0.010614,-0.2839554 0.022485,-0.5680729 0.043581,-0.8506002 0.054613,-0.7313809 0.055713,-0.7136654 0.1672758,-1.2914485 0.018866,-0.097706 0.053433,-0.3036482 0.1449292,-0.2784229 0.204198,0.056298 0.3513816,0.4871413 0.4112351,0.756298 0.1672902,0.7522906 0.2630736,1.5785234 0.2345013,2.3795397 -0.00605,0.1694651 -0.095923,0.3264874 -0.1236951,0.4904581 -0.025547,0.1508382 -0.037976,0.2959484 -0.054986,0.4441748 -0.00455,0.03965 -0.010091,0.07905 -0.016597,0.118022 -0.0051,0.03052 -0.02904,0.06366 -0.018174,0.09025 0.054535,0.133453 0.1338942,0.237834 0.2008413,0.356751"
       id="path3273" />
    <path
       style="fill:#ffffff;stroke:#000000;stroke-width:0.892812;stroke-dasharray:none"
       d="m 11.047978,9.7224574 c -0.772643,-0.8102787 -0.33769,-0.2212251 -0.682912,-2.696144 -0.02978,-0.2134622 -0.02916,-0.4322261 -0.03648,-0.6488771 -0.01762,-0.5213589 0.06224,-1.0252439 0.06224,-1.5436428 0,-0.1712884 0.0032,-0.3426632 -0.0057,-0.5137188 -0.01931,-0.3721711 -0.111024,-0.7622883 0.05267,-1.0929687 0.03635,-0.073435 0.102428,-0.2364556 0.181828,-0.272072 0.167495,-0.075134 1.129098,0.5507173 1.277119,0.6389304 0.376747,0.2245223 1.156903,0.523083 0.821355,1.2303211 -0.117561,0.2477854 -0.978511,0.4020515 -1.200171,0.4562326 -0.182883,0.044703 -0.360338,0.1225925 -0.5432,0.168363 -0.112452,0.028147 -0.233147,0.041289 -0.343932,0.074161 -0.06159,0.018273 -0.111598,0.077974 -0.176583,0.091714 -0.152944,0.032339 -0.210737,0.040593 -0.448926,0.093949"
       id="path3275" />
  </g>
</svg>
