<?xml version="1.0" encoding="UTF-8" standalone="no"?>
<!-- Created with Inkscape (http://www.inkscape.org/) -->

<svg
   width="50"
   height="50"
   viewBox="0 0 13.229166 13.229167"
   version="1.1"
   id="svg5"
   inkscape:version="1.2.2 (b0a8486541, 2022-12-01)"
   sodipodi:docname="text:game.svg"
   xmlns:inkscape="http://www.inkscape.org/namespaces/inkscape"
   xmlns:sodipodi="http://sodipodi.sourceforge.net/DTD/sodipodi-0.dtd"
   xmlns="http://www.w3.org/2000/svg"
   xmlns:svg="http://www.w3.org/2000/svg">
  <sodipodi:namedview
     id="namedview7"
     pagecolor="#ffffff"
     bordercolor="#999999"
     borderopacity="1"
     inkscape:showpageshadow="0"
     inkscape:pageopacity="0"
     inkscape:pagecheckerboard="0"
     inkscape:deskcolor="#d1d1d1"
     inkscape:document-units="mm"
     showgrid="true"
     inkscape:zoom="9.2129014"
     inkscape:cx="19.917721"
     inkscape:cy="29.089641"
     inkscape:window-width="1366"
     inkscape:window-height="731"
     inkscape:window-x="0"
     inkscape:window-y="0"
     inkscape:window-maximized="1"
     inkscape:current-layer="layer1">
    <inkscape:grid
       type="xygrid"
       id="grid132" />
  </sodipodi:namedview>
  <defs
     id="defs2" />
  <g
     inkscape:label="Layer 1"
     inkscape:groupmode="layer"
     id="layer1">
    <rect
       style="fill:#3b657f;stroke-width:1;stroke-linecap:square;fill-opacity:1"
       id="rect297"
       width="13.229166"
       height="13.229166"
       x="0"
       y="0" />
    <path
       style="fill:none;fill-opacity:1;stroke:#000000;stroke-width:1;stroke-linecap:square;stroke-opacity:1"
       d="M 4.7624999,0.79374993 C 4.3694439,0.70235573 3.9988987,0.69164933 3.5990267,0.77278273 3.4332057,0.80642753 3.2542858,0.83504373 3.1027652,0.91836063 2.9053014,1.0269405 2.6864796,1.2100058 2.51456,1.3325502 2.0940299,1.6323045 2.1798486,1.5934572 1.8034681,1.8246859 1.4678933,2.0308458 1.3562075,2.0734104 1.2146734,2.462989 1.0120392,3.0207484 1.2113063,3.6862292 1.3847107,4.2270155 1.6740026,5.129214 2.1962239,6.2377128 3.2100331,6.4920184 3.4091125,6.5419554 3.663362,6.5161534 3.8629235,6.4962884 4.0515476,6.4775134 4.2574307,6.4704524 4.4360993,6.4000714 4.8434187,6.2396241 4.905422,5.6884542 4.9419382,5.3179623 c 0.00929,-0.094218 0.02367,-0.1880483 0.028291,-0.2826096 0.010332,-0.2114166 -0.032415,-0.4461415 0.00545,-0.6579 0.022688,-0.1268753 0.065211,-0.2488871 0.092681,-0.3738168 0.016063,-0.073057 -0.00839,-0.1551381 0.010904,-0.2282391 0.00963,-0.036501 0.1007181,-0.2473129 0.059822,-0.2882087 -0.00345,-0.00345 -0.021619,0.016357 -0.027112,0.016357 -0.034774,0 -0.074197,0.00365 -0.1087414,0 C 4.7205949,3.4737113 4.4306804,3.4541983 4.1493624,3.4126349 3.7979087,3.3607094 3.4722013,3.373883 3.1183823,3.373883 c -0.031205,0 -0.1324351,-0.018637 -0.1522085,0.010755 -0.088671,0.1318112 0.3148248,0.045563 0.4734095,0.054945"
       id="path1607" />
    <path
       style="fill:none;fill-opacity:1;stroke:#000000;stroke-width:1;stroke-linecap:square;stroke-opacity:1"
       d="m 7.1437499,6.0854165 c 0.020458,0.047961 0.01455,0.1668339 0.06137,0.1438839 C 7.2990916,6.183238 7.4029588,5.8013287 7.4451469,5.6936978 7.5687914,5.3782528 7.6795346,5.0572 7.8139538,4.7461153 8.2176945,3.8117443 8.8504574,2.9862737 9.220519,2.0350961 9.2895282,1.8577201 9.3617459,1.6737057 9.4170785,1.4910946 9.445922,1.3959039 9.4632274,1.2551295 9.5025392,1.1663439 9.5590237,1.0387732 9.6430102,0.91280243 9.6789123,0.77749783 c 0.00465,-0.017517 -0.012814,-0.041555 0,-0.054371 0.00841,-0.00841 0.073238,0.1924541 0.076178,0.2012747 0.054747,0.16423947 0.1537489,0.30546407 0.232954,0.45795137 0.2451487,0.4719632 1.0529857,2.0608728 1.3122637,2.5959421 0.180887,0.3732937 0.324996,0.7616375 0.493462,1.1401636 0.160775,0.3612439 0.313737,0.7200286 0.461783,1.08594 0.03984,0.098482 0.147198,0.2102757 0.147198,0.3216563 0,0.1472827 0.02136,-0.2937907 0.03267,-0.4406387"
       id="path1611" />
    <path
       style="fill:none;fill-opacity:1;stroke:#000000;stroke-width:1;stroke-linecap:square;stroke-opacity:1"
       d="M 11.1125,4.7624999 C 10.831251,4.6957667 10.983781,4.7083101 10.560484,4.8025491 10.041666,4.9180537 9.6509672,5.091128 9.1368263,4.9784801 9.0250724,4.9539955 8.1289535,4.7165248 8.0886069,4.7568717 c -0.0074,0.0074 0.019214,0.027612 0.027112,0.027259 0.1170877,-0.00524 0.2339655,-0.01442 0.3509481,-0.021631"
       id="path1615" />
    <path
       style="fill:none;fill-opacity:1;stroke:#000000;stroke-width:1;stroke-linecap:square;stroke-opacity:1"
       d="M 1.3229166,11.90625 C 1.2732466,11.8903 1.1764843,11.91055 1.1739057,11.85841 1.1613487,11.604685 1.4933319,10.665649 1.5788126,10.326453 1.6810715,9.9206796 1.7109195,9.4973093 1.8509607,9.101713 1.9030037,8.9546991 1.9599155,8.8298108 1.9762048,8.6726414 c 0.010743,-0.103654 0.016194,-0.4909288 0.05275,-0.5640406 0.027007,-0.054014 0.057298,-0.1247809 0.070579,-0.184772 0.00699,-0.031591 -0.014834,-0.089977 0,-0.1196449 0.022373,-0.044745 0.072315,0.069574 0.1034369,0.1087414 0.1145493,0.1441606 0.1677687,0.3626485 0.2664016,0.5218996 0.1240352,0.200265 0.2778013,0.3840697 0.3954766,0.5883526 0.1674752,0.290734 0.2741189,0.6117622 0.3957714,0.9226807 0.023156,0.05918 0.2886229,0.7197058 0.3234246,0.6965048 C 3.6248299,10.615173 3.7558003,9.9610472 3.7577654,9.9533709 3.9217139,9.3129877 3.874268,9.4786893 4.0025073,8.7961151 4.1969764,7.8046248 4.0115973,8.8191601 4.0648343,8.4116896 4.0795033,8.299407 4.1134233,8.167095 4.0975453,8.167095 c -0.029249,0 0.018325,0.055932 0.032564,0.081482 0.038877,0.069768 0.019243,0.1432266 0.048919,0.2174827 0.063705,0.1594065 0.1437122,0.3134149 0.216304,0.4691497 0.1711217,0.367116 0.382987,0.712189 0.5750915,1.0675226 0.1196914,0.221391 0.1737151,0.474646 0.2930713,0.698715 0.1612061,0.302634 0.2895835,0.61942 0.4274507,0.932847 0.027111,0.06163 0.069154,0.149828 0.1141931,0.201128 0.029652,0.03377 0.065388,0.06151 0.092386,0.09784 0.00542,0.0073 0.025419,0.02245 0.016357,0.02181 -0.2075305,-0.01459 -0.4148098,-0.03254 -0.6222143,-0.04882"
       id="path1617" />
    <path
       style="fill:none;fill-opacity:1;stroke:#000000;stroke-width:1;stroke-linecap:square;stroke-opacity:1"
       d="M 11.90625,7.9374999 C 11.747819,8.0593159 11.618453,8.2337761 11.430957,8.3029482 11.401437,8.3138385 10.289292,8.155511 10.2127,8.1408674 9.8233462,8.0664274 9.4509163,7.9185872 9.062517,7.8470595 8.6803523,7.7766801 8.2636094,7.8218632 7.876234,7.8218632 c -0.2566688,0 -0.6586071,-0.052809 -0.7937529,0.2174825 -0.027601,0.055202 -0.1994532,-0.1065456 -0.2445945,-0.076178 -0.060299,0.040565 0.144736,0.3542827 0.1631121,0.4133056 0.068924,0.2213814 0.038181,0.7564993 0.043172,1.0119725 0.00817,0.4181923 0.078408,0.8215802 0.1161087,1.2347602 0.022519,0.246782 -0.011126,0.498396 0.016357,0.744981 0.00655,0.05874 -0.0031,0.699744 0.032563,0.717575 0.031679,0.01584 0.063683,-0.02351 0.092386,-0.02711 0.060385,-0.0076 0.1402802,-0.0017 0.1990646,0 0.4335465,0.01282 0.8695682,-8.99e-4 1.3025389,0.0168 0.5355548,0.02189 1.0836352,0.05674 1.6190381,0.09754 0.106702,0.0081 1.030843,0.08782 1.086972,0.04406 0.132544,-0.103351 0.2647,-0.207199 0.397051,-0.310798"
       id="path1623" />
    <path
       style="fill:none;fill-opacity:1;stroke:#000000;stroke-width:1;stroke-linecap:square;stroke-opacity:1"
       d="m 7.4083332,9.7895832 c 0.2380906,0.2014157 0.4766122,0.1420569 0.7397528,0.1810597 0.2186366,0.032406 0.4422828,0.063739 0.6636388,0.071862 0.3239296,0.01189 0.130747,-0.0022 0.4062679,-0.01504 0.2334149,-0.01089 0.4682871,0.0099 0.7017475,0 0.3339578,-0.01422 0.6565778,-0.1039143 0.9906948,-0.1039143 0.110081,0 0.221342,0.00632 0.331683,0.010004 0.04788,0.00159 0.09516,0.00504 0.143113,0.00504 0.01758,0 0.06011,-0.015962 0.05274,0 -0.01824,0.039538 -0.04059,0.07705 -0.06089,0.1155763"
       id="path1635" />
  </g>
</svg>
