<?xml version="1.0" encoding="UTF-8" standalone="no"?>
<!-- Created with Inkscape (http://www.inkscape.org/) -->

<svg
   width="50"
   height="50"
   viewBox="0 0 13.229166 13.229167"
   version="1.1"
   id="svg5"
   inkscape:version="1.2.2 (b0a8486541, 2022-12-01)"
   sodipodi:docname="text:move.svg"
   xmlns:inkscape="http://www.inkscape.org/namespaces/inkscape"
   xmlns:sodipodi="http://sodipodi.sourceforge.net/DTD/sodipodi-0.dtd"
   xmlns="http://www.w3.org/2000/svg"
   xmlns:svg="http://www.w3.org/2000/svg">
  <sodipodi:namedview
     id="namedview7"
     pagecolor="#ffffff"
     bordercolor="#999999"
     borderopacity="1"
     inkscape:showpageshadow="0"
     inkscape:pageopacity="0"
     inkscape:pagecheckerboard="0"
     inkscape:deskcolor="#d1d1d1"
     inkscape:document-units="mm"
     showgrid="true"
     inkscape:zoom="7.2280672"
     inkscape:cx="24.418699"
     inkscape:cy="25.179622"
     inkscape:window-width="1366"
     inkscape:window-height="731"
     inkscape:window-x="0"
     inkscape:window-y="0"
     inkscape:window-maximized="1"
     inkscape:current-layer="layer1">
    <inkscape:grid
       type="xygrid"
       id="grid132" />
  </sodipodi:namedview>
  <defs
     id="defs2" />
  <g
     inkscape:label="Layer 1"
     inkscape:groupmode="layer"
     id="layer1">
    <rect
       style="fill:#007a00;fill-opacity:1;stroke:none;stroke-width:1;stroke-opacity:1"
       id="rect4080"
       width="13.229166"
       height="13.229166"
       x="0"
       y="0" />
    <path
       style="fill:#007a00;fill-opacity:1;stroke:#000000;stroke-width:1;stroke-opacity:1;stroke-dasharray:none"
       d="m 1.3229166,5.2916666 c -0.07789,-0.4874641 0.04917,-0.9334053 0.129129,-1.3983827 0.022058,-0.1282713 0.015619,-0.2581074 0.047472,-0.3852103 0.1632271,-0.6513182 0.3960924,-1.28412 0.523051,-1.9456411 0.00926,-0.048226 0.042338,-0.2386142 0.046757,-0.2956996 0.00797,-0.1029766 -0.019612,-0.2325574 0.00529,-0.33688035 0.015503,-0.0649455 0.041809,-0.12919887 0.052763,-0.19532194 7.52e-5,-4.5244e-4 8.625e-4,-0.0940808 0.00529,-0.0896536 0.1013767,0.10137666 0.1243633,0.32128962 0.1883155,0.44826809 0.3554263,0.7057067 0.5570922,1.4543595 0.8216104,2.1927248 0.076003,0.2121524 0.1763948,0.4069093 0.2635274,0.6112748 0.016319,0.038279 0.069694,-0.124284 0.076356,-0.1432742 C 3.5708989,3.5018212 3.5175269,3.6848995 3.614742,3.2511238 3.700278,2.8694626 3.7692439,2.4835549 3.8516735,2.1009263 3.9020705,1.8669897 4.0372724,1.5822969 4.0372724,1.3469493 c 0,-0.1231483 0.1779119,-0.2334082 0.2163413,-0.34817637 0.00713,-0.0212844 0.068016,-0.29395169 0.079072,-0.29026615 0.093479,0.0311597 0.3124306,0.79820532 0.3357364,0.87337212 0.1939986,0.625693 0.267979,1.3693923 0.3393112,2.0267155 0.040155,0.3700261 0.056447,0.7495127 0.2018993,1.0951469 0.02114,0.050234 0.2129285,0.5023225 0.1688692,0.5329171 -0.028144,0.019544 -0.057891,0.036672 -0.086836,0.055008"
       id="path24521" />
    <path
       style="fill:#007a00;fill-opacity:1;stroke:#000000;stroke-width:1;stroke-dasharray:none;stroke-opacity:1"
       d="m 9.2604166,5.2916666 c 0.051596,0.025704 0.129083,0.1287087 0.1547873,0.077113 0.025704,-0.051596 -0.09941,-0.061109 -0.1547873,-0.077113 C 9.0443668,5.2292292 8.8087921,5.1908492 8.5880169,5.1357087 8.0732544,5.0071427 7.8758012,4.7761374 7.6008261,4.3449837 7.4948729,4.1788521 7.3903884,3.9994591 7.371902,3.7979106 7.3300399,3.3415097 7.3509655,2.8996309 7.4039314,2.444241 c 0.010316,-0.0887 0.032246,-0.1756865 0.045756,-0.2639563 0.00222,-0.014506 -0.00127,-0.101007 0.010438,-0.121397 C 7.5726218,1.862779 8.0638242,1.6660223 8.2467036,1.5651493 9.1356861,1.0748027 9.6843224,0.86020197 10.616448,1.3466633 c 0.871502,0.454823 0.87338,1.152362 0.751117,2.0457329 -0.01106,0.080833 -0.03187,0.4746516 -0.07135,0.535491 -0.16972,0.2615578 -0.539968,0.9310624 -0.785577,1.0962907 -0.05562,0.037415 -0.256235,-0.094944 -0.332448,-0.094944 -0.177167,0 -0.3082317,0.077705 -0.4695736,0.1424163 -0.063397,0.025426 -0.2656168,0.030722 -0.3007042,0.063344 -0.052529,0.048838 -0.09833,0.1044485 -0.1474946,0.1566728 z"
       id="path24901" />
    <path
       style="fill:#007a00;fill-opacity:1;stroke:#000000;stroke-width:1;stroke-dasharray:none;stroke-opacity:1"
       d="m 1.3229166,7.4083332 c 0.099349,-1.233555 -0.0025,-0.2077148 0.9548861,2.9459068 0.041904,0.138033 0.083297,0.276221 0.1252577,0.414237 0.1002746,0.32982 0.2439918,0.637388 0.3508933,0.963169 0.047895,0.145961 0.088324,0.303682 0.1425591,0.443264 0.019836,0.05105 0.080111,0.317292 0.1951791,0.221488 0.118282,-0.09848 0.073691,-0.319378 0.1108157,-0.448411 0.059802,-0.207852 0.1216279,-0.415141 0.1861707,-0.62157 0.091798,-0.275443 0.183597,-0.550886 0.2753955,-0.826329 0.025069,-0.06182 0.053849,-0.12226 0.075212,-0.185456 0.019217,-0.05685 -0.018614,-0.132981 0,-0.190031 0.051968,-0.1592817 0.098789,-0.3199427 0.1384125,-0.4777237 0.030778,-0.122556 0.1114981,-0.2316616 0.1560002,-0.3493199 0.025485,-0.067376 0.016126,-0.1514044 0.0316,-0.2216319 0.029655,-0.1345981 0.067163,-0.2826571 0.1159634,-0.4110911 0.1110835,-0.2923537 0.257093,-0.5490324 0.257093,-0.8680818 0,-0.024135 -0.00766,-0.061727 0,-0.084506 0.025408,-0.075536 0.1244536,-0.2518561 0.1738736,-0.301276 0.00804,-0.00804 0,-0.059247 0,-0.068634 0,-0.01406 0.013901,-0.04429 0,-0.042181 C 4.3971852,7.3327706 4.1832429,7.3722737 3.96875,7.4083332"
       id="path24903" />
    <path
       style="fill:#007a00;fill-opacity:1;stroke:#000000;stroke-width:1;stroke-dasharray:none;stroke-opacity:1"
       d="M 11.90625,6.6145832 C 11.09186,6.8782898 10.42393,6.8402543 9.6281133,6.8302623 8.9491872,6.8217374 8.3310216,7.1930235 7.6967711,7.1930235 7.3923794,7.1930235 7.0955299,7.1308185 6.8023797,7.065478 6.7655707,7.057278 6.6025124,6.98124 6.5808909,7.002277 c -0.01442,0.014031 0.03644,0.1156316 0.042181,0.1371259 0.036219,0.1355749 0.032974,0.237527 0.036891,0.3843522 0.00606,0.2273634 0.034729,0.4540436 0.045899,0.6810531 0.029362,0.5967429 0.010994,1.2048435 -0.0013,1.8019378 -0.013121,0.63795 -0.069921,1.275221 -0.069921,1.914184 0,0.05432 -0.042287,0.332199 0,0.374486 0.050154,0.05015 0.850201,0.04662 0.9101201,0.04776 0.3256952,0.0062 0.6381287,0.05928 0.9608809,0.08822 0.4476134,0.04014 0.9025501,0.04833 1.3522399,0.04833 0.1586642,0 0.3214862,-0.01032 0.4800122,0 0.04777,0.0031 0.09451,0.01044 0.142416,0.01044 0.0095,0 0.02523,0.02 0.02645,0.01058 0.02575,-0.198136 0.05105,-0.39633 0.07657,-0.594496"
       id="path24905" />
    <path
       style="fill:#007a00;fill-opacity:1;stroke:#000000;stroke-width:1;stroke-dasharray:none;stroke-opacity:1"
       d="M 10.583333,9.2604166 C 10.089528,9.2539104 9.5957635,9.2396573 9.1019166,9.2409009 8.8099552,9.2416417 8.5183418,9.2629195 8.2263995,9.2663538 8.0534554,9.2683911 7.8811704,9.2478462 7.7077812,9.254056 7.6172723,9.2572971 7.5288417,9.2764 7.4386775,9.280509 7.2999377,9.286829 7.154565,9.263687 7.016719,9.280509 7.004135,9.282039 7.008139,9.313663 6.995558,9.312109 6.8683684,9.2963999 6.7415745,9.2776475 6.6145832,9.2604166"
       id="path24907" />
  </g>
</svg>
