<?xml version="1.0" encoding="UTF-8" standalone="no"?>
<!-- Created with Inkscape (http://www.inkscape.org/) -->

<svg
   width="50"
   height="50"
   viewBox="0 0 13.229166 13.229167"
   version="1.1"
   id="svg5"
   inkscape:version="1.2.2 (b0a8486541, 2022-12-01)"
   sodipodi:docname="text:moveleft.svg"
   xmlns:inkscape="http://www.inkscape.org/namespaces/inkscape"
   xmlns:sodipodi="http://sodipodi.sourceforge.net/DTD/sodipodi-0.dtd"
   xmlns="http://www.w3.org/2000/svg"
   xmlns:svg="http://www.w3.org/2000/svg">
  <sodipodi:namedview
     id="namedview7"
     pagecolor="#ffffff"
     bordercolor="#999999"
     borderopacity="1"
     inkscape:showpageshadow="0"
     inkscape:pageopacity="0"
     inkscape:pagecheckerboard="0"
     inkscape:deskcolor="#d1d1d1"
     inkscape:document-units="mm"
     showgrid="true"
     inkscape:zoom="9.3770797"
     inkscape:cx="19.568992"
     inkscape:cy="20.048886"
     inkscape:window-width="1366"
     inkscape:window-height="731"
     inkscape:window-x="0"
     inkscape:window-y="0"
     inkscape:window-maximized="1"
     inkscape:current-layer="layer1">
    <inkscape:grid
       type="xygrid"
       id="grid132" />
  </sodipodi:namedview>
  <defs
     id="defs2" />
  <g
     inkscape:label="Layer 1"
     inkscape:groupmode="layer"
     id="layer1">
    <rect
       style="fill:#d5d912;fill-opacity:1;stroke:none;stroke-width:0.6;stroke-opacity:1"
       id="rect4080"
       width="7.9375"
       height="7.9375005"
       x="5.2916665"
       y="2.645833" />
    <path
       style="fill:#d5d912;fill-opacity:1;stroke:none;stroke-width:1.41421;stroke-dasharray:none;stroke-opacity:1"
       d="M 5.2916647,13.229167 -5e-7,6.614584 5.2916647,0"
       id="path29368" />
    <path
       style="fill:#d5d912;fill-opacity:1;stroke:#000000;stroke-width:1;stroke-dasharray:none;stroke-opacity:1"
       d="m 5.8208333,3.175 c 0.036556,0.8008479 0.039056,1.6013728 0.039056,2.4029431 0,0.096613 -0.028578,0.479719 0,0.5368748 0.00813,0.016264 0.08505,-0.080699 0.097654,-0.085419 0.095809,-0.035888 0.1970165,-0.00994 0.2937325,0.0065 0.4021447,0.068347 0.7860062,-0.027329 1.1826457,-0.073847 0.2323372,-0.027248 0.4761944,-0.012454 0.7098078,-0.012454 0.031365,0 0.3782702,0.013653 0.3782702,0.036593 0,0.03787 -0.037953,0.065578 -0.055333,0.099224"
       id="path30926" />
    <path
       style="fill:#d5d912;fill-opacity:1;stroke:#000000;stroke-width:1;stroke-dasharray:none;stroke-opacity:1"
       d="m 9.7895832,4.7624999 c 0.6918168,0.023051 1.3834098,0.054219 2.0754498,0.069153 0.754831,0.016288 0.732513,-0.2090295 0.732513,-0.8254272 0,-0.2031092 0.03997,-0.5646819 -0.100079,-0.7515807 -0.212322,-0.2833521 -0.659041,-0.3486854 -0.979182,-0.3016684 -0.236571,0.034744 -0.448696,0.2523096 -0.620641,0.3895127 -0.09292,0.074148 -0.206211,0.1505098 -0.284584,0.24204 -0.232993,0.2721073 -0.39479,0.6411736 -0.477578,0.9898732 -0.04061,0.1710381 -0.127368,0.3704471 -0.07737,0.5491091 0.06017,0.2150139 0.378274,0.5950448 0.537095,0.741661 0.314405,0.2902436 0.79477,0.54635 1.207996,0.6619729 0.07499,0.020984 0.156316,0.035139 0.233774,0.043316 0.06823,0.0072 0.205315,-0.030167 0.268382,-0.00816 0.04411,0.015397 0.08671,0.034853 0.130061,0.052279"
       id="path30928" />
    <path
       style="fill:#d5d912;fill-opacity:1;stroke:#000000;stroke-width:1;stroke-dasharray:none;stroke-opacity:1"
       d="M 6.8791666,10.31875 C 6.8776055,9.6308107 6.8384631,8.9419318 6.8744438,8.2549324 6.8870617,8.0140169 6.9679216,7.7814439 7.0243411,7.5468881 7.0543006,7.4223355 7.1366215,7.3833431 7.2345279,7.3292064 7.3052473,7.2901029 7.3763951,7.2407091 7.4577206,7.2254908 7.710616,7.1781666 8.256599,7.4598196 8.4064823,7.6733089 c 0.064365,0.09168 0.1127308,0.1874171 0.1606987,0.2881114 0.00423,0.00887 0.031793,0.089387 0.036593,0.089387 0.056852,0 0.084306,-0.076316 0.1274763,-0.1133078"
       id="path30930" />
    <path
       style="fill:#d5d912;fill-opacity:1;stroke:#000000;stroke-width:1;stroke-dasharray:none;stroke-opacity:1"
       d="M 7.9374999,8.9958332 C 7.8916868,8.9489866 7.857804,8.8862632 7.8000605,8.8552932 7.7294461,8.8174202 7.2957641,8.842617 7.1568246,8.842617 c -0.3287118,0 -0.6588829,0.021894 -0.987779,0.00408 C 6.070026,8.8413322 5.9743683,8.8092327 5.8761947,8.7978693 5.6807359,8.7752459 5.4686699,8.8234347 5.2916666,8.7312499"
       id="path30985" />
    <path
       style="fill:#d5d912;fill-opacity:1;stroke:#000000;stroke-width:1;stroke-dasharray:none;stroke-opacity:1"
       d="m 11.1125,7.1437499 c -0.03165,0.3709429 -0.05222,0.7429968 -0.09494,1.1128287 -0.04217,0.3651279 -0.103679,0.7277775 -0.159597,1.0910541 -0.02268,0.1473576 -0.04719,0.2944276 -0.07076,0.4416456 -0.01733,0.108227 -0.03951,0.2165257 -0.05588,0.3253657 -0.0053,0.03498 0.0077,0.137449 -0.0082,0.105809 -0.05393,-0.107856 0.03163,-0.4695857 0.05037,-0.5747897 0.03427,-0.1923473 0.02964,-0.3911467 0.04464,-0.5857012 0.0078,-0.1016259 0.05698,-0.2044007 0.05698,-0.3049749 0,-0.050491 0.07746,-0.3171661 0.04475,-0.3335216 -0.01513,-0.00757 -0.273473,0.061896 -0.317209,0.065029 -0.179093,0.01283 -0.366404,-0.00523 -0.543047,-0.026234 -0.1137546,-0.013528 -0.2925103,-0.05864 -0.4148626,-0.029759 -0.054631,0.012896 -0.2131542,0.1326018 -0.2603365,0.085419 -0.024813,-0.024813 0.2704412,-0.1533805 0.3050852,-0.1667608 0.2349325,-0.090736 0.7398479,0.021169 1.0153339,0.043096 0.0791,0.00629 0.155602,0.031348 0.233553,0.043206 0.407619,0.062008 0.813538,0.1286251 1.227064,0.1286251 0.04755,0 0.417363,0.012737 0.422908,0.00816 0.03948,-0.032614 0.0744,-0.070385 0.111604,-0.1055778"
       id="path30987" />
  </g>
</svg>
