<?xml version="1.0" encoding="UTF-8" standalone="no"?>
<!-- Created with Inkscape (http://www.inkscape.org/) -->

<svg
   width="50"
   height="50"
   viewBox="0 0 13.229166 13.229167"
   version="1.1"
   id="svg5"
   inkscape:version="1.4 (1:1.4+202410161351+e7c3feb100)"
   sodipodi:docname="text:movedown.svg"
   xmlns:inkscape="http://www.inkscape.org/namespaces/inkscape"
   xmlns:sodipodi="http://sodipodi.sourceforge.net/DTD/sodipodi-0.dtd"
   xmlns="http://www.w3.org/2000/svg"
   xmlns:svg="http://www.w3.org/2000/svg">
  <sodipodi:namedview
     id="namedview7"
     pagecolor="#ffffff"
     bordercolor="#999999"
     borderopacity="1"
     inkscape:showpageshadow="0"
     inkscape:pageopacity="0"
     inkscape:pagecheckerboard="0"
     inkscape:deskcolor="#d1d1d1"
     inkscape:document-units="mm"
     showgrid="true"
     inkscape:zoom="8.7635031"
     inkscape:cx="30.866652"
     inkscape:cy="17.744046"
     inkscape:window-width="1854"
     inkscape:window-height="1011"
     inkscape:window-x="66"
     inkscape:window-y="32"
     inkscape:window-maximized="1"
     inkscape:current-layer="layer1">
    <inkscape:grid
       type="xygrid"
       id="grid132"
       originx="0"
       originy="0"
       spacingy="1"
       spacingx="1"
       units="mm" />
  </sodipodi:namedview>
  <defs
     id="defs2" />
  <g
     inkscape:label="Layer 1"
     inkscape:groupmode="layer"
     id="layer1">
    <rect
       style="fill:#9f1bd0;fill-opacity:1;stroke:none;stroke-width:0.6;stroke-opacity:1"
       id="rect4080"
       width="7.9375"
       height="7.9375005"
       x="-7.9375"
       y="2.6458335"
       transform="rotate(-90)" />
    <path
       style="fill:#9f1bd0;fill-opacity:1;stroke:none;stroke-width:1.41421;stroke-dasharray:none;stroke-opacity:1"
       d="M 13.229167,7.9375018 6.614584,13.229167 -4.9613953e-7,7.9375018"
       id="path29368" />
    <path
       style="fill:#9f1bd0;fill-opacity:1;stroke:#000000;stroke-width:0.849167;stroke-linecap:square;stroke-opacity:1"
       d="m 3.5569651,0.730857 c -0.09033,0.1586044 -0.026642,0.3374774 -0.00974,0.5057918 0.00905,0.090171 0.011714,0.1808524 0.013318,0.2714004 0.015635,0.8835896 -0.023728,0.095108 0.026634,0.8882198 0.0047,0.074005 0.00408,0.1484185 0.013316,0.2220549 0.029851,0.237812 0.098635,0.4664355 0.1331691,0.7031741 0.00617,0.042275 0.025969,0.4028044 0.026633,0.4194369 0.00387,0.096898 0.00381,0.1868568 0.013318,0.283737 0.00191,0.019387 -0.0038,0.059919 0,0.074018 0.00482,0.017841 0.03675,-0.014472 0.053268,-0.024672 0.026633,-0.016448 0.050837,-0.036919 0.079901,-0.049345 0.029342,-0.012545 0.06256,-0.015207 0.093218,-0.024673 0.1008127,-0.031129 0.098997,-0.033517 0.1864367,-0.074018 0.129385,-0.05993 0.2491794,-0.082568 0.3861908,-0.123365 C 4.7170562,3.7596116 4.8579128,3.7067742 4.9987683,3.6545802 5.2210777,3.5722039 5.3560176,3.5157724 5.438226,3.2968251 5.4594588,3.2402747 5.4694059,3.1803844 5.4914935,3.1241158 5.5405088,2.9992481 5.5990315,2.8777555 5.6512963,2.7540241 5.6789372,2.6885875 5.7184697,2.6259138 5.7311978,2.5566419 5.7881561,2.2466409 5.7806839,1.8540846 5.5580763,1.594404 5.4819244,1.5055693 5.3946791,1.4249751 5.3050554,1.3476763 5.164729,1.2266471 4.9638333,1.1682919 4.7856962,1.1132849 4.5548345,1.041997 4.3168639,0.9688893 4.0799009,0.9159028 3.9635105,0.8898771 3.7749377,0.8879364 3.6803938,0.8295481 3.6351727,0.8016204 3.5988789,0.7629081 3.5569651,0.730857 Z"
       id="path2" />
    <path
       style="fill:#9f1bd0;fill-opacity:1;stroke:#000000;stroke-width:0.922142;stroke-linecap:square;stroke-opacity:1"
       d="m 7.8965231,0.86276221 c 0.1677251,-0.0267161 0.3260209,0.0464591 0.4886297,0.077412 0.1366633,0.0260146 0.148234,-0.001928 0.2752876,0.0464468 0.02757,0.0104961 0.2571061,0.31119379 0.2752877,0.34061179 0.019295,0.031221 0.023333,0.073222 0.037539,0.1083763 0.015038,0.037215 0.037249,0.069902 0.050052,0.1083765 0.063257,0.1900782 0.00568,0.1465512 0.1126175,0.3406118 0.083253,0.1510782 0.3875151,0.474631 0.4004197,0.6502587 0.011199,0.152433 -0.063395,0.3446251 -0.1126179,0.4799528 C 9.255206,3.4781944 9.3138914,3.3024586 9.1859895,3.6031382 9.174708,3.6296605 9.1145297,3.7939005 9.085885,3.8198911 9.0452434,3.8567669 8.9953381,3.8751037 8.9482412,3.8973031 8.6259594,4.0492102 8.3017908,3.9719781 7.9722216,3.9127838 7.875858,3.8954765 7.7802971,3.8719011 7.6844208,3.8508542 7.6255323,3.8379266 7.2008797,3.7946285 7.0587673,3.6650662 6.922365,3.5407096 6.9216693,3.3581209 6.8835842,3.169631 6.7930057,2.721342 6.8316695,3.0715544 6.8210188,2.333584 6.8162775,2.0048456 6.816493,2.0208121 6.8835844,1.6368784 c 0.00836,-0.047854 0.016209,-0.098104 0.037539,-0.1393412 0.1553997,-0.3004298 0.2526838,-0.3494866 0.5005229,-0.52639985 0.052676,-0.0376019 0.057578,-0.0578157 0.1001046,-0.0928946 0.017353,-0.0143134 0.042333,0.006256 0.062566,0 0.017537,-0.005425 0.015764,-0.0154826 0.037539,-0.0154826"
       id="path3" />
    <path
       style="fill:#9f1bd0;fill-opacity:1;stroke:#000000;stroke-width:0.973658;stroke-linecap:square;stroke-opacity:1"
       d="m 7.3960391,7.9374999 c 0.00704,-0.3566319 -0.00565,-0.7127417 -0.014307,-1.0689331 -0.00652,-0.2684438 0.00694,-0.6088766 0.028614,-0.8604578 0.00788,-0.091447 0.033096,-0.1804868 0.042922,-0.2717233 0.031175,-0.2894587 0.028614,-0.2983582 0.028614,-0.4981599 0,-0.1006385 0,-0.2012767 0,-0.301915 0,-0.00206 0,-0.077531 0,-0.075479 0,0.1001326 -0.00675,-0.021349 0.014307,0.045287 0.00301,0.00955 -0.00388,0.020995 0,0.030192 0.1098289,0.2607294 0.1496195,0.2998168 0.3147649,0.5585428 0.090145,0.1412275 0.1750154,0.2864655 0.2718423,0.4226809 0.35289,0.496443 0.4218204,0.5114298 0.9013719,0.9963197 0.2683764,0.2713639 -0.054914,-0.053683 0.2432273,0.301915 0.2986125,0.3561596 0.092145,0.096391 0.3147649,0.301915 0.040607,0.037489 0.074132,0.082944 0.1144598,0.1207659 0.022195,0.020817 0.014307,-0.059342 0.014307,-0.060383 0,-0.040255 -0.00223,-0.08058 0,-0.1207659 0.00253,-0.045488 0.010397,-0.090483 0.014307,-0.135862 0.021659,-0.2513629 0.044978,-0.5027189 0.05723,-0.7547874 0.010018,-0.2060991 0.00733,-0.4126873 0.014307,-0.6189258 0.00256,-0.075598 -0.00516,-0.1536306 0.014307,-0.2264362 0.044716,-0.1672754 0.1248195,-0.3216934 0.1859969,-0.4830641 0.00502,-0.013372 0.048309,-0.097854 0.042926,-0.1056704 -0.036395,-0.052844 -0.091206,-0.08837 -0.1368081,-0.1325557"
       id="path6" />
    <path
       style="fill:#9f1bd0;fill-opacity:1;stroke:#000000;stroke-width:0.905007;stroke-linecap:square;stroke-opacity:1"
       d="m 6.1508136,5.1885096 c -0.046908,0.059769 -0.077773,0.1356016 -0.1236101,0.1962447 -0.021828,0.028878 -0.052786,0.046105 -0.074166,0.075479 -0.034369,0.047219 -0.043375,0.1264875 -0.061805,0.1811491 -0.022462,0.066619 -0.047063,0.1322522 -0.074165,0.1962449 -0.03475,0.082048 -0.075224,0.1603084 -0.1112493,0.2415318 -0.017553,0.039574 -0.029912,0.0826 -0.049444,0.1207661 -0.021837,0.042671 -0.052571,0.077911 -0.074166,0.1207659 -0.041706,0.082766 -0.055647,0.1821569 -0.086527,0.2717236 -0.0264,0.076571 -0.1453385,0.325578 -0.1483322,0.3321066 -0.049824,0.1086541 -0.1080836,0.2174156 -0.1483322,0.3321066 -0.027304,0.019606 -0.00456,0.051656 -0.012362,0.075479 -0.00552,0.016846 -0.019504,0.0283 -0.024722,0.045287 -0.00984,0.03204 -0.01778,0.1377931 -0.024723,0.1660533 -0.015391,0.062656 -0.044867,0.1190911 -0.061805,0.1811491 -0.037888,0.1388096 -0.016528,0.075819 -0.037083,0.2264362 -0.00706,0.051712 -0.019718,0.1056701 -0.012362,0.1056701 0.00824,0 6.933e-4,-0.020161 0,-0.030191 -0.00378,-0.055388 -3.9e-4,-0.1124331 -0.01236,-0.166054 C 4.9773485,7.6981309 4.8799629,7.5621573 4.8281843,7.4075851 4.8049916,7.3383497 4.7897013,7.2654149 4.7663791,7.1962444 c -0.00566,-0.016777 -0.020641,-0.027842 -0.024723,-0.045287 -0.00679,-0.02903 0.017481,-0.069226 0,-0.090575 -0.00291,-0.00356 -0.00945,0.00356 -0.01236,0 -0.011654,-0.014232 0.00521,-0.041288 0,-0.060383 -0.012832,-0.047015 -0.033836,-0.090116 -0.049444,-0.1358617 -0.00501,-0.014687 -0.00513,-0.032048 -0.01236,-0.045287 -0.00228,-0.00419 -0.00945,0.00356 -0.01236,0 -0.030331,-0.037041 -0.07996,-0.1378008 -0.098888,-0.1660533 -0.01476,-0.022029 -0.035896,-0.03722 -0.049444,-0.060383 -0.042135,-0.072039 0.023602,-0.038765 -0.049444,-0.1056703 -0.037583,-0.034424 -0.059022,0.089351 -0.086527,0.1358619 -0.1180074,0.1995438 -0.1224352,0.1243677 -0.1977762,0.3773938 -0.026717,0.089726 -0.054022,0.1794732 -0.074167,0.2717233 -0.00979,0.044826 -0.012079,0.092115 -0.024723,0.135862 -0.02747,0.067095 -0.054962,0.1258848 -0.074166,0.1962446 -0.0097,0.035542 -0.00867,0.06646 -0.024723,0.1056704 -0.00921,0.022503 -0.026484,0.038809 -0.037083,0.060383 -0.00424,0.00863 0.00369,0.021191 0,0.030192 -0.027081,0.066145 -0.056236,0.131508 -0.086527,0.1962447 -0.00646,0.013817 -0.02539,0.045287 -0.012362,0.045287 0.017696,0 -0.031348,-0.1949977 -0.037083,-0.2113407 C 3.7859908,7.7840155 3.7445713,7.7556003 3.7280563,7.7095001 3.6841745,7.5870086 3.658361,7.4558025 3.6168072,7.3321063 3.5414827,7.1078828 3.4960412,7.0626549 3.4561139,6.8188507 3.4471878,6.7643507 3.4524005,6.707364 3.4437518,6.6527974 3.4276113,6.5509518 3.3981598,6.452711 3.3819467,6.3508824 3.3692662,6.2712367 3.370254,6.1889119 3.3572248,6.1093504 3.3117044,5.8313942 3.2415169,5.5579793 3.2088926,5.2790842 3.2047731,5.2237332 3.2006535,5.168382 3.1965303,5.1130309 c -0.00824,-0.020127 -0.021108,-0.038317 -0.024723,-0.060383 -0.00485,-0.029605 0,-0.060383 0,-0.090574 0,-0.00503 0.00291,-0.011539 0,-0.015095 -0.00292,-0.00356 -0.016481,0 -0.012361,0 0.031857,0 0.063712,0 0.095568,0"
       id="path7" />
  </g>
</svg>
