<?xml version="1.0" encoding="UTF-8" standalone="no"?>
<svg
   version="1.1"
   width="50"
   height="50"
   id="svg182"
   sodipodi:docname="text:push.svg"
   inkscape:version="1.4 (1:1.4+202410161351+e7c3feb100)"
   xmlns:inkscape="http://www.inkscape.org/namespaces/inkscape"
   xmlns:sodipodi="http://sodipodi.sourceforge.net/DTD/sodipodi-0.dtd"
   xmlns="http://www.w3.org/2000/svg"
   xmlns:svg="http://www.w3.org/2000/svg">
  <defs
     id="defs186">
    <inkscape:perspective
       sodipodi:type="inkscape:persp3d"
       inkscape:vp_x="0 : 25 : 1"
       inkscape:vp_y="0 : 1000 : 0"
       inkscape:vp_z="50 : 25 : 1"
       inkscape:persp3d-origin="25 : 16.666667 : 1"
       id="perspective8440" />
  </defs>
  <sodipodi:namedview
     id="namedview184"
     pagecolor="#ffffff"
     bordercolor="#999999"
     borderopacity="1"
     inkscape:showpageshadow="0"
     inkscape:pageopacity="0"
     inkscape:pagecheckerboard="0"
     inkscape:deskcolor="#d1d1d1"
     showgrid="true"
     inkscape:zoom="11.498248"
     inkscape:cx="26.917144"
     inkscape:cy="29.178358"
     inkscape:window-width="1854"
     inkscape:window-height="1011"
     inkscape:window-x="66"
     inkscape:window-y="32"
     inkscape:window-maximized="1"
     inkscape:current-layer="svg182">
    <inkscape:grid
       type="xygrid"
       id="grid6448"
       originx="0"
       originy="0"
       spacingy="1"
       spacingx="1"
       units="px" />
  </sodipodi:namedview>
  <rect
     style="fill:#5649a4;fill-opacity:1;stroke-width:3.77953"
     id="rect24346"
     width="50"
     height="50"
     x="0"
     y="0" />
  <path
     style="fill:none;fill-opacity:1;stroke:#000000;stroke-width:4.27671;stroke-linecap:square;stroke-opacity:1"
     d="m 5.4583877,22.344458 c 0.3988455,-0.538462 0.9267469,-1.05804 1.1965367,-1.615389 0.048354,-0.0999 -0.251602,-0.173842 -0.2812481,-0.275474 -0.280839,-0.962755 0,-2.053234 0,-3.030209 0,-2.938384 0,-5.876769 0,-8.8151532 0,-0.1755135 -0.4996764,-2.1275817 -0.2812483,-2.341525 C 6.2435945,6.1186452 6.7720165,6.1359413 6.9361727,5.9912342 8.2349482,4.8463364 6.506679,5.1663067 8.6236618,4.7516033 12.717672,3.9496132 11.179723,4.2006562 16.217364,4.2006562 c 0.937493,0 1.902979,-0.1113535 2.812481,0 0.582366,0.071301 0.792014,0.4440762 1.124993,0.6886839 2.956287,2.1716909 3.839027,3.9530558 1.406241,6.3358909 -0.200929,0.196805 -0.616418,1.04623 -1.406241,1.239631 -1.492899,0.365562 -7.573329,1.160979 -9.281191,0.826422 -0.313842,-0.06148 -0.529902,-0.213995 -0.843744,-0.275475 -0.6844072,-0.13407 -3.8612786,0 -4.5715153,0"
     id="path1" />
  <path
     style="fill:none;fill-opacity:1;stroke:#000000;stroke-width:4.51199;stroke-linecap:square;stroke-opacity:1"
     d="m 44.974833,4.9672916 c -0.383093,0.303827 -1.434683,0.5036597 -1.149279,0.911481 0.285404,0.4078213 1.149279,-1.4200369 1.149279,-0.911481 0,0.716808 -0.844597,1.1292353 -1.149279,1.7684623 -0.276304,0.5796892 0.115942,0.6171262 0.201255,1.0712267 0.122575,0.6524386 0.157144,4.1469644 0,4.9276414 -0.120097,0.596627 -0.402509,1.142642 -0.603764,1.713963 -0.917848,2.605587 -2.701952,8.013686 -5.83638,8.569813 -1.257461,0.223104 -2.725593,-0.330585 -3.622581,-1.285473 -0.30374,-0.323346 -0.481747,-0.770105 -0.805018,-1.071226 -0.648575,-0.604135 -1.506754,-0.638214 -2.012545,-1.499717 -0.518773,-0.883614 -0.76891,-2.065576 -1.207527,-2.999435 -0.41679,-0.887388 -1.050331,-1.655131 -1.408781,-2.570943 -0.52005,-1.328682 -1.54698,-6.8313799 -0.910935,-8.6243124"
     id="path2" />
  <path
     style="fill:none;fill-opacity:1;stroke:#000000;stroke-width:3.77953;stroke-linecap:square;stroke-opacity:1"
     d="m 5,45 c 3.637606,0.715308 7.102259,-0.375504 10.654559,-0.993295 0.502081,-0.08732 1.256194,0.181201 1.739396,0 0.725999,-0.27225 3.577275,-1.283233 4.000609,-1.565456 0.347879,-0.231919 0.474166,-0.68909 0.695758,-1.043637 0.726938,-1.1631 -0.527651,-2.227937 -1.043637,-3.130912 -0.219076,-0.383383 -0.200274,-0.914946 -0.521819,-1.217577 -0.702696,-0.661361 -1.586657,-1.105853 -2.435153,-1.565456 -2.647679,-1.434159 -4.762948,-0.219032 -7.479401,0.521819 -0.976895,0.266426 -1.9656814,0.489239 -2.956972,0.695758 -0.05108,0.01064 -2.3884491,0.545171 -2.4351536,0.521819 -0.4196087,-0.209805 -0.656753,-4.58252 -0.5218187,-5.392126 0.1644654,-0.986792 2.2096593,-3.488803 3.1309119,-4.00061 0.8958812,-0.497711 2.0499539,-0.466578 2.9569724,-0.869697 0.264913,-0.11774 0.420735,-0.430145 0.695758,-0.521819 0.126042,-0.04201 2.373145,-0.241353 2.609093,-0.17394 0.517947,0.01483 0.774116,0.547938 1.217577,0.695759 1.359619,0.453206 2.326735,0.182129 3.65273,0.347879 0.434167,0.05427 0.875401,0.293701 1.217577,0.521818 0.378273,0.252182 0.647683,0.17394 -0.176987,0.17394"
     id="path3" />
  <path
     style="fill:none;fill-opacity:1;stroke:#000000;stroke-width:3.77953;stroke-linecap:square;stroke-opacity:1"
     d="m 45,25 c -0.215139,0.595563 -0.447416,1.185211 -0.645416,1.78669 -0.348851,1.059731 0.43236,3.185522 0.521819,4.348489 0.208422,2.709492 -0.193623,5.464444 0,8.175158 0.02653,0.371409 0.173939,0.655388 0.173939,1.043638 0,1.322093 -0.103717,0.210666 0.17394,1.043637 0.209049,0.627147 0,2.658257 0,3.304851 0,0.11596 0.0698,0.255281 0,0.347879 C 45.178161,45.111527 45.074761,45.016781 45,45"
     id="path4" />
  <path
     style="fill:none;fill-opacity:1;stroke:#000000;stroke-width:3.77953;stroke-linecap:square;stroke-opacity:1"
     d="m 25,25 c 1.301978,2.536805 0.903547,0.985065 0.743053,3.873965 -0.03507,0.63133 0,1.278734 0,1.913335 0,1.402349 0.45534,1.982555 0.695758,3.304851 0.126178,0.693978 0.284019,1.384816 0.347879,2.087275 0.02625,0.288708 -0.07031,0.588454 0,0.869697 0.151186,0.604745 0.456149,0.560877 0.521819,1.217577 0.109615,1.09615 -0.06111,2.20493 0,3.304851 0.01956,0.352135 0.124063,0.694505 0.173939,1.043638 0.09389,0.657264 0,1.433303 0,2.087274 0,0.2899 0,0.579799 0,0.869698 0,0.11596 0,0.463839 0,0.347879 0,-0.30668 0,-0.61336 0,-0.92004"
     id="path5" />
  <path
     style="fill:none;fill-opacity:1;stroke:#000000;stroke-width:3.77953;stroke-linecap:square;stroke-opacity:1"
     d="m 26.438811,34.092151 c 0.289899,0.231919 0.637778,0.985657 0.869698,0.695758 0.231919,-0.289899 -1.24095,-0.695758 -0.869698,-0.695758 0.678637,0 1.269524,0.481154 1.913335,0.695758 0.480324,0.160108 2.796788,-0.617594 3.304851,-0.695758 0.352743,-0.05427 1.34129,-0.08847 1.739396,0 0.412048,0.09157 0.798736,0.295524 1.217577,0.347879 0.517789,0.06472 1.044487,-0.02977 1.565456,0 1.509467,0.08626 3.013635,0.250538 4.522428,0.347879 0.405017,0.02613 0.832545,0.128344 1.217577,0 0.296208,-0.09874 0.584377,-0.22107 0.869697,-0.347879 0.236946,-0.105309 0.444402,-0.411543 0.695758,-0.347879 C 44.055626,34.236708 44.494962,34.697384 45,35"
     id="path6" />
</svg>
