<?xml version="1.0" encoding="UTF-8" standalone="no"?>
<!-- Created with Inkscape (http://www.inkscape.org/) -->

<svg
   width="50"
   height="50"
   viewBox="0 0 13.229166 13.229167"
   version="1.1"
   id="svg5"
   inkscape:version="1.2.2 (b0a8486541, 2022-12-01)"
   sodipodi:docname="text:moveright.svg"
   xmlns:inkscape="http://www.inkscape.org/namespaces/inkscape"
   xmlns:sodipodi="http://sodipodi.sourceforge.net/DTD/sodipodi-0.dtd"
   xmlns="http://www.w3.org/2000/svg"
   xmlns:svg="http://www.w3.org/2000/svg">
  <sodipodi:namedview
     id="namedview7"
     pagecolor="#ffffff"
     bordercolor="#999999"
     borderopacity="1"
     inkscape:showpageshadow="0"
     inkscape:pageopacity="0"
     inkscape:pagecheckerboard="0"
     inkscape:deskcolor="#d1d1d1"
     inkscape:document-units="mm"
     showgrid="true"
     inkscape:zoom="15.415727"
     inkscape:cx="13.265673"
     inkscape:cy="26.077264"
     inkscape:window-width="1366"
     inkscape:window-height="731"
     inkscape:window-x="0"
     inkscape:window-y="0"
     inkscape:window-maximized="1"
     inkscape:current-layer="layer1">
    <inkscape:grid
       type="xygrid"
       id="grid132" />
  </sodipodi:namedview>
  <defs
     id="defs2" />
  <g
     inkscape:label="Layer 1"
     inkscape:groupmode="layer"
     id="layer1">
    <rect
       style="fill:#007a00;fill-opacity:1;stroke:none;stroke-width:0.6;stroke-opacity:1"
       id="rect4080"
       width="7.9375"
       height="7.9375005"
       x="0"
       y="2.6458333" />
    <path
       style="fill:#007a00;fill-opacity:1;stroke:none;stroke-width:1.41421;stroke-dasharray:none;stroke-opacity:1"
       d="M 7.9375,0 13.229167,6.6145832 7.9375,13.229167"
       id="path29368" />
    <path
       style="fill:none;stroke:#000000;stroke-width:0.883006;stroke-linecap:square;stroke-opacity:1"
       d="M 0.72313519,6.0458316 C 0.6155997,5.0107191 0.38795136,4.1342529 0.96720569,3.3491306 1.3447569,3.1304264 1.7043256,3.1866928 2.1105555,3.2966759 2.6315092,3.4238958 2.95173,3.83464 2.9534402,4.2837727"
       id="path991"
       sodipodi:nodetypes="cccc" />
    <path
       style="fill:none;stroke:#000000;stroke-width:0.883006;stroke-linecap:square;stroke-opacity:1"
       d="m 3.96875,3.4395833 0,0.2645834"
       id="path995"
       sodipodi:nodetypes="cc" />
    <path
       style="fill:none;stroke:#000000;stroke-width:0.883006;stroke-linecap:square;stroke-opacity:1"
       d="m 3.96875,5.0270833 c 0,0.5291667 0.00608,0.6821609 0,1.0583334"
       id="path999"
       sodipodi:nodetypes="cc" />
    <path
       style="fill:none;stroke:#000000;stroke-width:0.883006;stroke-linecap:square;stroke-opacity:1"
       d="M 7.4083333,3.96875 C 6.1002127,3.618688 5.6867341,3.6634079 5.4055634,4.7730094 c 0.00722,0.6077946 0.00865,1.6045847 0.6972178,1.6395014 0.6322101,0.00101 1.0124596,0.00549 1.2377634,-0.4881458 C 7.2198418,5.4532506 6.9947635,5.1710501 6.6510675,5.1293168"
       id="path1003"
       sodipodi:nodetypes="ccccc" />
    <path
       style="fill:none;stroke:#000000;stroke-width:0.966215;stroke-linecap:square;stroke-opacity:1"
       d="M 2.8145833,10.026715 C 2.7486059,9.3444657 2.9147157,8.5169994 2.1166667,8.4666667 0.98253517,8.5669391 1.2730284,9.9161741 1.1907131,10.34818 c 0,-1.3229171 -0.071395,-2.8183974 -0.012364,-3.1972734"
       id="path1005"
       sodipodi:nodetypes="cccc" />
    <path
       style="fill:none;stroke:#000000;stroke-width:0.834365;stroke-linecap:square;stroke-opacity:1"
       d="m 5.7678653,7.7494245 c 0.052968,0.9818255 6.578e-4,1.5649272 9.59e-4,2.3491895"
       id="path1007"
       sodipodi:nodetypes="cc" />
    <path
       style="fill:none;stroke:#000000;stroke-width:0.834365;stroke-linecap:square;stroke-opacity:1"
       d="M 4.2333333,7.6729167 C 5.2325668,7.5676339 6.0829587,7.59396 6.9620009,7.5919964"
       id="path1009"
       sodipodi:nodetypes="cc" />
  </g>
</svg>
