<?xml version="1.0" encoding="UTF-8" standalone="no"?>
<!-- Created with Inkscape (http://www.inkscape.org/) -->

<svg
   width="50"
   height="50"
   viewBox="0 0 13.229166 13.229167"
   version="1.1"
   id="svg5"
   inkscape:version="1.2.2 (b0a8486541, 2022-12-01)"
   sodipodi:docname="text:wall.svg"
   xmlns:inkscape="http://www.inkscape.org/namespaces/inkscape"
   xmlns:sodipodi="http://sodipodi.sourceforge.net/DTD/sodipodi-0.dtd"
   xmlns="http://www.w3.org/2000/svg"
   xmlns:svg="http://www.w3.org/2000/svg">
  <sodipodi:namedview
     id="namedview7"
     pagecolor="#ffffff"
     bordercolor="#999999"
     borderopacity="1"
     inkscape:showpageshadow="0"
     inkscape:pageopacity="0"
     inkscape:pagecheckerboard="0"
     inkscape:deskcolor="#d1d1d1"
     inkscape:document-units="mm"
     showgrid="true"
     inkscape:zoom="6.609479"
     inkscape:cx="5.6736696"
     inkscape:cy="25.41804"
     inkscape:window-width="1366"
     inkscape:window-height="731"
     inkscape:window-x="0"
     inkscape:window-y="0"
     inkscape:window-maximized="1"
     inkscape:current-layer="layer1">
    <inkscape:grid
       type="xygrid"
       id="grid132" />
  </sodipodi:namedview>
  <defs
     id="defs2" />
  <g
     inkscape:label="Layer 1"
     inkscape:groupmode="layer"
     id="layer1">
    <rect
       style="fill:#ffffff;stroke:#000000;stroke-width:0;stroke-dasharray:none"
       id="rect483"
       width="13.229166"
       height="13.229166"
       x="0"
       y="0" />
    <path
       style="fill:none;fill-opacity:1;stroke:#000000;stroke-width:1;stroke-dasharray:none;stroke-opacity:1"
       d="m 0,3.96875 c 0.19426449,0.2223383 0.46275947,0.3972652 0.58279347,0.6670148 0.0870942,0.1957247 0,0.4284557 0,0.6426835 0,0.2705737 0.026546,0.5256609 0.0484749,0.7934245 0.0233283,0.2848523 0.0127466,0.5730719 0.0370598,0.8586314 0.0313118,0.3677579 0.0914548,0.7284307 0.15230501,1.0917801 0.0481462,0.287491 0.0919188,0.551066 0.21250772,0.8168804 0.042532,0.093753 0.2326187,0.5435986 0.3935849,0.5033571 0.024222,-0.00606 0.02041,-0.1202878 0.017357,-0.1385443 C 1.4016621,8.9503111 1.2343236,8.7684739 1.2573766,8.4948365 1.2834931,8.1848342 1.4072901,7.8788711 1.4661314,7.5733441 1.5650142,7.0599056 1.5467982,7.0842647 1.6317279,6.6082243 1.6593084,6.453633 1.6915552,6.2999016 1.7194519,6.1453672 1.8641284,5.3439287 2.0314114,4.5665628 2.0314114,3.7482049 c 0,-3.968e-4 3.201e-4,-0.080844 -0.00579,-0.080844 -0.00498,0 0.030338,0.1527046 0.082251,0.3382299 0.2325383,0.8310419 0.4429327,1.6718174 0.7125811,2.4912973 0.067295,0.2045139 0.1452504,0.4056028 0.2064091,0.6120347 0.1365409,0.4608729 0.1943073,0.9418431 0.3127415,1.4067107 0.017664,0.06933 0.058981,0.5602676 0.1899904,0.507579 0.041108,-0.016534 0.075039,-0.3011164 0.087098,-0.3594962 C 3.6845765,8.335076 3.7482415,8.0055663 3.817316,7.6771739 4.0357727,6.6385942 4.2397188,5.655044 4.5222351,4.642332 4.6129231,4.3172498 4.6558928,3.8361185 4.6822021,3.4984806 c 0.00412,-0.052855 0,-0.1083702 0,-0.1615308 0,-0.01646 -0.028671,-0.034481 -0.017201,-0.046286 0.2088643,-0.2149699 0.4177785,-0.429887 0.6266655,-0.6448305"
       id="path12157" />
    <path
       style="fill:none;fill-opacity:1;stroke:#000000;stroke-width:1;stroke-dasharray:none;stroke-opacity:1"
       d="M 6.6145832,6.6145832 C 5.7054942,7.0192402 5.5179724,6.952617 5.0293497,8.1752148 4.9432873,8.3905541 5.0652118,8.6395339 5.11895,8.8651222 5.136484,8.9387287 5.1968352,8.9949754 5.2395119,9.0574581 5.514723,9.4603918 6.2739145,9.362256 6.6071297,9.1060893 6.81698,8.9447623 6.9652273,7.6087154 6.9669387,7.5985197 7.0148121,7.3133105 7.0842165,6.9951647 7.0842165,6.6987628 c 0,-0.032326 -0.0087,-0.2885038 -0.017201,-0.2885038 -0.00485,0 0.00456,0.05752 0.01814,0.1871758 0.021831,0.2084417 0.013399,0.2045957 0.077404,0.4817779 0.1309434,0.5670582 0.3194452,1.1111087 0.5052335,1.6617511 0.1114729,0.3303844 0.069111,0.1892652 0.1723205,0.4634828 0.1031883,0.2741612 -0.00795,-0.00572 0.060828,0.1663782 0.00451,0.011282 0.01157,0.046706 0.01157,0.034558 0,-0.05782 0.00739,-0.075349 0.024987,-0.1449663"
       id="path12159" />
    <path
       style="fill:none;fill-opacity:1;stroke:#000000;stroke-width:1;stroke-dasharray:none;stroke-opacity:1"
       d="M 9.2604166,10.583333 C 8.3316211,7.3832052 8.7754739,9.5931343 9.0710622,4.1450736 c 0.00983,-0.1810981 0,-0.3747831 0,-0.5601198 0,-0.036997 -0.020116,-0.197916 -0.00579,-0.219388 C 9.2942205,3.0225378 9.2446389,3.242815 9.2604166,2.6458333"
       id="path12161" />
    <path
       style="fill:none;fill-opacity:1;stroke:#000000;stroke-width:1;stroke-dasharray:none;stroke-opacity:1"
       d="m 10.583333,2.6458333 c 1.007476,2.3021417 0.689359,1.2648438 1.237038,4.4801342 0.02768,0.4322115 0.0086,0.4585983 0.07005,0.7693438 0.01121,0.056697 0.01611,0.1054108 0.02314,0.1615308 0.0017,0.01393 0.01286,0.054481 0.01157,0.0405 -0.0049,-0.053426 -0.01259,-0.1065615 -0.01889,-0.1598422"
       id="path12163" />
  </g>
</svg>
