<?xml version="1.0" encoding="UTF-8" standalone="no"?>
<!-- Created with Inkscape (http://www.inkscape.org/) -->

<svg
   width="50"
   height="50"
   viewBox="0 0 13.229166 13.229167"
   version="1.1"
   id="svg5"
   inkscape:version="1.2.2 (b0a8486541, 2022-12-01)"
   sodipodi:docname="text:kill.svg"
   xmlns:inkscape="http://www.inkscape.org/namespaces/inkscape"
   xmlns:sodipodi="http://sodipodi.sourceforge.net/DTD/sodipodi-0.dtd"
   xmlns="http://www.w3.org/2000/svg"
   xmlns:svg="http://www.w3.org/2000/svg">
  <sodipodi:namedview
     id="namedview7"
     pagecolor="#ffffff"
     bordercolor="#999999"
     borderopacity="1"
     inkscape:showpageshadow="0"
     inkscape:pageopacity="0"
     inkscape:pagecheckerboard="0"
     inkscape:deskcolor="#d1d1d1"
     inkscape:document-units="mm"
     showgrid="true"
     inkscape:zoom="20.624905"
     inkscape:cx="26.206182"
     inkscape:cy="42.763834"
     inkscape:window-width="1366"
     inkscape:window-height="731"
     inkscape:window-x="0"
     inkscape:window-y="0"
     inkscape:window-maximized="1"
     inkscape:current-layer="layer1">
    <inkscape:grid
       type="xygrid"
       id="grid132" />
  </sodipodi:namedview>
  <defs
     id="defs2" />
  <g
     inkscape:label="Layer 1"
     inkscape:groupmode="layer"
     id="layer1">
    <rect
       style="fill:#000000;fill-opacity:1;stroke:none;stroke-width:1;stroke-dasharray:none;stroke-opacity:1"
       id="rect33997"
       width="13.229166"
       height="13.229166"
       x="0"
       y="0" />
    <path
       style="fill:none;fill-opacity:1;stroke:#d40000;stroke-width:1;stroke-dasharray:none;stroke-opacity:1"
       d="M 5.2916666,1.3229166 C 4.7780262,1.6621128 4.2600922,1.9948945 3.7507457,2.3405051 3.3567137,2.6078707 2.7905143,3.1085919 2.3361017,3.3290089 1.5968924,3.6508189 2.0725024,3.4325681 1.4369455,3.7471945 c -0.014329,0.00709 -0.10595,0.04912 -0.1322456,0.057245 -0.00525,0.00161 -0.019511,0.00138 -0.015625,0.00525 0.053495,0.053495 0.8007333,0.4064455 0.8744401,0.4438962 0.5736599,0.2914793 1.1868635,0.4673714 1.7910681,0.6812566 0.2502578,0.08859 0.4896115,0.2172732 0.7390696,0.309804 0.9457566,0.3508071 -0.1047353,-0.059187 0.4217369,0.1497174 0.036912,0.014647 0.061535,0.027666 0.094319,0.04716 0.00639,0.0038 0.01293,0.022638 0.015767,0.015767 0.022683,-0.054957 0.044128,-0.110418 0.066192,-0.1656278"
       id="path35824" />
    <path
       style="fill:none;fill-opacity:1;stroke:#d40000;stroke-width:1;stroke-dasharray:none;stroke-opacity:1"
       d="m 1.3229166,1.3229166 c -0.00366,0.2694039 -0.026554,0.5392338 -0.010972,0.8082116 0.052215,0.9013725 0.1290602,1.8013077 0.2142066,2.7001676 0.012941,0.1366126 0.058029,0.1721073 0.073864,0.2751447 0.024273,0.1579322 0.01496,0.3110199 0.021307,0.4691806 0.00995,0.2480601 0.010511,0.4959324 0.010511,0.7446092 0,0.141705 0.00758,0.314524 0.00526,0.3144917 C 1.5321642,6.633262 1.4276447,6.621296 1.3229204,6.614583"
       id="path35826" />
    <path
       style="fill:none;fill-opacity:1;stroke:#d40000;stroke-width:1;stroke-dasharray:none;stroke-opacity:1"
       d="m 6.6145832,1.3229166 c 1.0128314,0.2655267 0.5033889,0.2527008 1.0732739,0.1688589 0.3735403,-0.054956 0.7643069,-0.071456 1.1370844,-0.1115067 0.3091717,-0.033217 0.6265889,-0.07181 0.9392137,-0.048722 0.2461988,0.018182 0.4583788,0.094177 0.7041258,0.094177 0.233395,0 0.469823,0.00446 0.701853,-0.025284 0.130519,-0.016732 0.258932,-0.0531 0.391055,-0.062217 0.129427,-0.00893 0.263468,0 0.393328,0 0.04724,0 0.09397,0.00526 0.141478,0.00526 0.01222,0 0.04881,0.00116 0.03665,0 -0.07543,-0.00718 -0.150929,-0.013708 -0.226393,-0.020562"
       id="path35891" />
    <path
       style="fill:none;fill-opacity:1;stroke:#d40000;stroke-width:1;stroke-dasharray:none;stroke-opacity:1"
       d="M 6.6145832,6.6145832 C 6.9149541,6.5674604 7.212577,6.4969233 7.5156961,6.4732148 9.2019547,6.3413232 10.032298,6.1491539 11.356074,6.3185259 c 0.163812,0.02096 0.318607,0.04929 0.485516,0.04929 0.01903,0 0.335499,0.029491 0.314491,0.047159 -0.08158,0.06861 -0.166554,0.1330719 -0.249831,0.1996077"
       id="path35893" />
    <path
       style="fill:none;fill-opacity:1;stroke:#d40000;stroke-width:1;stroke-dasharray:none;stroke-opacity:1"
       d="M 9.2604166,1.3229166 C 9.0782557,2.3735827 9.5047481,-0.11835997 9.138723,4.0511748 9.0913303,4.5910425 8.8525926,5.1786805 8.8757944,5.7490603 c 0.00254,0.062739 -0.016259,0.4134318 0.03679,0.4664815 C 9.0141792,6.3171366 8.41455,5.6422739 9.2604166,6.6145832"
       id="path35895" />
    <path
       style="fill:none;fill-opacity:1;stroke:#d40000;stroke-width:1;stroke-dasharray:none;stroke-opacity:1"
       d="m 1.3229166,7.9374999 c -0.018201,1.8065774 -0.00546,-0.9683041 0.058631,1.6499491 0.00816,0.3333286 -0.030676,0.715469 -0.04233,1.048163 -0.00794,0.226726 0.030298,0.436809 0.048864,0.659097 0.015229,0.182332 -0.00526,0.368953 -0.00526,0.551426 0,0.02668 0.02044,-0.05234 0.041904,-0.06818 0.091124,-0.06726 0.1486089,-0.09651 0.2721616,-0.126848 0.3413918,-0.08383 0.6505691,-0.114147 1.0072537,-0.100995 0.4730171,0.01744 0.9374074,0.123473 1.4103829,0.146734 0.2318644,0.0114 1.0468144,0.0032 1.0544132,0.01392 0.044477,0.06278 0.081817,0.130324 0.1227257,0.195486"
       id="path35897" />
    <path
       style="fill:none;fill-opacity:1;stroke:#d40000;stroke-width:1;stroke-dasharray:none;stroke-opacity:1"
       d="M 6.821229,7.7483726 C 6.7330431,8.1744433 6.5226425,8.5928165 6.5566711,9.026585 c 0.062856,0.8012337 0.3617071,1.566185 0.5490109,2.34775 0.032119,0.134022 0.077815,0.152733 0.038068,0.267332 -0.00746,0.02152 -0.1172919,0.203165 -0.084092,0.236366 0.021606,0.02161 0.8050461,-0.09838 0.9906344,-0.130115 0.3582881,-0.06126 0.7972515,-0.183177 1.1693296,-0.155825 0.179816,0.01322 0.336534,0.134544 0.516766,0.146592 0.117102,0.0078 0.19908,-0.04974 0.309235,-0.06818 0.252658,-0.0423 0.514986,0.0241 0.744355,0.04662"
       id="path35899" />
  </g>
</svg>
