<?xml version="1.0" encoding="UTF-8" standalone="no"?>
<svg
   version="1.1"
   width="50"
   height="50"
   id="svg182"
   sodipodi:docname="text:rock.svg"
   inkscape:version="1.4 (1:1.4+202410161351+e7c3feb100)"
   xmlns:inkscape="http://www.inkscape.org/namespaces/inkscape"
   xmlns:sodipodi="http://sodipodi.sourceforge.net/DTD/sodipodi-0.dtd"
   xmlns="http://www.w3.org/2000/svg"
   xmlns:svg="http://www.w3.org/2000/svg">
  <defs
     id="defs186">
    <inkscape:perspective
       sodipodi:type="inkscape:persp3d"
       inkscape:vp_x="0 : 25 : 1"
       inkscape:vp_y="0 : 1000 : 0"
       inkscape:vp_z="50 : 25 : 1"
       inkscape:persp3d-origin="25 : 16.666667 : 1"
       id="perspective8440" />
  </defs>
  <sodipodi:namedview
     id="namedview184"
     pagecolor="#ffffff"
     bordercolor="#999999"
     borderopacity="1"
     inkscape:showpageshadow="0"
     inkscape:pageopacity="0"
     inkscape:pagecheckerboard="0"
     inkscape:deskcolor="#d1d1d1"
     showgrid="true"
     inkscape:zoom="11.498248"
     inkscape:cx="31.439572"
     inkscape:cy="32.135331"
     inkscape:window-width="1854"
     inkscape:window-height="1011"
     inkscape:window-x="66"
     inkscape:window-y="32"
     inkscape:window-maximized="1"
     inkscape:current-layer="svg182">
    <inkscape:grid
       type="xygrid"
       id="grid6448"
       originx="0"
       originy="0"
       spacingy="1"
       spacingx="1"
       units="px" />
  </sodipodi:namedview>
  <rect
     style="fill:#198826;fill-opacity:1;stroke-width:3.77953"
     id="rect24346"
     width="50"
     height="50"
     x="0"
     y="0" />
  <path
     style="fill:none;fill-opacity:1;stroke:#000000;stroke-width:3.77953;stroke-linecap:square"
     d="M 5.475743,22.650292 C 5.0052496,21.026814 5.1721107,19.326263 5.1721107,17.653339 c 0,-1.214633 0.1163827,-2.836782 0,-4.000609 -0.047574,-0.475741 -0.300305,-0.915775 -0.3478791,-1.391516 -0.015759,-0.15759 -0.1453516,-4.6808682 0,-5.0442472 0.12181,-0.304525 0.498968,-0.4333713 0.6957581,-0.6957581 C 5.675566,6.3137737 5.6845204,6.0087989 5.8678688,5.8254505 6.7280181,4.9653012 9.3785333,4.0117998 10.564236,3.738176 c 2.199008,-0.5074633 0.382292,-0.00382 1.913335,-0.1739395 0.542837,-0.060315 3.028041,-0.6698438 3.478791,-0.3478791 0.275105,0.1965036 0.318972,0.5992355 0.521819,0.8696977 0.182636,0.2435153 1.109348,1.0281759 1.217577,1.2175768 0.0863,0.1510218 0,0.3478791 0,0.5218186 C 17.695758,7.3090458 17.606498,8.584824 17,10 c -0.149621,0.349114 -1.667296,3.207291 -2.261214,3.65273 -0.09277,0.06958 -0.244162,-0.05186 -0.34788,0 -0.674674,0.337337 0.02812,0.452756 -0.869697,0.521819 -0.578091,0.04447 -1.159597,0 -1.739396,0 -0.231919,0 -0.531766,-0.163992 -0.695758,0 -0.041,0.041 0.05186,0.14801 0,0.173939 -0.469601,0.234801 -1.077978,-0.02105 -1.5654558,0.17394 -0.2283938,0.09136 -0.3171445,0.385369 -0.5218186,0.521818 -0.5286075,0.352405 -2.4986608,0.759266 -2.7830327,1.043638 -0.1833484,0.183348 0.1645307,0.512409 0.3478791,0.695758 1.0469723,1.046972 2.195984,0.999065 3.65273,1.217576 2.006066,0.30091 4.014709,0.679304 5.913945,1.391517 1.270147,0.476305 -0.406238,-0.336549 1.565456,1.043637 0.212421,0.148695 0.498887,0.179133 0.695758,0.347879 0.422494,0.362138 0.663853,1.011733 1.043637,1.391517 0.041,0.041 0.121186,-0.02406 0.17394,0 0.299665,0.136651 0.577767,0.316349 0.86665,0.474524"
     id="path1" />
  <path
     style="fill:none;fill-opacity:1;stroke:#000000;stroke-width:3.77953;stroke-linecap:square"
     d="m 20.366455,27.971583 c -0.301705,0.01607 -0.921191,-0.253485 -0.905117,0.04822 0.01607,0.301706 1.195888,-0.130293 0.905117,-0.04822 -2.576695,0.72733 -4.556897,0.09386 -7.190868,0.09636 C 11.954553,28.069143 10.070756,28.616444 9,29 c -0.2315786,0.08296 -0.407531,0.280646 -0.6324384,0.380278 -0.382269,0.169343 -0.8044759,0.24086 -1.1808229,0.422984 -0.05219,0.02526 0.012557,0.149233 -0.042027,0.168786 -0.1726083,0.06183 -0.3912536,-0.05178 -0.5483846,0.04271 -0.4582525,0.275542 -0.1865469,0.467727 -0.3789199,0.801903 -1.4910952,2.590228 -2.5117663,4.340151 -1.8912033,7.59537 0.3303004,1.732622 0.7819877,3.613929 1.7766669,5.102891 0.8702286,1.302669 5.7083592,2.513813 7.0476642,2.65108 0.04308,0.0044 4.341745,-1.514209 4.934106,-1.818693 0.185924,-0.09557 0.309101,-0.281536 0.463652,-0.422305 0.214323,-0.19521 0.519056,-0.304339 0.674465,-0.549063 0.271596,-0.427688 -0.21939,-0.558694 -0.283383,-0.30169"
     id="path3" />
  <path
     style="fill:#5649a4;fill-opacity:1;stroke:#000000;stroke-width:3.77953;stroke-linecap:square"
     d="m 28.995734,45.741224 c -0.201406,-0.34788 -0.500447,-0.655288 -0.604217,-1.043638 -0.284385,-1.064277 0.121653,-2.209972 0,-3.304851 -0.155787,-1.402082 -0.447769,-2.785807 -0.695758,-4.174549 -0.04202,-0.235334 -0.159902,-0.457114 -0.17394,-0.695758 -0.04426,-0.752438 0.0864,-1.512444 0,-2.261214 C 27.433149,33.492765 27.132541,32.762108 27,32 26.703675,30.29613 26.652121,28.669644 26.652121,26.955753"
     id="path4" />
  <path
     style="fill:none;fill-opacity:1;stroke:#000000;stroke-width:3.77953;stroke-linecap:square"
     d="m 42.740005,24.824842 c -0.848352,0.424175 -0.05539,-0.104709 -0.695758,0.695758 -0.130592,0.16324 -0.387989,0.187283 -0.521819,0.347879 -0.331992,0.39839 -0.420907,0.951755 -0.695758,1.391516 -0.153646,0.245834 -0.347879,0.463839 -0.521819,0.695758 -0.231919,0.17394 -0.534951,0.280608 -0.695758,0.521819 -0.203407,0.30511 -0.176306,0.719555 -0.347879,1.043637 C 39.191154,29.653543 37.231664,32.722003 37,33 c -0.68871,0.826451 -2.187082,2.193139 -3.130912,2.783033 -0.374443,0.234027 -0.862588,0.259217 -1.217577,0.521818 -0.675642,0.499803 -1.220624,1.155534 -1.830936,1.733301 3.169427,0.697892 5.981765,2.447397 8.788518,4.006704 0.707103,0.392835 1.71192,1.167223 2.609093,1.391517 0.168746,0.04219 0.351257,-0.03411 0.521819,0 0.482405,0.09648 0.821895,0.576003 1.391516,0.347879 0.571383,-0.22883 1.126036,-0.4974 1.689054,-0.7461"
     id="path5" />
  <path
     style="fill:none;fill-opacity:1;stroke:#000000;stroke-width:3.77953;stroke-linecap:square"
     d="m 33.473915,5.171502 c 0.161222,0.1596985 0.292831,0.356303 0.483667,0.4790956 0.07314,0.04706 0.176536,-0.021093 0.260909,0 0.329187,0.082297 0.63827,0.2305749 0.956668,0.3478791 1.780581,0.6560036 5.489542,2.0211992 6.435763,3.9136397 0.292606,0.5852126 0.09848,0.1117126 0.260909,0.8696976 0.374819,1.749154 0.282669,3.456892 0.08697,5.218186 -0.06926,0.623334 -0.07438,1.739282 -0.695758,2.174245 -0.956688,0.669681 -4.222165,1.988723 -5.131217,2.174244 C 34.5009,20.681331 34.728241,20.420059 33.609703,20.00061 32.9487,19.752734 32.277343,19.533359 31.609398,19.304852 30.347257,18.873067 28.542986,18.382837 27.695758,17.304547 27.535561,17.10066 27.4699,16.837577 27.347879,16.608789 27.237891,16.402562 27.0808,16.219314 27,16 c -0.433966,-1.177907 -0.349852,-2.507242 -0.434849,-3.7397 -0.0336,-0.487205 -0.211111,-2.4604079 -0.08697,-2.956972 0.07861,-0.3144399 0.2899,-0.5797985 0.434849,-0.8696977 0.11596,-0.2319194 0.17806,-0.4998127 0.347879,-0.6957582 0.216478,-0.2497824 0.516628,-0.4127148 0.782728,-0.6087884 0.768065,-0.5659427 1.485297,-1.0080108 2.348184,-1.3915163 0.118473,-0.052655 0.21937,-0.156805 0.347879,-0.1739396 0.384213,-0.051228 1.412584,0.120842 1.826365,0 0.316421,-0.092409 0.605233,-0.2614172 0.90785,-0.3921258 z"
     id="path6" />
</svg>
