<?xml version="1.0" encoding="UTF-8" standalone="no"?>
<!-- Created with Inkscape (http://www.inkscape.org/) -->

<svg
   width="50"
   height="50"
   viewBox="0 0 13.229166 13.229167"
   version="1.1"
   id="svg5"
   inkscape:version="1.2.2 (b0a8486541, 2022-12-01)"
   sodipodi:docname="text:lump.svg"
   xmlns:inkscape="http://www.inkscape.org/namespaces/inkscape"
   xmlns:sodipodi="http://sodipodi.sourceforge.net/DTD/sodipodi-0.dtd"
   xmlns="http://www.w3.org/2000/svg"
   xmlns:svg="http://www.w3.org/2000/svg">
  <sodipodi:namedview
     id="namedview7"
     pagecolor="#ffffff"
     bordercolor="#999999"
     borderopacity="1"
     inkscape:showpageshadow="0"
     inkscape:pageopacity="0"
     inkscape:pagecheckerboard="0"
     inkscape:deskcolor="#d1d1d1"
     inkscape:document-units="mm"
     showgrid="true"
     inkscape:zoom="7.1457576"
     inkscape:cx="21.341334"
     inkscape:cy="23.650396"
     inkscape:window-width="1366"
     inkscape:window-height="731"
     inkscape:window-x="0"
     inkscape:window-y="0"
     inkscape:window-maximized="1"
     inkscape:current-layer="layer1">
    <inkscape:grid
       type="xygrid"
       id="grid132" />
  </sodipodi:namedview>
  <defs
     id="defs2" />
  <g
     inkscape:label="Layer 1"
     inkscape:groupmode="layer"
     id="layer1">
    <rect
       style="fill:#ffffff;stroke:#000000;stroke-width:0;stroke-dasharray:none"
       id="rect483"
       width="13.229166"
       height="13.229166"
       x="0"
       y="0" />
    <path
       style="fill:#ffffff;stroke:#000000;stroke-width:1"
       d="M 1.3229166,1.3229166 C 0.83064537,2.2469283 0.98750952,1.6868165 1.1907822,3.1163117 c 0.091886,0.646176 0.098105,1.77503 0.6405897,2.2042416 0.1268227,0.1003416 0.3197322,0.1476671 0.4654363,0.2007539 0.3421538,0.1246624 0.6504958,0.1125262 1.0130255,0.1125262 0.1279859,0 0.2900297,0.027974 0.4155372,0 0.1386726,-0.030909 0.2423067,-0.090831 0.405702,-0.090831 0.099732,0 -0.1094925,-0.1667459 -0.1623229,-0.2513356"
       id="path8413" />
    <path
       style="fill:#ffffff;stroke:#000000;stroke-width:1"
       d="m 6.6145832,1.3229166 c 0.017754,0.675313 0.264798,1.2879778 0.414836,1.9351377 0.1092176,0.4710893 0.1683113,1.0631556 0.5088268,1.4381085 0.2099543,0.2311876 0.5234316,0.2422856 0.8085111,0.260922 0.594682,0.038876 0.7112532,0.2034921 1.295209,-0.155049 0.053918,-0.033105 0.3423285,-0.2311061 0.4321699,-0.3205117 0.180355,-0.1794788 0.319154,-0.8237979 0.371858,-1.0004422 0.06178,-0.2070555 0.147817,-0.4108847 0.168355,-0.6259814 0.0097,-0.1015252 -0.0011,-0.2020219 0.01605,-0.3041681 0.02911,-0.1736983 0.158178,-0.4095074 0.114262,-0.58693 -0.05294,-0.2139028 -0.10755,-0.4273905 -0.161328,-0.6410858"
       id="path8415" />
    <path
       style="fill:#ffffff;stroke:#000000;stroke-width:1"
       d="M 1.3229166,11.90625 C 1.1924282,11.89289 1.0380714,11.94257 0.93145119,11.86617 0.88950339,11.83611 0.99347139,11.649484 0.99856199,11.578491 1.0655173,10.644733 1.1112743,9.7129432 1.391536,8.8130614 1.4243922,8.7075647 1.5407931,8.2359417 1.5934469,8.1964812 1.804982,8.0379492 3.0138893,7.9438457 3.1921005,8.2677864 c 0.1183979,0.2152158 0.1996813,0.4842187 0.2078411,0.728817 0.00235,0.07083 0,0.1420257 0,0.2129033 0,0.024926 0,0.099702 0,0.074776 0,-0.52354 0.9324638,-1.3558324 1.3597162,-1.3722995 0.2095457,-0.00808 0.8030321,0.3940156 0.9352116,0.5436841 0.274846,0.3112113 0.4478062,0.7667098 0.4456213,1.1816701 -0.00143,0.2730805 -0.058126,0.5429746 -0.06552,0.8148756 -0.00594,0.218367 0,0.436895 0,0.655342 0,0.204594 0.059063,0.388075 0.073041,0.588811 1.066e-4,0.0015 -0.00284,0.07378 0,0.07463 0.1550398,0.04672 0.3110476,0.09017 0.4665715,0.135253"
       id="path8417" />
    <path
       style="fill:#ffffff;stroke:#000000;stroke-width:1"
       d="M 9.2604166,11.90625 C 9.1165049,11.792368 8.9503582,11.701988 8.8286819,11.564603 8.7950978,11.526683 8.8145637,11.462625 8.8233294,11.412736 9.0519154,10.111809 9.3179367,8.8175705 9.5401417,7.5155382 9.5598955,7.399783 9.5506668,7.2807609 9.5485317,7.1633513 9.5459123,7.0191624 9.3261195,6.5079281 9.4247239,6.4096568 9.5637738,6.2710768 10.19669,6.2420703 10.262018,6.237107 c 0.30436,-0.023122 0.698013,-0.038513 1.016496,0.022852 0.36167,0.069686 1.138316,0.5684877 1.305623,0.8802503 0.116717,0.217492 0.0084,0.4336258 -0.0755,0.6460857 -0.111568,0.2826301 -0.231057,0.645672 -0.439691,0.8860356 -0.05187,0.059755 -0.148578,0.092601 -0.214783,0.1287256 C 11.405931,9.0456299 10.931037,9.2007861 10.420104,9.235396 10.025316,9.262138 9.6490569,9.207779 9.2575254,9.183616 9.2483254,9.1830604 8.9577602,9.185526 8.996025,9.108984 9.041445,9.018144 9.1731961,9.208382 9.2604166,9.2604159"
       id="path8419" />
  </g>
</svg>
