<?xml version="1.0" encoding="UTF-8" standalone="no"?>
<!-- Created with Inkscape (http://www.inkscape.org/) -->

<svg
   width="50"
   height="50"
   viewBox="0 0 13.229166 13.229167"
   version="1.1"
   id="svg5"
   inkscape:version="1.2.2 (b0a8486541, 2022-12-01)"
   sodipodi:docname="text:pokey.svg"
   xmlns:inkscape="http://www.inkscape.org/namespaces/inkscape"
   xmlns:sodipodi="http://sodipodi.sourceforge.net/DTD/sodipodi-0.dtd"
   xmlns="http://www.w3.org/2000/svg"
   xmlns:svg="http://www.w3.org/2000/svg">
  <sodipodi:namedview
     id="namedview7"
     pagecolor="#ffffff"
     bordercolor="#999999"
     borderopacity="1"
     inkscape:showpageshadow="0"
     inkscape:pageopacity="0"
     inkscape:pagecheckerboard="0"
     inkscape:deskcolor="#d1d1d1"
     inkscape:document-units="mm"
     showgrid="true"
     inkscape:zoom="7.2759726"
     inkscape:cx="12.4382"
     inkscape:cy="35.321738"
     inkscape:window-width="1366"
     inkscape:window-height="731"
     inkscape:window-x="0"
     inkscape:window-y="0"
     inkscape:window-maximized="1"
     inkscape:current-layer="layer1">
    <inkscape:grid
       type="xygrid"
       id="grid132" />
  </sodipodi:namedview>
  <defs
     id="defs2" />
  <g
     inkscape:label="Layer 1"
     inkscape:groupmode="layer"
     id="layer1">
    <rect
       style="fill:#000000;fill-opacity:1;stroke:none;stroke-width:1;stroke-dasharray:none;stroke-opacity:1"
       id="rect33997"
       width="13.229166"
       height="13.229166"
       x="0"
       y="0" />
    <path
       style="fill:none;fill-opacity:1;stroke:#9100ff;stroke-width:1;stroke-dasharray:none;stroke-opacity:1"
       d="M 1.3229166,6.6145832 C 1.4413304,6.4047859 1.5785342,6.2045352 1.6781579,5.9851908 1.6888386,5.9616749 1.5659091,5.7775062 1.551035,5.7391945 1.4209926,5.404242 1.3859971,5.0551564 1.3074728,4.706794 1.2694793,4.5382407 1.211967,4.3744327 1.1752109,4.2056052 1.0874333,3.802426 1.1472346,3.3798398 1.1349102,2.9706194 1.1284499,2.7561069 1.0724847,2.5431531 1.0576898,2.3285134 1.0316133,1.9502029 1.0261796,1.5789028 1.0261796,1.1983365 c 0,-0.00829 -0.00693,0.020326 0,0.024884 0.014003,0.00921 0.044088,0.005 0.054906,0.005 0.141644,0 0.1240039,0.00543 0.3006322,-0.03151 0.4446506,-0.092995 0.8540706,-0.195002 1.3149113,-0.1359103 0.2142667,0.027474 0.4176897,0.2438102 0.5863881,0.3559442 0.3129616,0.2080257 0.6503662,0.3405379 0.8538874,0.6756448 0.1768871,0.2912522 0.00591,0.6038475 -0.1215782,0.8783654 C 3.7472839,3.5479307 3.6550441,3.6350098 3.067314,3.6927858 2.6717762,3.7316687 2.2812576,3.7827944 1.8914269,3.8602094 1.7296954,3.8923272 1.5553264,3.9128144 1.3919961,3.8800894 1.3369001,3.8690502 1.2819325,3.8750152 1.2274125,3.865078 c -0.022987,-0.00419 -0.089066,-0.018394 -0.069918,-0.005 0.054068,0.037808 0.1102813,0.072451 0.1654218,0.1086758"
       id="path34272" />
    <path
       style="fill:none;fill-opacity:1;stroke:#9100ff;stroke-width:1;stroke-dasharray:none;stroke-opacity:1"
       d="m 6.6145832,2.6458333 c -0.6097838,0.4321101 -1.2387008,0.838414 -1.8293516,1.29633 -0.043094,0.03341 -0.033978,0.103836 -0.04544,0.1571456 -0.039198,0.1823055 -0.074548,0.3654718 -0.1064315,0.549198 -0.020645,0.1189603 -0.040415,0.230655 -0.034756,0.3491822 0.014515,0.3040306 0.6569737,0.8117509 0.90663,0.8928359 0.1700604,0.055233 0.3309633,0.054365 0.5076804,0.054365 0.5848691,0 0.8356245,-0.2515198 1.1746698,-0.7148637 C 7.2611185,5.1295342 7.3565461,5.0109537 7.394227,4.8881471 7.443903,4.7262459 7.4449722,4.489999 7.4631978,4.3457108 7.4830283,4.1887129 7.5632362,3.9057347 7.5252717,3.7275418 7.443816,3.3452154 7.1901258,2.8425748 6.8010767,2.6787776 6.1638637,2.4104987 7.2204637,3.0309785 6.3844111,2.4541487 c -0.01519,-0.01048 -0.072275,-0.005 -0.094801,-0.005 -0.005,0 -0.019325,-0.00253 -0.015012,0 0.112904,0.066293 0.2266577,0.1311256 0.3399858,0.1966884"
       id="path34274" />
    <path
       style="fill:none;fill-opacity:1;stroke:#9100ff;stroke-width:1;stroke-dasharray:none;stroke-opacity:1"
       d="M 9.2604166,1.3229166 C 9.1841255,1.5778298 9.0020197,1.8232143 9.0315432,2.087656 c 0.1031986,0.9243498 0.4518539,1.8058451 0.6180339,2.7209717 0.1382445,0.7612914 -0.012443,1.4721276 -0.012443,2.2191064 0,0.029933 0,-0.059865 0,-0.089798 0,-0.063201 0,-0.1264015 0,-0.1896022 0,-0.3674285 0.00514,-0.2908332 -0.038813,-0.8060137 C 9.5782653,5.7072312 9.5598058,5.4717767 9.5278621,5.2380057 9.5077988,5.091187 9.3814415,4.9998952 9.3419111,4.8659682 9.3093571,4.7556761 9.3146008,4.6326136 9.2807839,4.5247649 9.2654275,4.4757877 9.1477339,4.2204573 9.2110016,4.1554323 c 0.016677,-0.01714 0.2698877,0.1263803 0.4330293,0.1912252 0.4031321,0.1602351 1.0064361,0.243273 1.3349261,0.5378381 0.116954,0.1048761 0.236099,0.3033982 0.338093,0.4251857 0.118747,0.1417913 0.256168,0.2178478 0.389212,0.337552 0.06586,0.059256 0.0922,0.1493046 0.164719,0.2046139 0.09476,0.072276 0.232159,0.081028 0.344314,0.099805 0.01783,0.00298 -0.132915,-0.1224799 -0.15674,-0.1463265 C 11.913652,5.6602897 11.760352,5.5865106 11.555608,5.5628452 11.177008,5.5190847 10.761683,5.384515 10.470465,5.1252178 10.324364,4.9951306 10.203675,4.8426766 10.046226,4.7231577 9.8810102,4.5977426 9.6818824,4.4911861 9.5044661,4.3835772 9.3700747,4.3020644 9.1704318,4.2156141 9.0598063,4.1049887 c -0.00655,-0.00655 0.028698,-0.028753 0.029888,-0.029887 0.6162434,-0.5873689 1.2078037,-1.224448 1.7637627,-1.8662728 0.197102,-0.2275426 0.372504,-0.473034 0.561912,-0.7070199 0.100788,-0.1245098 0.207939,-0.2437817 0.308611,-0.368386 0.156522,-0.19373173 0.100591,-0.14969575 0.18227,0.189494"
       id="path34276" />
    <path
       style="fill:none;fill-opacity:1;stroke:#9100ff;stroke-width:1;stroke-dasharray:none;stroke-opacity:1"
       d="M 1.3229166,10.583333 C 2.0128819,9.8353172 1.3277524,10.466964 3.4781646,10.1248 3.8491789,10.065766 4.0245405,9.9681672 4.1985729,9.6954225 4.2732036,9.5784605 4.3508668,9.4913393 4.3106845,9.3512438 4.212314,9.0082763 3.7553127,8.8346813 3.4807339,8.6950731 2.5123109,8.2026828 1.7587773,7.9993978 1.1374797,9.0868552 0.98822239,9.3481003 0.837293,9.709814 0.99061218,10.006062 c 0.0517431,0.09998 0.15432462,0.171748 0.20326142,0.27061 0.049199,0.09939 0.068991,0.213424 0.129043,0.306661 0.060847,0.09447 0.1652649,0.155025 0.2282536,0.248081 0.1019436,0.150607 0.1701363,0.321662 0.2631715,0.477929 0.1901756,0.319429 0.4211484,0.626581 0.6940371,0.879988 0.5039839,0.468004 0.7737674,0.331259 1.4339197,0.351346 0.075443,0.0023 0.2098156,0.01623 0.2094823,0.01501 C 4.0922784,12.33879 4.0297602,12.122729 3.96875,11.90625"
       id="path34278" />
    <path
       style="fill:none;fill-opacity:1;stroke:#9100ff;stroke-width:1;stroke-dasharray:none;stroke-opacity:1"
       d="M 7.4083332,8.7312499 C 6.4656268,8.5531784 6.8178496,8.5844252 8.7301158,10.723241 c 0.1062837,0.118875 0.2994936,0.121882 0.4581835,0.137536 0.2202212,0.02172 0.358697,-0.05158 0.525667,-0.157822 0.5099177,-0.324448 0.6240127,-0.614043 0.8483427,-1.2000937 0.113307,-0.2960113 0.261007,-0.6132345 0.261007,-0.936653 0,-0.016634 0,0.033269 0,0.049903 0,0.07988 0,0.1597601 0,0.2396402 0,0.2057559 -0.0028,0.4049096 -0.02096,0.6120834 -0.03623,0.4127954 -0.09421,0.8245911 -0.142404,1.2356611 -0.01703,0.145282 -0.01068,0.634039 -0.08899,0.778831 -0.190953,0.353066 -0.562086,0.796149 -0.9472007,0.929485 -0.2768784,0.09586 -0.6012239,0.08226 -0.8891848,0.115087 -0.1685898,0.01922 -0.3597793,0.05818 -0.5312113,0.03138 C 7.8566403,12.504066 7.5326344,12.233366 7.2358804,12.067769 7.1529701,12.021502 6.826891,11.900871 6.7434819,11.842734 6.5230305,11.689078 6.3047717,11.5323 6.0854165,11.377083"
       id="path34280" />
  </g>
</svg>
