<?xml version="1.0" encoding="UTF-8" standalone="no"?>
<!-- Created with Inkscape (http://www.inkscape.org/) -->

<svg
   width="50"
   height="50"
   viewBox="0 0 13.229166 13.229167"
   version="1.1"
   id="svg5"
   inkscape:version="1.2.2 (b0a8486541, 2022-12-01)"
   sodipodi:docname="text:flag.svg"
   xmlns:inkscape="http://www.inkscape.org/namespaces/inkscape"
   xmlns:sodipodi="http://sodipodi.sourceforge.net/DTD/sodipodi-0.dtd"
   xmlns="http://www.w3.org/2000/svg"
   xmlns:svg="http://www.w3.org/2000/svg">
  <sodipodi:namedview
     id="namedview7"
     pagecolor="#ffffff"
     bordercolor="#999999"
     borderopacity="1"
     inkscape:showpageshadow="0"
     inkscape:pageopacity="0"
     inkscape:pagecheckerboard="0"
     inkscape:deskcolor="#d1d1d1"
     inkscape:document-units="mm"
     showgrid="true"
     inkscape:zoom="7.7067702"
     inkscape:cx="23.29121"
     inkscape:cy="24.26438"
     inkscape:window-width="1366"
     inkscape:window-height="731"
     inkscape:window-x="0"
     inkscape:window-y="0"
     inkscape:window-maximized="1"
     inkscape:current-layer="layer1">
    <inkscape:grid
       type="xygrid"
       id="grid132" />
  </sodipodi:namedview>
  <defs
     id="defs2" />
  <g
     inkscape:label="Layer 1"
     inkscape:groupmode="layer"
     id="layer1">
    <rect
       style="fill:#ffffff;stroke:#000000;stroke-width:0;stroke-dasharray:none"
       id="rect483"
       width="13.229166"
       height="13.229166"
       x="0"
       y="0" />
    <path
       style="fill:none;stroke:#000000;stroke-width:1;stroke-opacity:1"
       d="M 2.6458333,6.6145832 C 2.4316705,5.9103103 2.4086575,5.3325876 2.3285156,4.6048032 2.2737982,4.1079046 2.2615135,3.6657086 2.3705793,3.1772955 2.4485457,2.8281503 2.5249674,2.4784381 2.6170195,2.1327395 2.7681205,1.5652846 2.7361771,1.8471939 2.8293708,1.474419 c 0.044917,-0.1796675 0.015907,-0.3691606 0.080687,-0.54807919 0.0087,-0.0240273 0.2006981,-0.0104682 0.2994499,0.00344 0.3296642,0.0464307 0.6581007,0.10243389 0.9846659,0.16716029 0.2012339,0.039885 0.7626231,0.088315 0.9291547,0.3186834 0.1841918,0.2547987 0.2306265,0.7168666 0.293664,1.0101545 0.052108,0.2424358 0.097263,0.487409 0.1349478,0.7327529 0.068948,0.4488809 0.018199,0.3236756 -0.2602738,0.810219"
       id="path22537" />
    <path
       style="fill:none;stroke:#000000;stroke-width:1;stroke-opacity:1"
       d="M 4.4042923,4.0432407 C 4.1835282,3.9933897 3.9658441,3.9270907 3.742,3.8936878 3.6343148,3.8776197 3.5767314,3.9541946 3.4805482,3.96296 3.3895452,3.97125 3.2629689,3.96875 3.175,3.96875 2.9145595,3.96875 2.6271393,3.96711 2.3729748,3.97813 2.2179024,3.98486 2.0658847,4.016128 1.9101177,4.016128 c -0.1398254,0 -0.2546335,0.07097 -0.392334,0.080843 -0.032824,0.00235 -0.098044,0.04448 -0.098044,0.01157 0,-0.038446 -0.1857128,-0.019889 -0.213446,-0.017357 -0.038341,0.0035 -0.083458,0.00977 -0.1211872,0.017357 -0.00684,0.00138 -0.0405,-9.789e-4 -0.0405,0 0,0.013499 0.05393,0.00138 0.0405,0 -0.21648166,-0.022157 -0.43304255,-0.043534 -0.6495638,-0.0653"
       id="path22539" />
    <path
       style="fill:none;stroke:#000000;stroke-width:1;stroke-opacity:1"
       d="M 7.4831959,1.039415 C 7.6974836,1.019314 7.9185133,0.9221192 8.1260588,0.979112 c 0.07544,0.020716 -0.0058,0.1563596 -0.00832,0.2345524 -0.00964,0.2998554 -0.015407,0.5923635 -0.048412,0.890736 C 8.0009298,2.7226935 7.885376,3.3451922 7.9375,3.96875 7.963979,4.2855163 7.895622,5.272037 8.1286019,5.5805771 c 0.010509,0.013917 0.1703427,0.028112 0.2055855,0.036075 0.2785509,0.062936 0.142113,0.044201 0.6847483,0.1078217 0.3731347,0.043748 0.73748,0.017611 1.1108043,0.03232 0.409476,0.016134 0.843065,0.044157 1.248801,0.098971 0.157598,0.021291 0.298495,0.087873 0.451403,0.1227074 0.05941,0.013533 0.351028,0.00733 0.39092,0.029772 0.186278,0.1047977 0.369331,0.2152258 0.553995,0.3228387"
       id="path22904" />
    <path
       style="fill:none;stroke:#000000;stroke-width:1;stroke-opacity:1"
       d="M 1.3229166,11.90625 C 1.7456757,11.495412 1.7676625,10.637524 2.0346651,10.122633 2.2645918,9.6792401 2.4879567,9.2285464 2.7407362,8.7975262 2.8342703,8.638039 2.8994901,8.5693775 2.9609393,8.4122378 c 0.02995,-0.076589 0.014885,-0.1703017 0.014885,-0.2523884 0,-0.3169859 0.038276,-0.4053872 0.218862,-0.6598044 0.03149,-0.044365 0.059602,-0.085523 0.1084921,-0.1099675 0.025212,-0.012607 0.076717,0.00456 0.1039326,0 0.2120469,-0.035501 0.066805,-0.02716 0.2466221,0.2619103 0.1394463,0.22417 0.2468216,0.4544901 0.3649041,0.6899783 0.1476779,0.2945098 0.3633663,0.5419129 0.5494348,0.8109426 0.1618691,0.2340409 0.3111378,0.4776607 0.4740666,0.711033 0.1106231,0.1584523 0.3787214,0.4609253 0.4782241,0.6724103 0.02491,0.05294 0.015507,0.101905 0.049485,0.15838 0.2619917,0.435472 0.4772387,0.890169 0.6573906,1.36601 0.036301,0.09588 0.054849,0.208473 0.054849,0.311663 0,0.03839 0.00204,0.07295 -0.00979,0.108761 -0.00367,0.0111 -0.010795,0.04487 -0.00496,0.03473 0.1166523,-0.202696 0.2314974,-0.40643 0.3472459,-0.609646"
       id="path22906" />
    <path
       style="fill:none;stroke:#000000;stroke-width:1;stroke-opacity:1"
       d="m 2.1166666,10.054166 c 0.8296399,-0.0785 0.6778019,-0.09289 1.9115108,0.08605 0.075943,0.01101 0.1338109,0.07537 0.2029032,0.10876 0.07997,0.03865 0.1542468,0.04587 0.2375029,0.06437 0.2289067,0.05087 0.1168326,0.09847 0.2939164,-0.259184"
       id="path22908" />
    <path
       style="fill:none;stroke:#000000;stroke-width:1;stroke-opacity:1"
       d="M 11.288822,7.4624938 C 10.685494,7.4514422 10.090676,7.3603956 9.4845537,7.3845785 9.2910538,7.392299 8.9957204,7.3925028 8.7951117,7.4595442 8.5009921,7.5578369 8.1869883,7.7841239 7.9375,7.9375 7.7465357,8.0548977 7.4828951,8.2855334 7.4057674,8.5066484 c -0.022466,0.064404 0.022275,0.1919279 0.019714,0.2623124 -0.00602,0.1654617 -0.051695,0.3176127 -0.035404,0.4861364 0.026411,0.2732024 0.1076518,0.5393604 0.1601232,0.8082608 0.047637,0.244122 0.083062,0.490445 0.1000437,0.738793 0.013907,0.203368 -0.016309,0.478541 0.061287,0.672008 0.036043,0.08986 0.4478449,0.190079 0.5569445,0.259228 0.2946691,0.186766 0.4172183,0.454858 0.8003482,0.63647 0.2233398,0.105868 0.4916107,0.08315 0.7302094,0.08315 0.189597,0 0.3869206,-0.0073 0.5749146,-0.03192 0.08316,-0.01087 0.192448,0.0029 0.272103,-0.01985 0.169691,-0.04848 0.499101,-0.374368 0.605088,-0.468435 0.148483,-0.131782 0.238603,-0.294654 0.249036,-0.495792 0.01615,-0.311333 0.03737,-0.758187 -0.117075,-1.044422 -0.02289,-0.04243 -0.09439,-0.03012 -0.108894,-0.04949 -0.03972,-0.05301 -0.05259,-0.246117 -0.13357,-0.262313 -0.308718,-0.06174 -0.600874,-0.01756 -0.90817,0.009 -0.167163,0.01444 -0.3342506,0.01516 -0.5019606,0.01516 -0.07586,0 -0.1517187,0 -0.2275787,0 -0.01323,0 -0.0397,-0.01323 -0.0397,0 0,0.0066 0.01323,-4.5e-5 0.01985,0 0.160942,0.0011 0.3218837,0.0023 0.4828267,0.0034"
       id="path22912" />
  </g>
</svg>
