<?xml version="1.0" encoding="UTF-8" standalone="no"?>
<!-- Created with Inkscape (http://www.inkscape.org/) -->

<svg
   width="50"
   height="50"
   viewBox="0 0 13.229166 13.229167"
   version="1.1"
   id="svg5"
   inkscape:version="1.2.2 (b0a8486541, 2022-12-01)"
   sodipodi:docname="text:wall.svg"
   xmlns:inkscape="http://www.inkscape.org/namespaces/inkscape"
   xmlns:sodipodi="http://sodipodi.sourceforge.net/DTD/sodipodi-0.dtd"
   xmlns="http://www.w3.org/2000/svg"
   xmlns:svg="http://www.w3.org/2000/svg">
  <sodipodi:namedview
     id="namedview7"
     pagecolor="#ffffff"
     bordercolor="#999999"
     borderopacity="1"
     inkscape:showpageshadow="0"
     inkscape:pageopacity="0"
     inkscape:pagecheckerboard="0"
     inkscape:deskcolor="#d1d1d1"
     inkscape:document-units="mm"
     showgrid="true"
     inkscape:zoom="6.609479"
     inkscape:cx="5.6736696"
     inkscape:cy="25.41804"
     inkscape:window-width="1366"
     inkscape:window-height="731"
     inkscape:window-x="0"
     inkscape:window-y="0"
     inkscape:window-maximized="1"
     inkscape:current-layer="layer1">
    <inkscape:grid
       type="xygrid"
       id="grid132" />
  </sodipodi:namedview>
  <defs
     id="defs2" />
  <g
     inkscape:label="Layer 1"
     inkscape:groupmode="layer"
     id="layer1">
    <rect
       style="fill:#ffffff;stroke:#000000;stroke-width:0;stroke-dasharray:none"
       id="rect483"
       width="13.229166"
       height="13.229166"
       x="0"
       y="0" />
    <path
       style="fill:none;stroke:#000000;stroke-width:1;stroke-opacity:1"
       d="m 1.3229166,1.3229166 c -0.1218718,0.082348 -0.2576125,0.1471983 -0.36561538,0.2470449 -0.0195654,0.018088 0.0781801,0.3647967 0.11274328,0.4814653 0.06193,0.2090472 0.1608211,0.4066238 0.220639,0.6159441 0.093484,0.3271266 0.141534,0.6685095 0.2642664,0.9874806 0.1017952,0.2645574 0.1923185,0.5371332 0.3010135,0.7987413 0.055859,0.134443 0.1535654,0.2592295 0.1962452,0.3981199 0.02016,0.065605 0.2127453,0.7663479 0.3457356,0.6709865 0.063462,-0.045505 0.1201261,-0.2316713 0.1421409,-0.2931951 0.117819,-0.3292631 0.041489,-0.4059703 0.08616,-0.7016351 0.087157,-0.576862 0.2003593,-1.1495312 0.291944,-1.7257066 0.038396,-0.2415541 0.068582,-0.4843567 0.099608,-0.7269673 0.00269,-0.020991 -0.014965,-0.048523 0,-0.063487 0.019489,-0.019489 0.014608,0.053419 0.017357,0.080844 0.010538,0.1051108 0.00579,0.2117409 0.00579,0.317276 0,0.216573 0.0041,0.3721567 0.1005464,0.5820117 0.1012368,0.2202723 0.2631012,0.4202859 0.3846717,0.6292355 0.1440378,0.2475648 0.2828607,0.5330958 0.3655946,0.8093745 0.021103,0.070474 -0.00159,0.1432636 0.017201,0.213446 0.015274,0.057068 0.050269,0.1101621 0.063486,0.1673166 0.028356,0.1226215 -0.028705,0.2951578 0.017357,0.4096912 0.00372,0.00924 0.038732,0.00764 0.046129,0.00579 C 4.2310851,5.1779005 4.1561027,4.6235019 4.2090287,4.482366 4.2377796,4.4056966 4.2302721,4.3181997 4.2667295,4.2399915 4.3447631,4.0725992 4.4531764,3.9314985 4.5480403,3.7754141 4.6877832,3.5454883 4.8193655,3.2502329 4.9078493,2.9932481 4.987681,2.7613917 4.9262643,2.3722389 4.9743068,2.2504874 5.0424254,2.0778578 5.2199076,1.9287418 5.2864226,1.7624546 c 0.017931,-0.044826 -0.040933,-0.00854 -0.040344,-0.023143 0.00563,-0.1395145 0.030392,-0.277597 0.045588,-0.4163951"
       id="path27265" />
    <path
       style="fill:none;stroke:#000000;stroke-width:1;stroke-opacity:1"
       d="M 7.9374999,5.2916666 C 7.9749871,4.9639902 8.0043167,4.6352772 8.0499618,4.3086374 8.1034386,3.9259531 8.2554373,3.5069465 8.4175893,3.1539963 8.5197586,2.9316084 8.6548914,2.7083099 8.7265779,2.4726893 8.8073581,2.2071786 8.9187614,1.9335418 8.9520643,1.6597182 8.9534136,1.6486571 9.0018422,1.5974464 9.0097651,1.579031 9.0341915,1.522256 9.0258333,1.4325211 9.0674657,1.3827858 9.1637246,1.2677955 9.272934,1.1709634 9.3639446,1.050029 c 0.00314,-0.00417 0.072684,-0.10155176 0.082876,-0.12368919 0.00254,-0.005501 0.00376,-0.0603056 0.01157,-0.0577007 0.054408,0.0181361 0.076933,0.16886999 0.098044,0.21344599 0.05659,0.1194874 0.1543106,0.230088 0.2376834,0.3274402 0.254075,0.2966758 0.522052,0.5908252 0.705388,0.9401004 0.164535,0.3134567 0.290411,0.6468142 0.440184,0.9666836 0.17711,0.3782536 0.467779,0.7210868 0.592488,1.1224286 0.07679,0.2471282 0.109226,0.4968655 0.158716,0.7491717 0.05485,0.2796296 0.138822,0.5543253 0.182016,0.836114 0.06489,0.4233097 -0.03768,-0.7681238 0.03334,0.5905597"
       id="path27267" />
    <path
       style="fill:none;stroke:#000000;stroke-width:1;stroke-opacity:1"
       d="M 7.9374999,3.96875 C 8.6804568,3.8214609 9.4426388,3.82467 10.197713,3.82467 c 0.14408,0 0.435765,0.094208 0.599994,0.1268167 0.08047,0.015978 0.141341,0.034971 0.219388,0.00579 0.01369,-0.00512 0.05496,-0.017587 0.04034,-0.0172 -0.158269,0.00419 -0.31607,0.019118 -0.474106,0.028677"
       id="path27269" />
    <path
       style="fill:none;stroke:#000000;stroke-width:1;stroke-opacity:1"
       d="m 1.3229166,6.6145832 c 0.021895,1.4080027 0.017697,0.085507 -0.011279,1.0102067 -0.024875,0.7938074 0.089929,1.5985329 0.017044,2.3899691 -0.069484,0.754509 -0.2474101,1.269322 1.563e-4,2.012022 0.012571,0.03771 0.1016177,0.02314 0.126973,0.02314 0.3153505,0 0.625537,-0.04097 0.9388495,-0.04097 0.4371497,0 0.8948495,-0.03411 1.3299325,0.01986 0.5285946,0.06557 1.0322343,0.232367 1.5694922,0.232367 0.043714,0 0.4484737,0.01313 0.4616063,0 0.057711,-0.05771 0.2272189,-0.04255 0.2769325,-0.09226 0.00545,-0.0055 0,-0.04461 0,-0.05207 0.1939864,-0.0702 0.3879728,-0.140401 0.5819592,-0.210601"
       id="path27634" />
    <path
       style="fill:none;stroke:#000000;stroke-width:1;stroke-opacity:1"
       d="m 7.9374999,6.6145832 c -0.2720888,1.5709562 -0.1047395,0.2888166 0.273993,3.5876648 0.011192,0.09747 -0.00286,0.196555 0.00579,0.294289 0.020376,0.230386 0.084639,0.453971 0.1066448,0.684904 0.010991,0.115339 -0.051828,0.643821 0.00579,0.721338 0.011771,0.01584 0.4396861,0.04155 0.488502,0.04707 0.5189482,0.05869 1.0004912,0.0019 1.5050673,-0.139952 0.596326,-0.167637 0.496704,-0.164956 1.051593,-0.143548 0.03866,0.0015 0.14607,-0.02163 0.178888,0 0.118676,0.0782 0.234992,0.159936 0.352489,0.239904"
       id="path27636" />
  </g>
</svg>
