<?xml version="1.0" encoding="UTF-8" standalone="no"?>
<!-- Created with Inkscape (http://www.inkscape.org/) -->

<svg
   width="50"
   height="50"
   viewBox="0 0 13.229166 13.229167"
   version="1.1"
   id="svg5"
   inkscape:version="1.2.2 (b0a8486541, 2022-12-01)"
   sodipodi:docname="text:loop.svg"
   xmlns:inkscape="http://www.inkscape.org/namespaces/inkscape"
   xmlns:sodipodi="http://sodipodi.sourceforge.net/DTD/sodipodi-0.dtd"
   xmlns="http://www.w3.org/2000/svg"
   xmlns:svg="http://www.w3.org/2000/svg">
  <sodipodi:namedview
     id="namedview7"
     pagecolor="#ffffff"
     bordercolor="#999999"
     borderopacity="1"
     inkscape:showpageshadow="0"
     inkscape:pageopacity="0"
     inkscape:pagecheckerboard="0"
     inkscape:deskcolor="#d1d1d1"
     inkscape:document-units="mm"
     showgrid="true"
     inkscape:zoom="9.6007822"
     inkscape:cx="27.133206"
     inkscape:cy="24.685489"
     inkscape:window-width="1366"
     inkscape:window-height="731"
     inkscape:window-x="0"
     inkscape:window-y="0"
     inkscape:window-maximized="1"
     inkscape:current-layer="layer1">
    <inkscape:grid
       type="xygrid"
       id="grid132" />
  </sodipodi:namedview>
  <defs
     id="defs2" />
  <g
     inkscape:label="Layer 1"
     inkscape:groupmode="layer"
     id="layer1">
    <rect
       style="fill:#6c0000;stroke-width:1;stroke-linecap:square;fill-opacity:1"
       id="rect297"
       width="13.229166"
       height="13.229166"
       x="0"
       y="0" />
    <path
       style="fill:#6c0000;fill-opacity:1;stroke:#000000;stroke-width:0.826796;stroke-linecap:square;stroke-opacity:1"
       d="m 3.541696,2.5370302 c 0.019003,0.060367 0.04661,0.1188116 0.057007,0.1811022 0.02083,0.1247895 -0.00294,0.2665023 0.00349,0.3942923 0.019959,0.396561 0.016476,0.7734447 -0.039454,1.1670179 -0.02492,0.1753608 -0.1223571,0.3341155 -0.142526,0.5091348 -0.019206,0.166664 0.061235,0.4119628 0.1038269,0.5693815 0.019781,0.073109 0.022083,0.1631303 0.056255,0.2309609 6.456e-4,0.00129 0.022722,0 0.024352,0 0.075053,0 0.1469994,0.017045 0.2220006,0.017045 0.4058978,0 0.8121154,0.00346 1.2181717,0.00346 0.010826,0 0.8242952,-0.00694 0.8495867,-0.01604 0.027341,-0.00985 0.082341,-0.039806 0.096045,-0.046844"
       id="path2508" />
    <path
       style="fill:#6c0000;fill-opacity:1;stroke:#000000;stroke-width:0.826796;stroke-linecap:square;stroke-opacity:1"
       d="M 9.5522849,5.3315783 C 9.1441636,5.3655583 8.737393,5.4223467 8.327921,5.433518 8.1479147,5.43843 7.9498333,5.2550257 7.8534324,5.1301881 7.7433847,4.9876782 7.6302151,4.8743816 7.5522402,4.7074585 7.2993218,4.166029 7.2684258,3.1901137 7.8996825,2.8536648 8.184527,2.7018475 8.54323,2.6717558 8.8574378,2.6268965 9.2348222,2.5730173 9.8809125,2.4832016 10.07023,2.9247576 c 0.04323,0.1008286 0.02252,0.2447487 0.02624,0.3477175 0.0069,0.1907305 0.06276,0.3955541 0.03332,0.5862431 C 10.106864,4.0072454 10.021458,4.1478277 9.9644234,4.2856404 9.9166416,4.4010964 9.8846104,4.5219061 9.8350171,4.6364568 9.7770714,4.7703092 9.7727131,4.9147171 9.7267537,5.0472464 9.6941167,5.141354 9.6104728,5.2510596 9.5522874,5.3315783 Z"
       id="path2510" />
    <path
       style="fill:#6c0000;fill-opacity:1;stroke:#000000;stroke-width:0.826796;stroke-linecap:square;stroke-opacity:1"
       d="M 4.654768,6.8363349 C 4.4548685,6.9201553 4.245041,6.9846691 4.0550698,7.0877959 3.7142208,7.2728272 3.4231019,7.5319972 3.2901494,7.8923308 3.2426637,8.0210276 3.2247701,8.1562769 3.1965164,8.2894487 3.0818326,8.8299999 3.1310556,9.3509129 3.5002571,9.7883246 3.7165286,10.044551 3.9106261,10.179898 4.2727285,10.220533 4.7906114,10.278648 5.3901054,10.197077 5.8193706,9.890953 5.8971307,9.8355022 5.971583,9.7337618 6.026741,9.6656437 6.0814397,9.5980952 6.1713324,9.4994276 6.2014532,9.4121695 6.2407968,9.2981952 6.2136835,9.0923599 6.2017426,8.9853385 6.1759951,8.7546753 6.0735646,8.5332472 6.0343927,8.3043963 6.0241778,8.2447547 5.9900403,7.6551542 5.9523633,7.6032196 5.9055061,7.5386306 5.7108843,7.4440857 5.6427705,7.3979615 5.2543278,7.1349222 5.2119329,7.1226723 4.7896917,7.024359 4.6350428,6.988351 4.5639765,6.9124006 4.654768,7.0513001"
       id="path2512" />
    <path
       style="fill:#6c0000;fill-opacity:1;stroke:#000000;stroke-width:0.826796;stroke-linecap:square;stroke-opacity:1"
       d="m 7.5487552,10.275778 c 0.1476341,-0.211303 0.130686,-0.365641 0.1490314,-0.6105901 0.011378,-0.1519256 0.048511,-0.4149445 0.025862,-0.6009174 -0.029611,-0.243146 -0.03833,-0.4450668 -0.020954,-0.7044581 0.075753,-1.1308966 0.014452,0.3596912 0.064278,-0.5935349 0.016538,-0.3164 0.00804,-0.6167313 0.064939,-0.9345985 0.00646,-0.036109 0.015832,-0.3093455 -0.00689,-0.3093455 -0.015514,0 0.038281,0.067818 0.1245921,0.094973 0.19135,0.060201 0.3932564,0.083802 0.5885092,0.1286965 0.4679658,0.1075987 0.6694162,0.2172058 1.0264698,0.4812444 0.089538,0.066213 0.1805066,0.1317745 0.246542,0.2218464 0.032528,0.044369 0.14347,0.2147923 0.1656504,0.247367 C 10.085963,7.856799 10.247457,8.0326614 10.143663,8.2326655 10.09143,8.3333139 9.8080072,8.3464908 9.7013601,8.376492 9.4391466,8.4502559 9.1853067,8.5482258 8.9216204,8.6168411 8.6779843,8.6802379 8.4282976,8.7044486 8.1829397,8.7555633 c -0.026086,0.00544 -0.3928485,0.067256 -0.4085112,0.052136 -0.00898,-0.00867 -6.892e-4,-0.024626 -0.00306,-0.036675"
       id="path2516" />
    <path
       style="fill:none;fill-opacity:1;stroke:#000000;stroke-width:1;stroke-linecap:square;stroke-opacity:1"
       d="m 4.7625,0.79375 c -1.5875,0 -1.0583333,0 -1.8246757,0.16447136 C 2.594641,1.0318749 2.1703697,1.4709133 2.1055746,1.8585168 1.8636705,2.3927817 1.6224644,2.9065068 1.3229167,3.4395833 0.17607711,5.5055508 0.85682056,7.1945195 1.3229167,9.525 1.5875,10.847917 1.5875,10.847917 2.2430615,12.034995 c 0.4643864,0.840902 2.4822735,0.37681 3.3652902,0.135393 0.083968,-0.02296 0.568122,0.01057 0.6309048,-0.05164 0.017788,-0.01763 -0.00872,-0.07326 -0.012912,-0.09003 0.129413,-0.04082 0.2588257,-0.08164 0.3882384,-0.122464"
       id="path2528"
       sodipodi:nodetypes="csccsscccc" />
    <path
       style="fill:none;fill-opacity:1;stroke:#000000;stroke-width:0.769724;stroke-linecap:square;stroke-opacity:1"
       d="M 6.0242186,11.306938 7.4083333,11.90625 6.0242187,12.505561"
       id="path2530" />
    <path
       style="fill:none;fill-opacity:1;stroke:#000000;stroke-width:1;stroke-linecap:square;stroke-opacity:1"
       d="m 8.2020833,0.79375 c 2.6082287,0.14691286 2.1166667,0.5291667 3.4395837,1.8520833 0.529166,1.3229167 0.402948,1.3488341 0.629982,1.9767247 0.163768,1.4628587 0.163768,1.4628587 0.163768,3.5795253 0,1.0583334 -5.8e-5,1.9314267 -0.207122,2.2077197 -0.809519,0.566652 -1.115795,0.96728 -2.9678784,1.496445"
       id="path2642"
       sodipodi:nodetypes="cccccc" />
    <path
       style="fill:none;fill-opacity:1;stroke:#000000;stroke-width:0.593776;stroke-linecap:square;stroke-opacity:1"
       d="M 8.419607,1.3475593 6.9262264,0.76910738 8.4196071,0.42203628"
       id="path2648" />
  </g>
</svg>
