<?xml version="1.0" encoding="UTF-8" standalone="no"?>
<!-- Created with Inkscape (http://www.inkscape.org/) -->

<svg
   width="50"
   height="50"
   viewBox="0 0 13.229166 13.229167"
   version="1.1"
   id="svg5"
   inkscape:version="1.2.2 (b0a8486541, 2022-12-01)"
   sodipodi:docname="text:baba.svg"
   xmlns:inkscape="http://www.inkscape.org/namespaces/inkscape"
   xmlns:sodipodi="http://sodipodi.sourceforge.net/DTD/sodipodi-0.dtd"
   xmlns="http://www.w3.org/2000/svg"
   xmlns:svg="http://www.w3.org/2000/svg">
  <sodipodi:namedview
     id="namedview7"
     pagecolor="#ffffff"
     bordercolor="#999999"
     borderopacity="1"
     inkscape:showpageshadow="0"
     inkscape:pageopacity="0"
     inkscape:pagecheckerboard="0"
     inkscape:deskcolor="#d1d1d1"
     inkscape:document-units="mm"
     showgrid="true"
     inkscape:zoom="7.1457576"
     inkscape:cx="21.061448"
     inkscape:cy="23.650396"
     inkscape:window-width="1366"
     inkscape:window-height="731"
     inkscape:window-x="0"
     inkscape:window-y="0"
     inkscape:window-maximized="1"
     inkscape:current-layer="layer1">
    <inkscape:grid
       type="xygrid"
       id="grid132" />
  </sodipodi:namedview>
  <defs
     id="defs2" />
  <g
     inkscape:label="Layer 1"
     inkscape:groupmode="layer"
     id="layer1">
    <rect
       style="fill:#ffffff;stroke:#000000;stroke-width:0;stroke-dasharray:none"
       id="rect483"
       width="13.229166"
       height="13.229166"
       x="0"
       y="0" />
    <path
       style="fill:none;stroke:#000001;stroke-width:1;stroke-opacity:1"
       d="M 1.3229166,1.3229166 C 1.219716,1.3588552 1.1035659,1.369115 1.0133148,1.4307322 c -0.028509,0.019464 0,0.069039 0,0.1035588 0,0.1248203 0,0.2496405 0,0.3744608 0,0.4855949 0.019779,0.9334611 0.1456477,1.4032515 0.05403,0.2016623 0.1128812,0.4047125 0.1278576,0.6139768 0.017936,0.2506244 0.00108,0.5025643 0.027047,0.753405 0.025444,0.2458103 0.093596,0.4862208 0.1199026,0.731276 0.022249,0.2072603 -0.052317,0.906376 0,1.0619121 0.028294,0.084116 0.1981813,-0.2073622 0.2027787,-0.20813 0.2750556,-0.045946 0.5963715,0 0.8753327,0 0.5707308,0 1.168582,0.03114 1.449824,-0.5828803 C 4.0268379,5.5393613 4.074134,5.0410726 4.0912981,4.9670647 4.143643,4.7413629 4.4475762,3.9844389 4.35034,3.6805338 4.1472014,3.0456396 3.8514059,3.1237274 3.2875598,3.0774047 2.5757821,3.0189289 2.3404463,2.8639053 1.7519671,3.3451247 1.6527027,3.4262967 1.4865464,3.4942743 1.4104832,3.5959221 c -0.00737,0.00985 0.037887,0.00333 0.037316,0.00535 C 1.4127333,3.7258029 1.3645442,3.8462579 1.3229166,3.96875"
       id="path11775" />
    <path
       style="fill:none;stroke:#000001;stroke-width:1;stroke-opacity:1"
       d="M 10.583333,2.6458333 C 10.13161,2.6389324 9.6769488,2.5732266 9.2281646,2.6251302 8.8217911,2.6721289 8.3804635,2.7379348 8.0551725,2.9859954 7.9623707,3.056764 7.8993689,3.246451 7.8346037,3.3409302 7.6028102,3.6790701 7.45844,3.9500931 7.433964,4.3655265 c -0.027562,0.4678048 0.0078,0.58063 0.3095196,0.9713706 0.1225648,0.1587286 0.2506641,0.3423293 0.4162602,0.4589277 0.1577372,0.1110647 0.4049244,0.1547599 0.5924262,0.1547599 0.1202118,0 0.298899,0.030071 0.4162602,-0.01056 0.3194314,-0.1105852 0.5097976,-0.3200923 0.7337348,-0.5640776 0.429213,-0.4676383 0.758461,-0.9286819 0.94765,-1.5639412 0.04527,-0.1520066 0.117618,-0.6266418 0.02676,-0.7632404 -0.05152,-0.077457 -0.102897,-0.161436 -0.160112,-0.2347431 -0.04399,-0.056364 -0.104713,-0.2338017 -0.133128,-0.1681895 -0.04063,0.093817 0.05836,0.1963309 0.07744,0.2967715 0.02697,0.1419598 -0.01356,0.2923722 0.01707,0.4321701 0.04985,0.2276057 0.09377,0.3435866 0.161557,0.5937279 0.09604,0.3543639 0.189342,0.7089894 0.289126,1.0616229 0.07621,0.269313 0.185146,0.5305391 0.254414,0.8018579 0.0387,0.151584 0.08287,0.3053135 0.117733,0.4577707 0.0084,0.03659 -0.02683,0.1120923 0.0107,0.1120923 0.0164,0 0.0067,-0.032113 0.0107,-0.048019 0.128059,0.086919 0.256115,0.1738371 0.384172,0.2607556"
       id="path11777" />
    <path
       style="fill:none;stroke:#000001;stroke-width:1;stroke-opacity:1"
       d="m 1.3229166,7.9374999 c 0.1666893,1.6735845 0.1642691,1.5867057 0.3387981,3.9351761 0.00916,0.12324 -0.02774,0.824103 -0.00535,0.846695 0.012988,0.0131 0.1504407,-0.03575 0.1654628,-0.03732 0.1378893,-0.01436 0.2748318,0.01297 0.4109088,0.02661 0.1629024,0.01633 0.4592241,0.06674 0.607468,0.02734 0.5550009,-0.147518 1.1622881,-1.030345 1.2944859,-1.532122 0.035789,-0.135843 0.039397,-0.355508 0.044548,-0.484961 0.010401,-0.26143 0.065767,-0.8165893 -0.078537,-1.0562719 -0.06274,-0.1042088 -0.3261394,-0.064074 -0.4185745,-0.064074 -0.6608697,0 -1.2692853,0.1789263 -1.8976149,0.3695432 -0.136445,0.041393 -0.2774715,0.1017317 -0.4155371,0.1345107 -0.028951,0.0069 -0.1043347,-0.01846 -0.1281469,0.0054 -0.011629,0.01163 0.046219,-0.0056 0.048164,0.0107 0.018364,0.154206 0.022618,0.309766 0.033927,0.464649"
       id="path11779" />
    <path
       style="fill:none;stroke:#000001;stroke-width:1;stroke-opacity:1"
       d="M 10.054166,8.4666666 C 9.9051653,8.5847652 9.7684973,8.7203652 9.6071623,8.8209625 9.5452583,8.8595617 9.1818331,8.8219679 9.0683965,8.8352817 8.650503,8.8843122 8.0388064,9.2356812 7.813396,9.5813104 7.6675725,9.8049066 7.4660129,10.574876 7.5440851,10.835588 c 0.037399,0.124887 0.1503323,0.213149 0.2304042,0.316028 0.1072756,0.137831 0.2129853,0.287205 0.349005,0.40035 0.3200199,0.266203 1.3188288,0.541831 1.68153,0.126412 0.3019197,-0.345805 0.4238307,-0.934134 0.4490917,-1.376495 0.01997,-0.349754 0.158554,-1.0175007 0.0674,-1.364778 -0.01187,-0.045217 -0.02631,-0.084673 -0.04267,-0.1281469 -0.0082,-0.021662 0.01847,0.042462 0.02676,0.064073 0.02357,0.061488 0.0048,0.1250672 0.02126,0.1868689 0.07069,0.2655837 0.134001,0.4975423 0.247037,0.7499339 0.547943,1.2234661 0.466491,1.0518291 0.990029,1.9709451 0.117373,0.20606 0.230239,0.404652 0.314292,0.62685 0.02491,0.06586 0.04267,0.127503 0.04267,0.197427 0,0.01006 0.0049,0.07029 0.0054,0.06943 0.08928,-0.17857 -0.36332,-0.166117 -0.549163,-0.239064"
       id="path11783" />
  </g>
</svg>
