<?xml version="1.0" encoding="UTF-8" standalone="no"?>
<!-- Created with Inkscape (http://www.inkscape.org/) -->

<svg
   width="50"
   height="50"
   viewBox="0 0 13.229166 13.229167"
   version="1.1"
   id="svg5"
   inkscape:version="1.2.2 (b0a8486541, 2022-12-01)"
   sodipodi:docname="text:moveleft.svg"
   xmlns:inkscape="http://www.inkscape.org/namespaces/inkscape"
   xmlns:sodipodi="http://sodipodi.sourceforge.net/DTD/sodipodi-0.dtd"
   xmlns="http://www.w3.org/2000/svg"
   xmlns:svg="http://www.w3.org/2000/svg">
  <sodipodi:namedview
     id="namedview7"
     pagecolor="#ffffff"
     bordercolor="#999999"
     borderopacity="1"
     inkscape:showpageshadow="0"
     inkscape:pageopacity="0"
     inkscape:pagecheckerboard="0"
     inkscape:deskcolor="#d1d1d1"
     inkscape:document-units="mm"
     showgrid="true"
     inkscape:zoom="12.873667"
     inkscape:cx="24.352036"
     inkscape:cy="22.837316"
     inkscape:window-width="1366"
     inkscape:window-height="731"
     inkscape:window-x="0"
     inkscape:window-y="0"
     inkscape:window-maximized="1"
     inkscape:current-layer="layer1">
    <inkscape:grid
       type="xygrid"
       id="grid132" />
  </sodipodi:namedview>
  <defs
     id="defs2" />
  <g
     inkscape:label="Layer 1"
     inkscape:groupmode="layer"
     id="layer1">
    <rect
       style="fill:#d5d912;fill-opacity:1;stroke:none;stroke-width:0.6;stroke-opacity:1"
       id="rect4080"
       width="7.9375"
       height="7.9375005"
       x="5.2916665"
       y="2.645833" />
    <path
       style="fill:#d5d912;fill-opacity:1;stroke:none;stroke-width:1.41421;stroke-dasharray:none;stroke-opacity:1"
       d="M 5.2916647,13.229167 -5e-7,6.614584 5.2916647,0"
       id="path29368" />
    <path
       style="fill:none;stroke:#000000;stroke-width:0.899945;stroke-linecap:square"
       d="m 5.9962617,3.3752033 c 0.2516184,0.8660331 0.062678,1.9156631 0.089155,2.7102134 0.704595,-0.06438 1.2545565,-0.035386 1.8327086,-0.058319"
       id="path2606"
       sodipodi:nodetypes="ccc" />
    <path
       style="fill:none;stroke:#000000;stroke-width:0.9238;stroke-linecap:square"
       d="M 12.170833,6.35 C 10.847916,6.35 10.489898,6.3344034 9.3678279,6.1445917 9.2913731,5.6426719 9.1872402,5.2128767 9.2604167,4.7625 9.302985,4.2110172 9.3393844,3.6743905 9.3359603,3.169703 10.583333,3.175 11.201518,3.3286408 12.134194,3.3680911"
       id="path2610"
       sodipodi:nodetypes="ccccc" />
    <path
       style="fill:none;stroke:#000000;stroke-width:0.9238;stroke-linecap:square"
       d="m 11.90625,5.0270833 c -1.056311,0.076661 -1.539529,0.065739 -2.5112459,-0.081675"
       id="path2612"
       sodipodi:nodetypes="cc" />
    <path
       style="fill:none;stroke:#000000;stroke-width:0.906613;stroke-linecap:square"
       d="M 8.0335167,7.4168686 C 7.3713587,7.3921659 6.4829981,7.4162633 5.7983483,7.3877091 5.8829658,8.1981449 5.7162644,9.099335 5.8728139,9.787873"
       id="path2622"
       sodipodi:nodetypes="ccc" />
    <path
       style="fill:none;stroke:#000000;stroke-width:0.947907;stroke-linecap:square"
       d="m 6.055893,8.6801036 c 0.5276811,0.051395 1.2818459,0.078567 1.7509655,10e-7"
       id="path2624"
       sodipodi:nodetypes="cc" />
    <path
       style="fill:none;stroke:#000000;stroke-width:1;stroke-linecap:square"
       d="M 9.2604167,7.6729167 C 10.571482,7.5609188 11.153051,7.5268007 12.653476,7.5875986"
       id="path2626"
       sodipodi:nodetypes="cc" />
    <path
       style="fill:none;stroke:#000000;stroke-width:1;stroke-linecap:square"
       d="m 10.847917,7.6729166 c -0.08333,0.8389957 -0.02631,1.3595936 0,2.1166667"
       id="path2628"
       sodipodi:nodetypes="cc" />
  </g>
</svg>
