<?xml version="1.0" encoding="UTF-8" standalone="no"?>
<!-- Created with Inkscape (http://www.inkscape.org/) -->

<svg
   width="50"
   height="50"
   viewBox="0 0 13.229166 13.229167"
   version="1.1"
   id="svg5"
   inkscape:version="1.2.2 (b0a8486541, 2022-12-01)"
   sodipodi:docname="text:stop.svg"
   xmlns:inkscape="http://www.inkscape.org/namespaces/inkscape"
   xmlns:sodipodi="http://sodipodi.sourceforge.net/DTD/sodipodi-0.dtd"
   xmlns="http://www.w3.org/2000/svg"
   xmlns:svg="http://www.w3.org/2000/svg">
  <sodipodi:namedview
     id="namedview7"
     pagecolor="#ffffff"
     bordercolor="#999999"
     borderopacity="1"
     inkscape:showpageshadow="0"
     inkscape:pageopacity="0"
     inkscape:pagecheckerboard="0"
     inkscape:deskcolor="#d1d1d1"
     inkscape:document-units="mm"
     showgrid="true"
     inkscape:zoom="6.609479"
     inkscape:cx="5.6736696"
     inkscape:cy="25.41804"
     inkscape:window-width="1366"
     inkscape:window-height="731"
     inkscape:window-x="0"
     inkscape:window-y="0"
     inkscape:window-maximized="1"
     inkscape:current-layer="layer1">
    <inkscape:grid
       type="xygrid"
       id="grid132" />
  </sodipodi:namedview>
  <defs
     id="defs2" />
  <g
     inkscape:label="Layer 1"
     inkscape:groupmode="layer"
     id="layer1">
    <rect
       style="fill:#ffffff;stroke:#000000;stroke-width:0;stroke-dasharray:none"
       id="rect483"
       width="13.229166"
       height="13.229166"
       x="0"
       y="0" />
    <path
       style="fill:none;stroke:#000000;stroke-width:1"
       d="M 3.96875,1.3229166 C 3.6741758,0.99976804 3.2321878,1.0577221 2.8367204,0.99201551 2.5378349,0.942356 2.1154755,0.80267095 1.8209364,0.83220469 1.6762854,0.84670899 1.4597389,1.0113301 1.3524499,1.0814595 1.2540635,1.1457697 1.1056119,1.2220023 1.0286062,1.3161719 0.79663464,1.599848 0.80104865,2.3939 0.83627033,2.7411778 c 0.0273121,0.2692915 0.10821604,1.020654 0.33009847,1.2226623 0.1218023,0.1108924 0.5779823,0.1151945 0.713363,0.1340096 0.5464988,0.075951 1.6103697,0.172874 1.9369634,0.6223553 0.030736,0.0423 0.041833,0.1184722 0.069272,0.1673166 0.083367,0.1484027 0.1166016,0.3042746 0.069272,0.4789633 C 3.9070084,5.5445019 3.6133759,5.6658221 3.4847204,5.7636663 3.2142602,5.969355 2.927808,6.1906485 2.5988805,6.2968904 c -0.065422,0.02113 -0.1466012,-0.00148 -0.2136024,0.00579 -0.1268158,0.013766 -0.242263,0.065836 -0.3688784,0.084127 -0.1718264,0.024823 -0.3371085,0.0057 -0.5077355,-0.005 -0.025487,-0.00159 -0.095389,0.012898 -0.1211873,0 C 1.371422,6.3737735 1.3606899,6.3384244 1.3413476,6.3298858 1.2043895,6.2694269 0.97554514,6.254828 0.82782631,6.254828 c -0.004707,0 -0.0623532,0.0034 -0.0634865,0 C 0.69430547,6.0447237 1.1504462,6.4756513 1.3229166,6.6145832"
       id="path29229" />
    <path
       style="fill:none;stroke:#000000;stroke-width:1"
       d="m 6.6145832,1.3229166 c 0.6514338,0.087629 0.2299674,0.054101 0.9359308,0.046421 1.3836287,-0.015052 1.0008997,0.2845152 2.640944,-0.2716158 0.357823,-0.12133593 0.693367,-0.30270507 1.051124,-0.42423365 0.215131,-0.0730789 0.208129,-0.0364969 0.208129,0.0734942 0,0.0386187 -0.08681,0.21214048 -0.06349,0.23080311 0.08555,0.0684398 0.371574,0.0602483 0.492567,0.0925714 0.07394,0.019752 0.173371,0.028295 0.173103,0.028772 -0.04379,0.077697 -0.09776,0.1491915 -0.146645,0.2237872"
       id="path29231" />
    <path
       style="fill:none;stroke:#000000;stroke-width:1"
       d="m 9.2604166,1.3229166 c 0.053951,0.1082537 0.1344885,0.2069446 0.1618543,0.3247611 0.1201513,0.5172821 0.083502,1.1598306 0.083502,1.6923998 0,0.5373602 0.02122,1.0715664 -0.057857,1.6042065 -0.034803,0.2344246 -0.053166,0.4180671 -0.053166,0.6519093 0,0.076934 0,0.1538689 0,0.2308032 0,0.03461 0,0.1384403 0,0.1038301 0,-0.2291704 -0.046376,-0.2470716 -0.1343331,-0.63916"
       id="path29233" />
    <path
       style="fill:none;stroke:#000000;stroke-width:1"
       d="M 3.96875,7.9374999 C 3.7515302,7.8817903 3.5409512,7.7835823 3.317091,7.7703711 3.1276062,7.7591898 2.9410469,7.8248827 2.7557203,7.8659137 2.4421367,7.9353401 2.2866023,7.9694182 2.1230445,8.2099292 1.7738018,8.7234886 1.2468963,9.281756 1.0220387,9.8396241 0.85773344,10.247263 0.88508154,11.154699 1.1347819,11.498248 c 0.2400743,0.330305 0.7680623,0.369785 1.126807,0.462075 0.2063961,0.0531 0.394025,0.168288 0.6023399,0.214071 0.090014,0.01978 0.2180643,0.01505 0.3093011,0.0058 C 3.7460856,12.12201 4.3771722,12.062472 4.7422532,11.56064 4.9834021,11.229163 4.8810224,10.683701 4.9001875,10.312802 4.9289747,9.7556951 5.0067839,9.2011269 5.0621877,8.6463602 5.0683286,8.5848655 5.0946703,8.4499706 5.0599916,8.3874104 5.0111511,8.2992853 4.5614206,8.1259533 4.4992464,8.1170454 4.4260127,8.106552 4.2292785,8.1312535 4.1646131,8.0939023 4.0922712,8.0521121 4.0340399,7.9896339 3.96875,7.9374999 Z"
       id="path29235" />
    <path
       style="fill:none;stroke:#000000;stroke-width:1"
       d="m 7.9374999,11.90625 c -0.031889,-0.127765 -0.076445,-0.253021 -0.095667,-0.383296 -0.012899,-0.0874 0.00243,-0.176732 0,-0.265048 -0.00769,-0.27985 -0.075171,-0.567173 -0.029398,-0.848154 0.090795,-0.5573506 0.17596,-0.6884257 0.3729439,-1.2969388 0.042046,-0.1298864 0.083362,-0.2600899 0.1196236,-0.3917085 0.0087,-0.031562 0.02032,-0.06871 0.00579,-0.098044 C 8.1474378,8.2933883 7.9892968,8.0120762 7.9270552,7.6376124 7.9188267,7.5881086 7.8806449,7.523464 7.9156411,7.4874966 c 0.026669,-0.02741 0.542749,-0.013613 0.5438571,-0.013761 0.3804833,-0.05072 0.7608964,-0.1045787 1.1379094,-0.1766988 1.5640974,-0.2992017 1.0740574,-0.4062979 2.2267184,-0.086942 0.13966,0.038695 0.342798,0.038385 0.433147,0.1649712 0.132997,0.1863402 0.116452,0.5391994 0.09851,0.759805 -0.04331,0.5326089 -0.352098,0.7761607 -0.755426,1.0895909 -0.22329,0.1735198 -0.472641,0.4377028 -0.748703,0.5260308 -0.154266,0.049359 -0.337249,0.057577 -0.49335,0.084128 -0.7922115,0.1347443 -1.6017878,0.091946 -2.4048242,0.091946 -0.2189871,0 -0.00873,0.4379003 -0.015981,0.6567673"
       id="path29237" />
  </g>
</svg>
