<?xml version="1.0" encoding="UTF-8" standalone="no"?>
<!-- Created with Inkscape (http://www.inkscape.org/) -->

<svg
   width="50"
   height="50"
   viewBox="0 0 13.229166 13.229167"
   version="1.1"
   id="svg5"
   inkscape:version="1.4 (1:1.4+202410161351+e7c3feb100)"
   sodipodi:docname="text:baba.svg"
   xmlns:inkscape="http://www.inkscape.org/namespaces/inkscape"
   xmlns:sodipodi="http://sodipodi.sourceforge.net/DTD/sodipodi-0.dtd"
   xmlns="http://www.w3.org/2000/svg"
   xmlns:svg="http://www.w3.org/2000/svg">
  <sodipodi:namedview
     id="namedview7"
     pagecolor="#ffffff"
     bordercolor="#999999"
     borderopacity="1"
     inkscape:showpageshadow="0"
     inkscape:pageopacity="0"
     inkscape:pagecheckerboard="0"
     inkscape:deskcolor="#d1d1d1"
     inkscape:document-units="mm"
     showgrid="true"
     inkscape:zoom="10.105627"
     inkscape:cx="17.96029"
     inkscape:cy="33.793053"
     inkscape:window-width="1854"
     inkscape:window-height="1011"
     inkscape:window-x="66"
     inkscape:window-y="32"
     inkscape:window-maximized="1"
     inkscape:current-layer="layer1">
    <inkscape:grid
       type="xygrid"
       id="grid132"
       originx="0"
       originy="0"
       spacingy="1"
       spacingx="1"
       units="mm" />
  </sodipodi:namedview>
  <defs
     id="defs2" />
  <g
     inkscape:label="Layer 1"
     inkscape:groupmode="layer"
     id="layer1">
    <path
       style="fill:none;stroke:#0bbf28;stroke-width:1;stroke-opacity:1"
       d="M 10.583333,2.1166666 C 10.13161,2.1097657 9.6769488,2.0440599 9.2281646,2.0959635 8.8217911,2.1429622 8.3804635,2.2087681 8.0551725,2.4568287 7.9623707,2.5275973 7.8993689,2.7172843 7.8346037,2.8117635 7.6028102,3.1499034 7.45844,3.4209264 7.433964,3.8363598 7.406402,4.3041646 7.441764,4.4169898 7.7434836,4.8077304 7.8660484,4.966459 7.9941477,5.1500597 8.1597438,5.2666581 8.317481,5.3777228 8.5646682,5.421418 8.75217,5.421418 c 0.1202118,0 0.298899,0.030071 0.4162602,-0.01056 0.3194314,-0.1105852 0.5097976,-0.3200923 0.7337348,-0.5640776 0.429213,-0.4676383 0.758461,-0.9286819 0.94765,-1.5639412 0.04527,-0.1520066 0.117618,-0.6266418 0.02676,-0.7632404 -0.05152,-0.077457 -0.102897,-0.161436 -0.160112,-0.2347431 -0.04399,-0.056364 -0.104713,-0.2338017 -0.133128,-0.1681895 -0.04063,0.093817 0.05836,0.1963309 0.07744,0.2967715 0.02697,0.1419598 -0.01356,0.2923722 0.01707,0.4321701 0.04985,0.2276057 0.09377,0.3435866 0.161557,0.5937279 0.09604,0.3543639 0.189342,0.7089894 0.289126,1.0616229 0.07621,0.269313 0.185146,0.5305391 0.254414,0.8018579 0.0387,0.151584 0.08287,0.3053135 0.117733,0.4577707 0.0084,0.03659 -0.02683,0.1120923 0.0107,0.1120923 0.0164,0 0.0067,-0.032113 0.0107,-0.048019 0.128059,0.086919 0.256115,0.1738371 0.384172,0.2607556"
       id="path11777" />
    <path
       style="fill:none;stroke:#0bbf28;stroke-width:1;stroke-dasharray:none;stroke-opacity:1"
       d="m 1.2600232,0.7419378 c -0.012435,0.061617 -0.04352,0.1223001 -0.037307,0.1848522 0.00657,0.066139 0.054955,0.1214714 0.074053,0.1851331 0.05078,0.169261 0.09043,0.3428697 0.11108,0.5183729 0.03143,0.267166 -0.0168,0.5458435 0,0.8145859 0.0077,0.1237962 0.03015,0.2464195 0.03703,0.3702662 0.04012,0.7220883 0,1.4608659 0,2.1845714 0,0.1472136 0.0035,0.7440644 0.11108,0.8516125 0.02214,0.022138 0.0832,0.06476 0.11108,0.074053 0.04573,0.015245 0.533905,0.010747 0.555399,0 0.104144,-0.052072 0.189192,-0.1392667 0.296213,-0.1851332 0.09355,-0.040092 0.205182,-0.028538 0.296213,-0.074053 0.116349,-0.058175 0.02482,-0.086423 0.148107,-0.11108 0.03631,-0.00726 0.08146,0.022217 0.11108,0 0.03122,-0.023418 0.01538,-0.078605 0.03703,-0.1110798 0.02905,-0.043569 0.07405,-0.074053 0.11108,-0.11108 0.274198,-0.2741991 0.333238,-0.2923572 0.333238,-0.6664793 0,-0.037442 0.02504,-0.2278896 0,-0.2591864 -0.01526,-0.019076 -0.384905,-0.3574735 -0.407292,-0.3702664 -0.04418,-0.025247 -0.103622,-0.012314 -0.148107,-0.037027 -0.196594,-0.109219 -0.369277,-0.2832111 -0.555399,-0.407293 -0.03247,-0.02165 -0.07861,-0.015377 -0.11108,-0.037027 -0.04357,-0.029046 -0.07966,-0.069189 -0.11108,-0.11108 -0.0074,-0.00987 0.01104,-0.031507 0,-0.037027 -0.02208,-0.011038 -0.05063,0.00781 -0.07405,0 -0.08279,-0.027598 -0.151123,-0.1007482 -0.22216,-0.1481059 -0.136647,-0.091098 -0.323329,-0.074054 -0.481346,-0.074054 -0.01234,0 0.02599,-0.00552 0.03703,0 0.349248,0.1746242 -0.0081,0.00694 0.148106,0.1110801 0.152292,0.1015277 0.416338,0.074053 0.592426,0.074053 0.172699,0 0.38922,0.041545 0.5554,0 0.196659,-0.049165 0.726474,-0.6562327 0.777558,-0.7775592 0.0639,-0.1517616 0.07536,-0.3206017 0.11108,-0.4813461 0.03889,-0.1750216 0.08187,-0.598197 0.03703,-0.7775593 -0.002,-0.008 -0.32335,-0.4734346 -0.333239,-0.4813462 -0.03048,-0.024382 -0.07986,-0.013609 -0.11108,-0.037027 -0.02208,-0.016559 -0.01234,-0.061711 -0.03703,-0.074053 -0.03312,-0.016559 -0.07477,0.00726 -0.11108,0 -0.08119,-0.016237 -0.141838,-0.090999 -0.22216,-0.11107987 -0.177612,-0.044403 -0.590815,0 -0.777559,0 -0.157882,0 -0.405619,-0.045082 -0.5554,0 -0.100936,0.030379 -0.1973,0.074242 -0.295944,0.11136237 z"
       id="path2" />
    <path
       style="fill:none;stroke:#0bbf28;stroke-width:1;stroke-dasharray:none;stroke-opacity:1"
       d="m 9.6385488,8.3178288 c -0.2758805,0.066397 -0.1032319,0.037807 -0.5236355,0.037807 -0.368423,0 -0.7623971,-0.07651 -1.1258166,0 -0.065039,0.013692 -0.1225362,0.051552 -0.1832727,0.078545 -0.017833,0.00793 -0.043636,0.00873 -0.052363,0.026183 C 7.733559,8.5001658 7.742904,8.5496058 7.727278,8.5912727 7.6873233,8.6978178 7.6016985,8.7811938 7.5440051,8.879273 7.4389695,9.0578334 7.301774,9.2754953 7.2560053,9.4814541 c -0.020465,0.092094 0,0.2195605 0,0.3141813 0,0.1235199 -0.01905,0.2272836 0.026183,0.3403636 0.036321,0.0908 0.011033,-0.01515 0.052364,0.02618 0.132929,0.132929 -0.2381295,-0.04216 0.1309087,0.209454 0.5311952,0.362178 0.9343167,0.366545 1.5447253,0.366545 0.7583143,0 0.056249,0.03588 0.4974537,-0.05236 0.034231,-0.0068 0.071609,0.01104 0.1047271,0 0.046836,-0.01561 0.06365,-0.07734 0.1047271,-0.104727 0.1381898,-0.09213 0.1003623,0.0033 0.1832727,-0.183273 0.04887,-0.109958 0.052363,-0.599298 0.052363,-0.7330904 0,-0.1221816 0,-0.2443633 0,-0.366545 0,-0.061091 0,-0.1221816 0,-0.1832723 0,-0.017455 0.00968,-0.03784 0,-0.052364 -0.069818,-0.1047271 -0.043636,0.061091 -0.078545,-0.078545 -0.00451,-0.01805 -0.014978,-0.1197062 -0.026183,-0.130909 -0.019516,-0.019516 -0.055582,-0.010872 -0.078545,-0.02618 -0.028816,-0.019211 -0.032276,-0.1954604 -0.052364,-0.2356358 -0.0039,-0.00781 -0.02001,0.00617 -0.02618,0 -0.018513,-0.018513 0.00542,-0.052932 0,-0.078546 -0.013938,-0.06581 -0.1161815,-0.2161707 -0.052364,-0.1948979 0.1060167,0.035339 0.214032,0.4606245 0.235636,0.5614429 0.01293,0.060341 0.00923,0.1239359 0.026181,0.1832724 0.068408,0.2394265 0.3234351,0.5327166 0.4450911,0.73309 0.125845,0.2072741 0.258102,0.4114771 0.366545,0.6283621 0.04204,0.08407 0.06269,0.177746 0.104727,0.261818 0.194015,0.388031 0.02373,-0.06872 0.183272,0.314181 0.04372,0.104925 0.06664,0.217771 0.130909,0.314182 0.04709,0.07063 0.129804,0.127592 0.157091,0.209454 0.0055,0.01656 0.007,0.06837 0,0.05236 -0.03691,-0.08472 -0.06738,-0.172112 -0.101075,-0.258167"
       id="path8" />
    <path
       style="fill:none;stroke:#0bbf28;stroke-width:1;stroke-dasharray:none;stroke-opacity:1"
       d="m 1.6014604,7.1345644 c -0.010425,0.031754 -0.063028,0.084839 -0.031274,0.095263 0.031754,0.010425 -0.00215,-0.095263 0.031274,-0.095263 0.091277,0 0.1662481,0.08321 0.2567255,0.095263 0.2054816,0.027375 0.5225452,-0.1534427 0.7069082,-0.078545 0.2717984,0.1104181 0.540636,0.2279976 0.8116351,0.3403632 0.086828,0.036002 0.1991421,0.034678 0.2618179,0.1047271 C 3.8172189,7.7960646 4.109221,8.8435669 4.1883645,9.1149159 4.2421895,9.299458 3.9376231,9.3775876 3.8480013,9.4029157 3.5363568,9.4909887 3.2236929,9.5785072 2.9054572,9.6385517 2.7594141,9.6661067 2.608868,9.6587927 2.4603669,9.6647327 c -0.078966,0.00316 -0.235636,-0.052847 -0.235636,0.026183 0,0.017455 0.035084,-0.00246 0.052364,0 0.1136355,0.016235 0.2262761,0.039687 0.3403632,0.052364 0.4751233,0.052791 0.4359034,-0.023315 0.9949076,0.1832724 0.5621528,0.2077519 0.5900203,0.3391229 1.0996348,0.6283629 0.1426028,0.08094 0.2999902,0.133086 0.4450906,0.209455 0.021844,0.0115 0.052363,0.02768 0.052363,0.05236 0,0.01952 -0.037677,0.01333 -0.052363,0.02618 C 5.1013601,10.89167 5.0435562,10.94011 5.0000003,11 4.8334305,11.229034 4.680771,11.467984 4.5287282,11.706908 c -0.080214,0.12605 -0.2936444,0.591051 -0.4974537,0.680727 -0.1959335,0.08621 -1.0907764,0.06292 -1.2829075,-0.05236 -0.1580385,0.01338 0.00528,-0.09944 -0.026182,-0.130908 -0.058218,-0.05822 -0.1379694,-0.09006 -0.2094543,-0.130909 -0.060092,-0.03434 -0.5446235,0.01046 -0.6545446,-0.02618 -0.011709,-0.0039 -0.014473,-0.02228 -0.026182,-0.02618 -0.024838,-0.0083 -0.060032,0.01851 -0.078545,0 -0.032227,-0.03223 0.1024509,-0.652274 0.1047271,-0.680726 0.02227,-0.278383 0,-0.558545 0,-0.837817 0,-0.5323638 0,-1.0647269 0,-1.5970897 0,-0.3403632 0,-0.6807263 0,-1.0210895 0,-0.1745451 -0.012436,-0.3495339 0,-0.5236355 0.01565,-0.219102 0.052364,-0.4344512 0.052364,-0.6545445"
       id="path9" />
  </g>
</svg>
