<?xml version="1.0" encoding="UTF-8" standalone="no"?>
<!-- Created with Inkscape (http://www.inkscape.org/) -->

<svg
   width="50"
   height="50"
   viewBox="0 0 13.229166 13.229167"
   version="1.1"
   id="svg5"
   inkscape:version="1.2.2 (b0a8486541, 2022-12-01)"
   sodipodi:docname="text:you.svg"
   xmlns:inkscape="http://www.inkscape.org/namespaces/inkscape"
   xmlns:sodipodi="http://sodipodi.sourceforge.net/DTD/sodipodi-0.dtd"
   xmlns="http://www.w3.org/2000/svg"
   xmlns:svg="http://www.w3.org/2000/svg">
  <sodipodi:namedview
     id="namedview7"
     pagecolor="#ffffff"
     bordercolor="#999999"
     borderopacity="1"
     inkscape:showpageshadow="0"
     inkscape:pageopacity="0"
     inkscape:pagecheckerboard="0"
     inkscape:deskcolor="#d1d1d1"
     inkscape:document-units="mm"
     showgrid="true"
     inkscape:zoom="9.9647704"
     inkscape:cx="25.841037"
     inkscape:cy="27.19581"
     inkscape:window-width="1366"
     inkscape:window-height="731"
     inkscape:window-x="0"
     inkscape:window-y="0"
     inkscape:window-maximized="1"
     inkscape:current-layer="layer1">
    <inkscape:grid
       type="xygrid"
       id="grid132" />
  </sodipodi:namedview>
  <defs
     id="defs2" />
  <g
     inkscape:label="Layer 1"
     inkscape:groupmode="layer"
     id="layer1">
    <rect
       style="fill:#f2657f;fill-opacity:1;stroke:none;stroke-width:1;stroke-linecap:square;stroke-opacity:1"
       id="rect904"
       width="13.229166"
       height="13.229166"
       x="3.1789145e-07"
       y="6.357829e-07" />
    <path
       style="fill:none;fill-opacity:1;stroke:#000000;stroke-width:1.1244;stroke-opacity:1"
       d="m 1.1794499,1.7833028 c -0.21916427,0.8839695 -0.1538561,1.6758216 -0.078475,2.5446236 0.015443,0.1779843 0.019395,0.3740625 0.07926,0.5396134 0.1827986,0.5055118 0.4141107,0.9729131 0.6767484,1.4176965 0.2242494,0.3797718 0.735398,0.6003109 1.0987942,0.486036 0.083946,-0.026399 0.1781283,-0.1314099 0.2295366,-0.2159549 0.062127,-0.102173 0.045946,-0.2451997 0.085335,-0.35767 C 3.3721621,5.907792 3.4779787,5.5608828 3.5677299,5.3042044 4.1224291,3.7178253 3.876038,4.629199 4.0914543,3.4006546 4.1732672,2.9340659 4.2650641,2.4703634 4.3532442,2.0056325 4.3799277,1.8650039 4.4439333,1.724053 4.4251278,1.5814023 4.4237255,1.5708052 4.3741627,1.4217979 4.3503512,1.4667505 4.3258826,1.5129422 4.0944259,2.6672515 4.0632503,2.8599441 3.8399168,4.2403388 3.651601,5.3628112 3.4974373,6.7008723 3.4479183,7.1306692 3.4577303,7.5455275 3.4395833,7.9772197 3.4146063,8.5713957 3.295858,9.1754325 3.2230645,9.7608143 c -0.02064,0.165983 -0.053453,0.3291927 -0.078248,0.4942647 -0.049774,0.331379 -0.030527,0.692323 -0.149842,0.994015 -0.00348,0.0088 -0.1344798,0 -0.19627,0 -0.5115238,0 -0.9503146,-0.02717 -1.3981893,-0.348893 -0.1940014,-0.139359 -0.49515657,-0.415332 -0.59560837,-0.689922 -0.036863,-0.100762 -0.018343,-0.2136407 -0.069425,-0.3170757 -0.018076,-0.0366 -0.093994,-0.121546 -0.063929,-0.101116 0.170276,0.115668 0.33859787,0.2358847 0.50789677,0.3538267"
       id="path15914" />
    <path
       style="fill:none;fill-opacity:1;stroke:#000000;stroke-width:1.1244;stroke-opacity:1"
       d="M 6.4101379,3.2901902 C 5.875477,4.6919348 5.233179,6.0358558 4.8061547,7.4954243 c -0.1679001,0.5738819 0.063743,1.8871603 0.3594185,2.424329 0.093702,0.1702307 0.2714717,0.3121547 0.4015075,0.4160007 0.5218142,0.416718 1.1079097,0.6169 1.5766693,-0.017 C 7.3321593,10.063963 7.3653071,9.4981383 7.4266565,9.1883225 7.55025,8.5641742 7.6012312,8.1394293 7.6012312,7.5009107 c 0,-0.7139948 0.020939,-1.4177972 -0.089818,-2.1222476 C 7.4246907,4.8270789 7.2858704,4.4085712 7.0637667,3.9322571 6.9906806,3.7755198 6.9242477,3.5709165 6.7976377,3.4674326 6.6842444,3.3747508 6.5374171,3.331021 6.4101379,3.2901902 Z"
       id="path15916" />
    <path
       style="fill:none;fill-opacity:1;stroke:#000000;stroke-width:1.1244;stroke-opacity:1"
       d="M 9.6640921,3.0974905 C 8.6627833,5.7778068 9.1358845,4.1043203 9.2604167,9.6701843 c 0.00294,0.131206 0.12401,0.8032907 0.288258,0.9689637 0.3051556,0.307804 0.9090973,0.321367 1.2555783,0.177921 0.437616,-0.181179 1.005246,-0.8553017 1.222313,-1.3438227 0.267056,-0.6010227 0.336358,-1.5719985 0.391672,-2.2454934 0.02895,-0.3525027 -0.0016,-0.720388 0.0098,-1.0728267 0.0119,-0.3661926 0.0574,-0.7373803 0.09358,-1.1009869 0.0103,-0.103555 0.02371,-0.2065788 0.03515,-0.309944 0.04667,-0.4219628 0.06378,-0.9770637 0.06378,-1.4103823 0,-0.03795 -0.0034,-0.2589127 -0.02126,-0.2698982 -0.08711,-0.05358 -0.192961,0.022089 -0.289395,0.033776"
       id="path15918" />
  </g>
</svg>
