<?xml version="1.0" encoding="UTF-8" standalone="no"?>
<!-- Created with Inkscape (http://www.inkscape.org/) -->

<svg
   width="50"
   height="50"
   viewBox="0 0 13.229166 13.229167"
   version="1.1"
   id="svg5"
   inkscape:version="1.2.2 (b0a8486541, 2022-12-01)"
   sodipodi:docname="text:you.svg"
   xmlns:inkscape="http://www.inkscape.org/namespaces/inkscape"
   xmlns:sodipodi="http://sodipodi.sourceforge.net/DTD/sodipodi-0.dtd"
   xmlns="http://www.w3.org/2000/svg"
   xmlns:svg="http://www.w3.org/2000/svg">
  <sodipodi:namedview
     id="namedview7"
     pagecolor="#ffffff"
     bordercolor="#999999"
     borderopacity="1"
     inkscape:showpageshadow="0"
     inkscape:pageopacity="0"
     inkscape:pagecheckerboard="0"
     inkscape:deskcolor="#d1d1d1"
     inkscape:document-units="mm"
     showgrid="true"
     inkscape:zoom="9.9647704"
     inkscape:cx="25.740683"
     inkscape:cy="33.217022"
     inkscape:window-width="1366"
     inkscape:window-height="731"
     inkscape:window-x="0"
     inkscape:window-y="0"
     inkscape:window-maximized="1"
     inkscape:current-layer="layer1">
    <inkscape:grid
       type="xygrid"
       id="grid132" />
  </sodipodi:namedview>
  <defs
     id="defs2" />
  <g
     inkscape:label="Layer 1"
     inkscape:groupmode="layer"
     id="layer1">
    <path
       style="fill:none;stroke:#f2657f;stroke-width:1;stroke-opacity:1"
       d="m 1.1794499,2.2445393 c -0.21916427,0.6991945 -0.1538561,1.3255268 -0.078475,2.0127243 0.015443,0.1407805 0.019395,0.2958727 0.07926,0.4268187 0.1827986,0.3998454 0.4141107,0.7695464 0.6767484,1.1213573 0.2242494,0.3003886 0.735398,0.4748287 1.0987942,0.3844406 C 3.0397237,6.1689993 3.1339058,6.0859387 3.1853141,6.019066 3.2474415,5.9382501 3.2312598,5.8251201 3.2706491,5.7361593 3.3721621,5.506892 3.4779787,5.2324968 3.5677299,5.0294715 4.1224291,3.7746911 3.876038,4.4955616 4.0914543,3.5238182 4.1732672,3.1547599 4.2650641,2.7879845 4.3532442,2.4203957 4.3799277,2.3091625 4.4439333,2.1976744 4.4251278,2.0848418 4.4237255,2.0764598 4.3741627,1.9585993 4.3503512,1.9941555 4.3258826,2.0306918 4.0944259,2.9437174 4.0632503,3.0961317 3.8399168,4.1879843 3.651601,5.0758278 3.4974373,6.1341958 3.4479183,6.4741528 3.4577303,6.8022938 3.4395833,7.14375 3.4146063,7.6137262 3.295858,8.091502 3.2230645,8.5545223 c -0.02064,0.131288 -0.053453,0.260382 -0.078248,0.390949 -0.049774,0.262112 -0.030527,0.547608 -0.149842,0.786238 -0.00348,0.007 -0.1344798,0 -0.19627,0 -0.5115238,0 -0.9503146,-0.02149 -1.3981893,-0.275965 -0.1940014,-0.110229 -0.49515657,-0.328515 -0.59560837,-0.545708 -0.036863,-0.0797 -0.018343,-0.168984 -0.069425,-0.250798 -0.018076,-0.02895 -0.093994,-0.09614 -0.063929,-0.07998 0.170276,0.09149 0.33859787,0.186578 0.50789677,0.279867"
       id="path15914" />
    <path
       style="fill:none;stroke:#f2657f;stroke-width:1;stroke-opacity:1"
       d="M 6.4101379,3.436444 C 5.875477,4.5451838 5.233179,5.6081868 4.8061547,6.7626636 c -0.1679001,0.4539242 0.063743,1.4926897 0.3594185,1.9175747 0.093702,0.134648 0.2714717,0.246906 0.4015075,0.329045 0.5218142,0.329612 1.1079097,0.48795 1.5766693,-0.01345 C 7.3321593,8.7943043 7.3653071,8.3467533 7.4266565,8.1016976 7.55025,7.6080142 7.6012312,7.2720531 7.6012312,6.7670032 c 0,-0.5647494 0.020939,-1.1214369 -0.089818,-1.678637 C 7.4246907,4.6520789 7.2858704,4.3210513 7.0637667,3.9443005 6.9906806,3.8203258 6.9242477,3.6584905 6.7976377,3.5766377 6.6842444,3.503329 6.5374171,3.46874 6.4101379,3.436444 Z"
       id="path15916" />
    <path
       style="fill:none;stroke:#f2657f;stroke-width:1;stroke-opacity:1"
       d="M 9.6640921,3.2840241 C 8.6627833,5.4040774 9.1358845,4.0803976 9.2604167,8.4828364 c 0.00294,0.10378 0.12401,0.63538 0.288258,0.766423 0.3051556,0.243464 0.9090973,0.254192 1.2555783,0.14073 0.437616,-0.143307 1.005246,-0.676519 1.222313,-1.062925 0.267056,-0.475392 0.336358,-1.243406 0.391672,-1.7761212 0.02895,-0.2788195 -0.0016,-0.5698062 0.0098,-0.8485751 0.0119,-0.2896479 0.0574,-0.5832467 0.09358,-0.8708491 0.0103,-0.081909 0.02371,-0.1633979 0.03515,-0.2451568 0.04667,-0.3337605 0.06378,-0.7728294 0.06378,-1.115572 0,-0.030017 -0.0034,-0.2047925 -0.02126,-0.2134817 -0.08711,-0.04238 -0.192961,0.017472 -0.289395,0.026716"
       id="path15918" />
  </g>
</svg>
