<?xml version="1.0" encoding="UTF-8" standalone="no"?>
<!-- Created with Inkscape (http://www.inkscape.org/) -->

<svg
   width="50"
   height="50"
   viewBox="0 0 13.229166 13.229167"
   version="1.1"
   id="svg5"
   inkscape:version="1.2.2 (b0a8486541, 2022-12-01)"
   sodipodi:docname="text:is.svg"
   xmlns:inkscape="http://www.inkscape.org/namespaces/inkscape"
   xmlns:sodipodi="http://sodipodi.sourceforge.net/DTD/sodipodi-0.dtd"
   xmlns="http://www.w3.org/2000/svg"
   xmlns:svg="http://www.w3.org/2000/svg">
  <sodipodi:namedview
     id="namedview7"
     pagecolor="#ffffff"
     bordercolor="#999999"
     borderopacity="1"
     inkscape:showpageshadow="0"
     inkscape:pageopacity="0"
     inkscape:pagecheckerboard="0"
     inkscape:deskcolor="#d1d1d1"
     inkscape:document-units="mm"
     showgrid="true"
     inkscape:zoom="7.1457576"
     inkscape:cx="21.061448"
     inkscape:cy="23.650396"
     inkscape:window-width="1366"
     inkscape:window-height="731"
     inkscape:window-x="0"
     inkscape:window-y="0"
     inkscape:window-maximized="1"
     inkscape:current-layer="layer1">
    <inkscape:grid
       type="xygrid"
       id="grid132" />
  </sodipodi:namedview>
  <defs
     id="defs2" />
  <g
     inkscape:label="Layer 1"
     inkscape:groupmode="layer"
     id="layer1">
    <rect
       style="fill:#ffffff;stroke:#000000;stroke-width:0;stroke-dasharray:none"
       id="rect483"
       width="13.229166"
       height="13.229166"
       x="0"
       y="0" />
    <path
       style="fill:#ffffff;stroke:#000000;stroke-width:1"
       d="M 2.6458333,5.2916666 C 2.4353822,5.9853721 2.1464425,6.6599699 2.0144801,7.3727833 1.9031085,7.974373 2.3474881,9.1017459 2.5222946,9.6677111 c 0.043547,0.1409914 0.037772,0.2825059 0.061036,0.4269639 0.033973,0.210957 0.1020806,0.41828 0.1540365,0.625403 0.027677,0.110333 0.03746,0.212179 0.03746,0.325574 0,0.04156 0.046797,0.293782 0.015909,0.165462 -0.050259,-0.208799 -0.096602,-0.418521 -0.1449038,-0.627781"
       id="path3392" />
    <path
       style="fill:#ffffff;stroke:#000000;stroke-width:1"
       d="m 2.6458333,2.6458333 c -0.041951,0.1377826 -0.092409,0.2732569 -0.1258529,0.4133474 -0.014843,0.062174 0.017236,0.1903632 0.022563,0.2516653 0.029847,0.3434898 -0.045744,0.3590796 0.1032897,0.657904"
       id="path3394" />
    <path
       style="fill:#ffffff;stroke:#000000;stroke-width:1"
       d="m 10.583333,2.6458333 c -0.120315,0.1906225 -0.198111,0.4159911 -0.360945,0.5718678 -0.0069,0.00663 -0.7819728,0.3064406 -0.7966516,0.312412 C 9.1716867,3.6334625 8.9362784,3.7738761 8.687518,3.8890979 8.3000373,4.068573 7.8949131,4.2167558 7.5106206,4.3996604 7.1452787,4.5735456 7.1559681,4.7336455 6.9393114,5.1024432 6.832438,5.2843654 6.7235466,5.4651536 6.6108447,5.6435238 6.492577,5.830703 6.3680845,6.0138759 6.2465084,6.1989234 c -0.00597,0.00908 -0.050143,0.05997 -0.03746,0.085335 0.1380755,0.2761512 0.4878001,0.3428984 0.764976,0.3908047 0.6255758,0.1081225 1.2675209,0.032687 1.8937097,0.141887 0.1405279,0.024506 0.2811897,0.087191 0.415971,0.1307505 0.4259289,0.1376555 0.8499069,0.2613766 1.2493599,0.4671719 0.235045,0.1210937 0.542475,0.3080422 0.588232,0.601972 0.01702,0.109351 0.102873,1.0009942 0.06726,1.0720366 -0.09788,0.1952332 -0.44705,0.5439519 -0.558437,0.6731326 -0.327356,0.3796493 -0.7010152,0.7483873 -1.1781982,0.9320293 -0.4555188,0.175305 -1.1065578,0.216664 -1.5947485,0.216664 -0.1558305,0 -0.8298841,0.04174 -0.8508894,0.02343 C 6.8741604,10.81896 6.745148,10.700268 6.6145832,10.583333"
       id="path3396" />
  </g>
</svg>
