<?xml version="1.0" encoding="UTF-8" standalone="no"?>
<!-- Created with Inkscape (http://www.inkscape.org/) -->

<svg
   width="50"
   height="50"
   viewBox="0 0 13.229166 13.229167"
   version="1.1"
   id="svg5"
   inkscape:version="1.2.2 (b0a8486541, 2022-12-01)"
   sodipodi:docname="unknown.svg"
   xmlns:inkscape="http://www.inkscape.org/namespaces/inkscape"
   xmlns:sodipodi="http://sodipodi.sourceforge.net/DTD/sodipodi-0.dtd"
   xmlns="http://www.w3.org/2000/svg"
   xmlns:svg="http://www.w3.org/2000/svg">
  <sodipodi:namedview
     id="namedview7"
     pagecolor="#ffffff"
     bordercolor="#999999"
     borderopacity="1"
     inkscape:showpageshadow="0"
     inkscape:pageopacity="0"
     inkscape:pagecheckerboard="0"
     inkscape:deskcolor="#d1d1d1"
     inkscape:document-units="mm"
     showgrid="true"
     inkscape:zoom="6.609479"
     inkscape:cx="5.6736696"
     inkscape:cy="25.41804"
     inkscape:window-width="1366"
     inkscape:window-height="731"
     inkscape:window-x="0"
     inkscape:window-y="0"
     inkscape:window-maximized="1"
     inkscape:current-layer="layer1">
    <inkscape:grid
       type="xygrid"
       id="grid132" />
  </sodipodi:namedview>
  <defs
     id="defs2" />
  <g
     inkscape:label="Layer 1"
     inkscape:groupmode="layer"
     id="layer1">
    <rect
       style="fill:#ff0000;stroke:#000000;stroke-width:0;stroke-dasharray:none"
       id="rect483"
       width="13.229166"
       height="13.229166"
       x="0"
       y="0" />
    <path
       style="fill:#ff0000;fill-opacity:1;stroke:#000000;stroke-width:1;stroke-dasharray:none;stroke-opacity:1"
       d="m 0,1.3229166 c 0.54203284,0.052064 1.0824124,0.1259329 1.6260986,0.1561935 0.3208181,0.017856 0.642609,-0.0061 0.9638687,-0.01204 0.1131425,-0.00209 0.1498,-0.021058 0.2442509,0.0025 C 3.757667,1.6999136 4.2449633,2.6963089 4.2470273,3.5949628 4.2478211,3.9359575 4.1444203,4.6588542 3.899259,4.9331829 3.6014914,5.2663761 3.2124562,5.4415438 2.7760485,5.4415438 c -0.028553,0 -0.6275902,-0.020135 -0.692253,0.012197 -0.036396,0.018198 0.066372,0.1454287 0.1149324,0.2874092 0.1054088,0.3081954 0.1740565,0.6255716 0.2422182,0.9432279 0.084828,0.3953256 -0.060727,0.8263967 0.023143,1.2170328 0.053486,0.2491182 0.1482341,0.4902594 0.2010928,0.738695 0.013697,0.064384 -0.025133,0.1191704 -0.080687,0.1499594 -0.00617,0.00342 -0.053345,0.00547 -0.051915,0.01157 0.035926,0.153366 0.075503,0.3058538 0.113254,0.4587809"
       id="path18859" />
    <path
       style="fill:#ff0000;fill-opacity:1;stroke:#000000;stroke-width:1;stroke-dasharray:none;stroke-opacity:1"
       d="M 2.6458333,10.583333 V 11.90625"
       id="path18861" />
    <path
       style="fill:#ff0000;fill-opacity:1;stroke:#000000;stroke-width:1;stroke-dasharray:none;stroke-opacity:1"
       d="m 5.2916666,1.3229166 c 0.5487813,0.485107 1.2102573,0.8668327 1.6463436,1.4553211 0.054897,0.074082 0.2067057,0.9599509 0.273023,1.3202375 0.065473,0.3556978 0.049923,0.6492991 0.046286,1.0264169 -0.00246,0.2558489 -0.00815,0.5116581 -0.013293,0.7674673 C 7.2395918,6.1131126 7.2278205,6.1829727 7.0471556,6.3283208 6.9518513,6.4049954 6.8317813,6.4466559 6.7098639,6.4151065 6.3948013,6.3335756 6.0114018,5.996283 5.6321573,5.875784 5.5937975,5.8635947 5.2107022,5.7433183 5.1994797,5.7603826 c -0.033205,0.050489 0.144722,0.4952333 0.1557451,0.5496427 0.048263,0.2382208 0.099634,0.4822241 0.1254093,0.72384 0.041696,0.3908507 2.379e-4,0.7448007 0.07584,1.136033 0.04838,0.2503609 0.085612,0.5269211 0.1099288,0.7787258 0.00936,0.096926 0.053808,0.1819715 0.06333,0.2769325 9.525e-4,0.00959 0.00964,0.028671 0,0.028928 -0.1459825,0.0039 -0.2920436,0.00395 -0.4380661,0.00593"
       id="path18863" />
    <path
       style="fill:#ff0000;fill-opacity:1;stroke:#000000;stroke-width:1;stroke-dasharray:none;stroke-opacity:1"
       d="M 6.6145832,11.90625 C 6.3334984,11.861153 6.0462207,11.844963 5.7713284,11.770958 5.4628089,11.6879 5.6767605,11.698198 5.6520177,11.62397 5.6189824,11.524864 5.4845148,11.440613 5.429346,11.348914 c -0.020288,-0.03372 0.010882,-0.113774 0,-0.150116 C 5.340252,10.901281 5.3259309,10.955301 5.2916666,10.583333"
       id="path18865" />
    <path
       style="fill:#ff0000;fill-opacity:1;stroke:#000000;stroke-width:1;stroke-dasharray:none;stroke-opacity:1"
       d="m 7.9374999,1.3229166 c 1.5862496,-0.42691407 0.5286393,-0.2158293 3.9297831,0.4411009 0.506178,0.097768 0.860694,0.5570759 1.002961,1.0337665 0.07031,0.2355909 0.08204,0.5006631 0.118216,0.7376004 0.03161,0.2070235 0.142756,0.4961268 0.09429,0.7057009 C 13.02922,4.4725497 12.866499,4.664176 12.756404,4.8746991 12.409342,5.538349 12.064954,6.2033935 11.719041,6.8676432 11.196911,7.870282 11.350179,7.5101923 10.397396,8.4200912 10.264915,8.546612 9.9447986,8.9856092 9.6588597,9.0512031 9.5261265,9.0816519 9.0348773,8.6588692 8.9666068,8.6588692 c -0.018121,0 0.01978,0.030395 0.028772,0.046129 0.040875,0.071531 0.083764,0.1441111 0.1186852,0.2200137 0.1178497,0.2561476 0.2435101,0.5021207 0.3770098,0.7491717 0.1662393,0.3076384 0.3570097,0.9032314 0.4591042,1.1723114 0.030336,0.08819 0.060672,0.176386 0.091008,0.264579 0.0077,0.01538 0.01674,0.03016 0.02314,0.04613 0.0094,0.02345 0.002,0.09427 0.01736,0.109616 0.0027,0.0027 0.0077,0 0.01157,0 0.16336,0.213144 0.326719,0.426287 0.490077,0.639431"
       id="path18867" />
    <path
       style="fill:#ff0000;fill-opacity:1;stroke:#000000;stroke-width:1;stroke-dasharray:none;stroke-opacity:1"
       d="m 10.583333,12.435417 c 0.292202,0.137648 0.573255,0.302002 0.876604,0.412944 0.02549,0.0093 0.164299,-0.04423 0.215948,-0.05395 0.02676,-0.005 0.165208,0.01014 0.167316,0 0.02473,-0.118955 0.04203,-0.239331 0.06305,-0.358996"
       id="path18871" />
  </g>
</svg>
