<?xml version="1.0" encoding="UTF-8" standalone="no"?>
<!-- Created with Inkscape (http://www.inkscape.org/) -->

<svg
   width="50"
   height="50"
   viewBox="0 0 13.229166 13.229167"
   version="1.1"
   id="svg5"
   inkscape:version="1.2.2 (b0a8486541, 2022-12-01)"
   sodipodi:docname="water.svg"
   xmlns:inkscape="http://www.inkscape.org/namespaces/inkscape"
   xmlns:sodipodi="http://sodipodi.sourceforge.net/DTD/sodipodi-0.dtd"
   xmlns="http://www.w3.org/2000/svg"
   xmlns:svg="http://www.w3.org/2000/svg">
  <sodipodi:namedview
     id="namedview7"
     pagecolor="#ffffff"
     bordercolor="#999999"
     borderopacity="1"
     inkscape:showpageshadow="0"
     inkscape:pageopacity="0"
     inkscape:pagecheckerboard="0"
     inkscape:deskcolor="#d1d1d1"
     inkscape:document-units="mm"
     showgrid="true"
     inkscape:zoom="6.609479"
     inkscape:cx="5.6736696"
     inkscape:cy="25.41804"
     inkscape:window-width="1366"
     inkscape:window-height="731"
     inkscape:window-x="0"
     inkscape:window-y="0"
     inkscape:window-maximized="1"
     inkscape:current-layer="layer1">
    <inkscape:grid
       type="xygrid"
       id="grid132" />
  </sodipodi:namedview>
  <defs
     id="defs2" />
  <g
     inkscape:label="Layer 1"
     inkscape:groupmode="layer"
     id="layer1">
    <rect
       style="fill:#ffffff;stroke:#000000;stroke-width:0;stroke-dasharray:none"
       id="rect483"
       width="13.229166"
       height="13.229166"
       x="0"
       y="0" />
    <path
       style="fill:none;stroke:#0000ff;stroke-width:1;stroke-dasharray:none;fill-opacity:1;stroke-opacity:1"
       d="M 0,1.3229166 C 0.11102317,1.0809522 0.20342189,0.82954084 0.33306951,0.59702321 c 0.0124936,-0.022407 0.24877045,-0.005786 0.26489191,-0.005786 0.32047989,0 0.74080938,-0.0829976 1.05143638,-0.0140735 0.2707039,0.0600658 0.3403649,0.37881211 0.455195,0.58764099 C 2.3339561,1.5819231 2.755747,1.9763803 3.2450039,2.0417318 3.65316,2.0962503 4.0656724,1.9125344 4.4432725,1.791226 5.1342363,1.5692458 5.8214024,1.3851055 6.5320719,1.2425213 6.8375021,1.1812417 7.1278754,1.0531839 7.4418364,1.0697317 7.6837507,1.0824823 7.8642497,1.3605488 8.0422998,1.4947472 8.1785803,1.5974635 8.324784,1.6666604 8.4876433,1.7199209 8.7346323,1.8006949 9.529678,1.9889895 9.8083501,1.8694113 10.084004,1.751128 10.359767,1.564563 10.599742,1.379502 c 0.189677,-0.1462733 0.625473,-0.56027607 0.837052,-0.56027607 0.09638,0 0.175126,0.0590986 0.271303,0.0634865 0.05301,0.002418 0.143178,-0.0629321 0.158716,-0.012197 0.04433,0.14473617 0.02629,0.30160087 0.03944,0.45240117"
       id="path2780" />
    <path
       style="fill:none;stroke:#0000ff;stroke-width:1;stroke-dasharray:none;fill-opacity:1;stroke-opacity:1"
       d="M 0,5.2916666 C 0.58831858,4.7652431 1.003518,3.92085 1.7649557,3.712396 2.4591876,3.5223405 2.8800126,5.183067 3.52006,5.072508 3.6837215,5.0442378 3.7591817,4.8945709 3.900979,4.8301335 4.2190079,4.6856104 4.5627374,4.6842372 4.9014385,4.5162975 5.3175802,4.3099601 5.6384123,3.9184606 6.0829753,3.7574307 c 0.375516,-0.1360197 1.0963616,-0.01892 1.4842704,0.041751 0.5833634,0.091242 1.6773715,0.8661167 2.1386816,1.2085888 0.2871919,0.2132087 0.6196227,0.6477336 1.0081217,0.6695792 0.600812,0.033784 1.050223,-0.5347449 1.47739,-0.8717663 0.152841,-0.1205871 0.340699,-0.2930324 0.524467,-0.3817009 0.081,-0.039084 0.347652,-0.067885 0.386548,-0.1385443 0.05482,-0.099578 0.08447,-0.2110589 0.126713,-0.3165882"
       id="path2782" />
    <path
       style="fill:none;stroke:#0000ff;stroke-width:1;stroke-dasharray:none;fill-opacity:1;stroke-opacity:1"
       d="M 13.229167,6.6145832 C 12.484116,7.2405771 11.653345,7.7872073 10.78035,8.2246278 10.403864,8.4132691 9.9768656,8.6854955 9.5595643,8.7800565 9.1287395,8.8776817 8.2216725,8.2643902 7.9648962,7.9699 7.7421334,7.7144191 7.5288517,7.384752 7.3575526,7.0873439 7.1407016,6.7108495 7.0602797,6.4262216 6.6482552,6.2116683 6.4927368,6.1306852 6.2925824,6.0460596 6.1101837,6.0665563 5.5911053,6.1248871 5.15499,7.003611 4.8180929,7.3405081 4.518679,7.6399222 3.9002702,7.938713 3.5164635,8.137373 2.8951999,8.4589415 2.7083348,7.9971182 2.3713611,7.5764714 2.3163378,7.5077854 2.1731265,7.4953957 2.1002144,7.4552841 1.9559625,7.375926 1.87445,7.1829416 1.8074885,7.047626 1.7303585,6.8917618 1.6112938,6.4715564 1.501002,6.4715564 c -0.081539,0 -0.1861305,0.1890051 -0.194056,0.1989034 C 0.75481843,7.3600336 1.2388354,6.7493908 0.73478577,7.4027437 0.68159648,7.471688 0.57700129,7.5841465 0.53244212,7.673265 0.50573013,7.7266889 0.45981611,7.9027228 0.45159847,7.9040679 0.30263671,7.9284549 0.15053283,7.9263559 0,7.9374999"
       id="path2784" />
    <path
       style="fill:none;stroke:#0000ff;stroke-width:1;stroke-dasharray:none;fill-opacity:1;stroke-opacity:1"
       d="m 0,10.583333 c 0.27781856,-0.125465 0.55722136,-0.247479 0.83345564,-0.376394 0.0477977,-0.02231 0.10321449,-0.07314 0.1546506,-0.09507 0.0423173,-0.01804 0.19028246,-0.0092 0.21813706,-0.01251 0.1194079,-0.01416 0.2384071,-0.03174 0.3579325,-0.04488 0.610724,-0.067116 1.0070536,-0.1517134 1.5361855,0.135104 0.7264318,0.393764 1.1900463,1.103535 2.1120986,0.903041 0.2262052,-0.04919 0.696732,-0.249043 0.8495617,-0.44034 0.049994,-0.06258 0.058458,-0.149193 0.090695,-0.222516 0.1819175,-0.41376 0.1027528,-0.5597481 0.5382279,-0.6764592 0.087867,-0.023551 0.2593924,-0.050035 0.3524594,-0.032212 0.5337209,0.1022069 0.9363651,0.9925872 1.2479943,1.3558902 0.1094679,0.12762 0.2510811,0.214768 0.385141,0.313524 0.7778467,0.573 1.1516426,0.578426 2.1344598,0.498352 0.405856,-0.03307 0.836063,-0.02166 1.199519,-0.232367 0.254703,-0.147657 0.689339,-0.437834 0.900226,-0.666764 0.110131,-0.119555 0.187459,-0.324639 0.318423,-0.406398"
       id="path2786" />
    <path
       style="fill:none;stroke:#0000ff;stroke-width:1;stroke-dasharray:none;fill-opacity:1;stroke-opacity:1"
       d="m 13.229167,11.90625 c -0.198296,0.146248 -0.390564,0.301042 -0.594886,0.438745 -0.22154,0.149306 -0.544407,0.129984 -0.793425,0.196401 -0.305641,0.08152 -0.620383,0.192232 -0.917583,0.304141 -0.388772,0.146391 -0.761413,0.333683 -1.1461972,0.48991 -0.2754143,0.111821 -0.5675111,0.191431 -0.847998,0.289285 C 8.4381167,13.796016 7.767267,14.031431 7.2502823,13.861321 6.8278268,13.722315 6.4368767,13.396478 6.1391122,13.07853 5.9731798,12.901349 5.8445682,12.696026 5.6467012,12.549684 5.2265481,12.238941 4.5764262,12.191725 4.0737686,12.111221 c -0.3606091,-0.05776 -0.7330545,-0.02216 -1.096002,-0.01329 -0.4184563,0.01022 -0.8153253,0.02658 -1.2323572,0.07819 -0.2017887,0.02497 -0.3961581,0.02309 -0.5971796,0.04081 -0.16866127,0.01488 -0.32784399,0.07459 -0.5000734,0.0441 -0.0480242,-0.0085 -0.0915468,-0.0978 -0.092415,-0.0982 C 0.37083748,12.076559 0.18524711,11.991774 0,11.90625"
       id="path2788" />
  </g>
</svg>
