<?xml version="1.0" encoding="UTF-8" standalone="no"?>
<!-- Created with Inkscape (http://www.inkscape.org/) -->

<svg
   width="50"
   height="50"
   viewBox="0 0 13.229166 13.229167"
   version="1.1"
   id="svg5"
   inkscape:version="1.4 (1:1.4+202410161351+e7c3feb100)"
   sodipodi:docname="water.svg"
   xmlns:inkscape="http://www.inkscape.org/namespaces/inkscape"
   xmlns:sodipodi="http://sodipodi.sourceforge.net/DTD/sodipodi-0.dtd"
   xmlns="http://www.w3.org/2000/svg"
   xmlns:svg="http://www.w3.org/2000/svg">
  <sodipodi:namedview
     id="namedview7"
     pagecolor="#ffffff"
     bordercolor="#999999"
     borderopacity="1"
     inkscape:showpageshadow="0"
     inkscape:pageopacity="0"
     inkscape:pagecheckerboard="0"
     inkscape:deskcolor="#d1d1d1"
     inkscape:document-units="mm"
     showgrid="true"
     inkscape:zoom="11.313709"
     inkscape:cx="42.558989"
     inkscape:cy="34.073708"
     inkscape:window-width="1920"
     inkscape:window-height="1043"
     inkscape:window-x="1920"
     inkscape:window-y="0"
     inkscape:window-maximized="1"
     inkscape:current-layer="layer1">
    <inkscape:grid
       type="xygrid"
       id="grid132"
       originx="0"
       originy="0"
       spacingy="1"
       spacingx="1"
       units="mm" />
  </sodipodi:namedview>
  <defs
     id="defs2" />
  <g
     inkscape:label="Layer 1"
     inkscape:groupmode="layer"
     id="layer1">
    <rect
       style="fill:#2590eb;stroke:none;stroke-width:1.00012;stroke-linecap:square;fill-opacity:1"
       id="rect1"
       width="13.229166"
       height="13.229166"
       x="0"
       y="0" />
    <path
       style="fill:none;fill-opacity:1;stroke:#0000ff;stroke-width:1;stroke-dasharray:none;stroke-opacity:1"
       d="M 0.46445277,1.2913173 C 1.1689344,0.88684686 1.2112596,0.61616774 2.4689683,0.89301558 3.4327427,1.1336208 3.9155878,1.9569266 4.6401748,1.9999999 5.8184834,2.070045 6.4505109,0.96019401 7.2057485,0.99999997 7.7486956,1.028618 8.1811891,1.9999999 9.0000005,1.9999999 c 1.0422165,0 1.7736165,-0.862103 2.1906975,-0.862103 0.532499,0.024506 0.688282,0.1605074 1.540286,0.5136989"
       id="path2780"
       sodipodi:nodetypes="ccssssc" />
    <path
       style="fill:none;fill-opacity:1;stroke:#0000ff;stroke-width:1;stroke-dasharray:none;stroke-opacity:1"
       d="M 0.2972142,4.8387688 C 1.0000001,4.5246411 1.2385624,4.2888295 2.0000001,4.0803755 2.694232,3.89032 3.2055329,4.9999999 3.9163456,4.9999999 c 0.9784224,0 1.3015316,-0.8300477 2.1666297,-1.2425692 1.8030043,-0.6530856 2.0487182,1.3526541 3.4001238,1.2425692 1.3667599,-0.1113357 2.1087309,-0.3409308 3.2127919,-1"
       id="path2782"
       sodipodi:nodetypes="cssssc" />
    <path
       style="fill:none;fill-opacity:1;stroke:#0000ff;stroke-width:1;stroke-dasharray:none;stroke-opacity:1"
       d="M 12.422347,6.5327319 C 11.678829,7.9999998 11.814019,8.0199583 10.424849,8.4175722 9.2661615,8.6801317 9.2354335,6.3951962 7.3741777,6.6676969 5.9135623,6.8815411 6.4086664,8.1920517 5.0000003,8.3127686 3.5874368,8.4338195 3.7871511,6.7155851 2.5818359,6.7345724 1.9987009,6.7437585 2.1672516,6.7000971 0.47941471,7.9999998"
       id="path2784"
       sodipodi:nodetypes="cssssc" />
    <path
       style="fill:none;fill-opacity:1;stroke:#0000ff;stroke-width:1;stroke-dasharray:none;stroke-opacity:1"
       d="M 0.43821615,11.418875 C 1.1561849,10.75746 1.2920405,10.052971 1.861832,9.9999997 3.0060109,9.8742518 3.2289468,11.706603 4.534465,11.72146 6.3805447,11.673003 5.7940542,10.204753 7.0000004,10.191976 8.055522,10.180792 7.6576601,12.092136 9.1809011,12.143372 10.471137,12 10.289456,9.8648007 12.650391,11.59251"
       id="path2786"
       sodipodi:nodetypes="cccscc" />
  </g>
</svg>
